<?xml version="1.0" standalone="no"?>
<!DOCTYPE svg PUBLIC "-//W3C//DTD SVG 1.1//EN" "http://www.w3.org/Graphics/SVG/1.1/DTD/svg11.dtd" >
<svg>
<metadata>
Created by FontForge 20090622 at Tue Oct 23 03:10:59 2018
 By deploy user
Copyright (c) 2014 Ahamono is designed by Alfredo Marco Pradil (ammpradil@gmail.com). Ahamono is a trademark of Alfredo Marco Pradil.
</metadata>
<defs>
<font id="AHAMONO-Regular" horiz-adv-x="566" >
  <font-face 
    font-family="AHAMONO"
    font-weight="400"
    font-stretch="normal"
    units-per-em="1000"
    panose-1="0 0 5 0 0 0 0 0 0 0"
    ascent="800"
    descent="-200"
    x-height="493"
    cap-height="739"
    bbox="-575 -425 602 1254"
    underline-thickness="50"
    underline-position="-130"
    unicode-range="U+0020-U+F8FF"
  />
<missing-glyph 
d="M50 0v510h466v-510h-466zM100 50h366v410h-366v-410z" />
    <glyph glyph-name=".notdef" 
d="M50 0v510h466v-510h-466zM100 50h366v410h-366v-410z" />
    <glyph glyph-name=".null" horiz-adv-x="0" 
 />
    <glyph glyph-name="nonmarkingreturn" horiz-adv-x="333" 
 />
    <glyph glyph-name="space" unicode=" " 
 />
    <glyph glyph-name="exclam" unicode="!" 
d="M283 253q-15 0 -25 9.5t-10 25.5v416q0 15 9.5 25t25.5 10q15 0 25 -9.5t10 -25.5v-416q0 -15 -9.5 -25t-25.5 -10zM283 0q-36 0 -60 26.5t-24 60.5q0 36 25.5 61.5t58.5 25.5q34 0 59 -26t25 -61q0 -36 -25.5 -61.5t-58.5 -25.5z" />
    <glyph glyph-name="quotedbl" unicode="&#x22;" 
d="M213 501q-15 0 -25 10t-10 25v168q0 15 10 25t25 10t25 -10t10 -25v-168q0 -15 -10 -25t-25 -10zM353 501q-15 0 -25 10t-10 25v168q0 15 10 25t25 10t25 -10t10 -25v-168q0 -15 -10 -25t-25 -10z" />
    <glyph glyph-name="numbersign" unicode="#" 
d="M61 -21q-17 0 -27 10.5t-10 23.5q0 3 2 11l52 182h-49q-16 0 -25.5 10.5t-9.5 24.5q0 15 9.5 25t25.5 10h69l56 197h-67q-35 0 -35 35q0 15 9.5 25t25.5 10h87l48 172q7 25 33 25q14 0 25 -9.5t11 -24.5q0 -7 -1 -11l-44 -152h159l48 172q7 24 32 24q15 0 26.5 -9
t11.5 -24q0 -3 -2 -11l-44 -152h62q35 0 35 -35q0 -15 -9.5 -25t-25.5 -10h-82l-55 -197h79q35 0 35 -35q0 -15 -9.5 -25t-25.5 -10h-99l-57 -202q-7 -25 -33 -25q-16 0 -26.5 10.5t-10.5 23.5q0 3 2 11l52 182h-158l-57 -202q-7 -25 -33 -25zM171 276h158l56 197h-159z" />
    <glyph glyph-name="dollar" unicode="$" 
d="M301 -74q-15 0 -25 9.5t-10 25.5v41q-80 9 -133.5 73t-53.5 147q0 15 11 26.5t26 11.5q14 0 25 -11.5t11 -26.5q0 -53 33.5 -94.5t80.5 -49.5v264l-86 69q-65 51 -65 143q0 68 42 120.5t109 62.5v47q0 15 9.5 25t25.5 10q15 0 25 -9.5t10 -25.5v-50q48 -11 88 -43t59 -77
q7 -14 2 -29t-19 -22q-29 -15 -48 18q-33 59 -82 75v-275l89 -72q58 -48 58 -136q-3 -65 -44 -110.5t-103 -57.5v-44q0 -17 -10.5 -26t-24.5 -9zM266 437v223q-36 -9 -57.5 -40.5t-21.5 -67.5q0 -51 39 -82zM336 83q72 25 75 92q0 49 -32 75l-43 35v-202z" />
    <glyph glyph-name="percent" unicode="%" 
d="M49 -5q-15 -2 -25 7q-10 5 -15 20q-4 15 6 28l475 678q10 14 24 15q14 2 25 -6t15 -21q5 -13 -6 -27l-475 -679q-11 -14 -24 -15zM157 415q-27 0 -55 11q-27 13 -44 32q-19 17 -30 45q-11 27 -11 56v35q0 29 11 56q11 29 30 46q17 19 44 32q28 11 55 11t55 -11
q27 -13 44 -32q19 -17 30 -46q11 -27 11 -56v-35q0 -29 -11 -56q-11 -28 -30 -45q-17 -19 -44 -32q-28 -11 -55 -11zM157 494q26 0 45 19q18 19 18 46v35q0 26 -18 46q-19 19 -45 19q-25 0 -43 -19q-19 -19 -19 -46v-35q0 -27 19 -46q18 -19 43 -19zM417 0q-28 0 -55 12
q-22 10 -44 30q-20 21 -30 46q-11 27 -11 56v36q0 29 11 56q10 25 30 46q22 20 44 30q27 12 55 12t55 -12q22 -10 44 -30q20 -21 30 -46q11 -27 11 -56v-36q0 -29 -11 -56q-10 -25 -30 -46q-22 -20 -44 -30q-27 -12 -55 -12zM417 80q25 0 45 18q18 20 18 46v36q0 26 -18 45
q-19 19 -45 19q-25 0 -43 -19q-19 -19 -19 -45v-36q0 -27 19 -46q18 -18 43 -18z" />
    <glyph glyph-name="ampersand" unicode="&#x26;" 
d="M251 0q-92 0 -157 66.5t-65 159.5q0 63 30.5 115.5t82.5 81.5q-60 54 -60 136q0 75 53 127.5t130 52.5h167q16 0 26.5 -11t10.5 -27q0 -18 -11 -28t-26 -10h-167q-46 0 -77.5 -29.5t-31.5 -74.5q0 -46 31 -76t78 -30h245q16 0 26.5 -11t10.5 -27t-10.5 -27t-26.5 -11h-41
v-339q0 -18 -11 -28t-26 -10h-181zM251 76h144v301h-144q-60 0 -104 -45t-44 -106q0 -63 44.5 -106.5t103.5 -43.5z" />
    <glyph glyph-name="quotesingle" unicode="'" 
d="M283 501q-15 0 -25 10t-10 25v168q0 15 10 25t25 10t25 -10t10 -25v-168q0 -15 -10 -25t-25 -10z" />
    <glyph glyph-name="parenleft" unicode="(" 
d="M428 -235q-8 0 -16 3q-275 110 -275 486q1 372 275 482q8 3 15 3q16 0 28 -12.5t12 -27.5q0 -26 -25 -37q-224 -90 -225 -408q0 -321 225 -412q26 -10 26 -37q0 -17 -12 -28.5t-28 -11.5z" />
    <glyph glyph-name="parenright" unicode=")" 
d="M177 -235q-17 0 -28.5 11.5t-11.5 28.5q0 27 26 37q225 91 225 412q-1 318 -225 408q-25 11 -25 37q0 15 12 27.5t28 12.5q8 0 15 -3q274 -110 275 -482q0 -376 -275 -486q-7 -3 -16 -3z" />
    <glyph glyph-name="asterisk" unicode="*" 
d="M167 314q-32 0 -38 36q-4 18 5 29l102 119l-149 31q-16 3 -24 20q-4 8 -4 21q0 11 5 24q9 22 28 22q8 0 17 -3l145 -59l-15 150q-2 12 9 23q19 19 35 19t31 -15q14 -14 13 -26l-15 -151l144 59q14 4 19 4q23 0 31 -34q1 -6 1 -15q0 -20 -14 -33q-6 -4 -14 -6l-149 -31
l102 -119q7 -8 7 -19q0 -8 -2 -12q-9 -34 -42 -34h-8q-19 3 -27 17l-77 134l-77 -134q-11 -17 -39 -17z" />
    <glyph glyph-name="plus" unicode="+" 
d="M283 -25q-16 -1 -26.5 9t-9.5 27v202l-203 1q-16 -1 -26 9t-10 27q-1 16 9.5 26t26.5 10h202v202q0 16 10.5 26t26.5 10q17 0 27 -9.5t9 -25.5v-202l203 -1q15 0 25 -10t10 -26t-10 -26.5t-26 -10.5h-202v-202q0 -16 -10 -26t-26 -10z" />
    <glyph glyph-name="comma" unicode="," 
d="M234 -203l-39 19l86 184q-31 2 -52.5 24.5t-21.5 54.5q0 33 23.5 56t52.5 23q31 0 53 -23.5t22 -55.5v-79z" />
    <glyph glyph-name="hyphen" unicode="-" 
d="M141 215q-17 0 -26 11q-9 10 -9 24t9 24q9 11 26 11h284q17 0 25 -11q9 -10 9 -24t-9 -24q-8 -11 -25 -11h-284z" />
    <glyph glyph-name="period" unicode="." 
d="M283 0q-41 0 -69 31t-28 70q0 42 29.5 71.5t67.5 29.5q40 0 68.5 -30t28.5 -71q0 -42 -29.5 -71.5t-67.5 -29.5z" />
    <glyph glyph-name="slash" unicode="/" 
d="M33 -189q-15 0 -25 10q-12 11 -12 25q0 5 1 8l3 9l469 856q5 9 13 14q6 6 17 6q15 0 25 -11q11 -9 11 -24q0 -10 -4 -17l-469 -857q-10 -19 -29 -19z" />
    <glyph glyph-name="zero" unicode="0" 
d="M283 0q-90 0 -149 65q-62 62 -62 155v300q0 91 62.5 155t148.5 64q91 0 149 -64q27 -27 46 -70q16 -43 16 -85v-300q0 -91 -62.5 -155.5t-148.5 -64.5zM146 200l235 421q-43 43 -98 43q-57 0 -98 -42.5t-41 -101.5v-300q0 -14 2 -20zM283 76q56 0 97.5 43t41.5 101v300
q0 14 -2 20l-235 -422q41 -42 98 -42z" />
    <glyph glyph-name="one" unicode="1" 
d="M101 0q-16 0 -26.5 11t-10.5 27q0 14 11 26t26 12h146v588h-146q-16 0 -26.5 11t-10.5 27q0 15 11 26t26 11h182q14 0 25 -11t11 -26v-626h146q15 0 26 -11.5t11 -26.5q0 -16 -10.5 -27t-26.5 -11h-364z" />
    <glyph glyph-name="two" unicode="2" 
d="M95 0q-15 0 -25.5 11t-10.5 27q0 69 49 121l266 270q39 39 39 97q0 56 -38.5 96.5t-93.5 40.5q-47 0 -83.5 -29.5t-45.5 -74.5q-2 -16 -12 -28t-26 -12q-15 0 -26 9.5t-11 24.5q0 76 61 131t143 55q86 0 145.5 -62.5t59.5 -150.5q0 -90 -60 -150l-267 -270
q-12 -13 -20 -31h332q14 0 25 -11t11 -26q0 -17 -11 -27.5t-25 -10.5h-376z" />
    <glyph glyph-name="three" unicode="3" 
d="M283 0q-83 0 -142.5 62.5t-59.5 148.5q0 16 10 27t26 11q15 0 25.5 -11.5t10.5 -26.5q0 -55 38 -95t92 -40t92 40t38 95v84q0 55 -38 95.5t-92 40.5q-31 0 -68 -25.5t-49 -25.5q-23 0 -33 21.5t5 40.5l188 222h-209q-15 0 -25.5 11t-10.5 27q0 15 10.5 26t25.5 11h288
q17 0 27 -11.5t10 -26.5t-9 -24l-146 -171q85 -3 141.5 -65t56.5 -146v-84q0 -85 -59 -148t-143 -63z" />
    <glyph glyph-name="four" unicode="4" 
d="M389 0q-16 0 -26.5 11t-10.5 27v147h-284q-15 0 -26 11t-11 26q0 11 7 22l320 479q10 16 31 16q15 0 26 -11t11 -26v-442h72q16 0 26.5 -11t10.5 -27q0 -15 -11 -26t-26 -11h-72v-147q0 -16 -10.5 -27t-26.5 -11zM138 260h214v319z" />
    <glyph glyph-name="five" unicode="5" 
d="M283 0q-86 0 -144 63t-58 148q0 17 11 27.5t25 10.5q15 0 25.5 -11t10.5 -27q0 -54 37.5 -94.5t92.5 -40.5q56 0 93 40.5t37 94.5v71q0 58 -38 97t-92 39q-34 0 -71.5 -25.5t-46.5 -25.5q-15 0 -25.5 11.5t-10.5 26.5v296q0 18 11 28t26 10h283q15 0 25.5 -11t10.5 -27
t-11 -26.5t-25 -10.5h-247v-189q38 18 81 18q85 0 143.5 -62t58.5 -149v-71q0 -87 -58.5 -149t-143.5 -62z" />
    <glyph glyph-name="six" unicode="6" 
d="M283 0q-88 0 -150 65t-62 155v299q0 90 61.5 155t150.5 65q76 0 130 -46t69 -98q3 -11 3 -17q0 -17 -11 -25.5t-23 -8.5q-7 0 -13 3t-10.5 7.5t-9.5 11.5t-7.5 11.5t-6 11.5l-4.5 9q-17 32 -49 49t-68 17q-56 0 -97.5 -43t-41.5 -102v-73q59 54 139 54q88 0 150 -65
t62 -155v-60q0 -89 -62 -154.5t-150 -65.5zM283 76q57 0 98 42.5t41 101.5v60q0 60 -40.5 102.5t-98.5 42.5q-59 0 -99 -44t-40 -101v-60q0 -59 41 -101.5t98 -42.5z" />
    <glyph glyph-name="seven" unicode="7" 
d="M177 0q-14 0 -25.5 10.5t-11.5 24.5q0 10 11 36l253 593h-298q-15 0 -25.5 11t-10.5 27q0 17 11 27t25 10h354q35 0 35 -33q0 -12 -9 -34l-269 -634q-9 -20 -17 -29t-23 -9z" />
    <glyph glyph-name="eight" unicode="8" 
d="M283 0q-88 0 -150 63.5t-62 156.5q0 56 25 106t72 80q-69 56 -69 147q0 77 55 131.5t129 54.5q76 0 130 -55t54 -132q0 -90 -69 -146q48 -30 72.5 -80t24.5 -106q0 -92 -61.5 -156t-150.5 -64zM284 440q46 0 78 34.5t32 79.5q0 46 -34 78t-78 32q-45 0 -77.5 -33.5
t-32.5 -79.5t34 -78.5t78 -32.5zM283 76q58 0 98.5 41t40.5 103t-41 103.5t-99 41.5t-98 -42.5t-40 -102.5q0 -61 40.5 -102.5t98.5 -41.5z" />
    <glyph glyph-name="nine" unicode="9" 
d="M283 0q-76 0 -130 46t-69 98q-3 10 -3 17q0 17 11 25.5t23 8.5q8 0 15 -3.5t13 -11.5t9 -12.5t8 -15.5l6 -11q17 -32 49 -49t68 -17q56 0 97.5 43t41.5 102v73q-58 -54 -139 -54q-88 0 -150 65t-62 155v60q0 89 62 154.5t150 65.5t150 -65t62 -155v-299q0 -90 -61.5 -155
t-150.5 -65zM283 314q59 0 99 44t40 101v60q0 59 -41 101.5t-98 42.5t-98 -42.5t-41 -101.5v-60q0 -60 40.5 -102.5t98.5 -42.5z" />
    <glyph glyph-name="colon" unicode=":" 
d="M266 320q-36 0 -60 26.5t-24 60.5q0 36 25.5 61.5t58.5 25.5q34 0 59 -26t25 -61q0 -36 -25.5 -61.5t-58.5 -25.5zM266 0q-36 0 -60 26.5t-24 60.5q0 36 25.5 61.5t58.5 25.5q34 0 59 -26t25 -61q0 -36 -25.5 -61.5t-58.5 -25.5z" />
    <glyph glyph-name="semicolon" unicode=";" 
d="M266 320q-36 0 -60 26.5t-24 60.5q0 36 25.5 61.5t58.5 25.5q34 0 59 -26t25 -61q0 -36 -25.5 -61.5t-58.5 -25.5zM217 -203l-39 19l86 184q-31 2 -52.5 24.5t-21.5 54.5q0 33 23.5 56t52.5 23q31 0 53 -23.5t22 -55.5v-79z" />
    <glyph glyph-name="less" unicode="&#x3c;" 
d="M442 3q-11 0 -20 6l-322 205q-18 10 -18 32q0 10 5 18q4 7 13 14l322 205q15 8 28 3q15 -3 23 -16q8 -14 5 -28q-3 -17 -16 -24l-271 -172l271 -173q11 -7 16 -23q3 -15 -5 -29q-10 -18 -31 -18z" />
    <glyph glyph-name="equal" unicode="=" 
d="M121 295q-17 0 -26 11q-9 10 -9 24t9 24q9 11 26 11h324q17 0 25 -11q9 -10 9 -24t-9 -24q-8 -11 -25 -11h-324zM121 135q-17 0 -26 11q-9 10 -9 24t9 24q9 11 26 11h324q17 0 25 -11q9 -10 9 -24t-9 -24q-8 -11 -25 -11h-324z" />
    <glyph glyph-name="greater" unicode="&#x3e;" 
d="M119 3q-21 0 -31 18q-8 15 -4 29q5 16 16 23l271 173l-271 172q-13 7 -16 24q-4 14 4 28q8 13 23 16q13 5 28 -3l323 -205q9 -8 12 -14q5 -6 5 -18q0 -22 -18 -32l-322 -205q-9 -6 -20 -6z" />
    <glyph glyph-name="question" unicode="?" 
d="M279 235q-16 0 -28 11t-12 29v130q0 38 47 38q72 0 101 22.5t29 73.5q0 58 -40.5 91t-99.5 33q-51 0 -95.5 -39t-44.5 -83q0 -26 -12 -40t-28 -14q-13 0 -23.5 9t-10.5 23q0 91 63 155.5t151 64.5q91 0 152.5 -56t61.5 -144q0 -83 -42 -123.5t-135 -44.5v-96
q0 -20 -10 -30t-24 -10zM280 0q-32 0 -54 24t-22 55q0 34 22 56.5t53 22.5t53.5 -23.5t22.5 -55.5q0 -35 -21 -57t-54 -22z" />
    <glyph glyph-name="at" unicode="@" 
d="M283 0q-100 0 -171 71t-71 173t73 172q72 69 168 69h13q92 0 164 -76q67 -70 67 -173q0 -48 -34 -82t-82 -34h-34q-20 0 -27 19q-28 -19 -73 -19q-43 0 -79 36t-36 86q0 51 36 87t79 36q45 0 73 -19q7 19 23 19q17 0 26 -9q8 -8 8 -21v-156h4q23 0 40 17t17 40
q0 76 -53 132q-51 58 -122 58h-10h-9q-64 0 -118 -53q-55 -52 -55 -131q0 -76 52 -130q55 -53 131 -53h214q12 0 21 -9q8 -8 8 -20t-8 -22q-10 -8 -21 -8h-214zM281 178h1q27 2 46 19q19 18 19 45q0 26 -19 45t-46 19q-26 0 -44 -19q-19 -19 -19 -45t19 -44q17 -20 43 -20z
" />
    <glyph glyph-name="A" unicode="A" 
d="M38 0q-15 0 -26 10.5t-11 27.5l248 678q9 23 34 23q26 0 34 -23l248 -678q0 -18 -11 -28t-26 -10q-24 0 -34 24l-62 167h-298l-62 -167q-11 -24 -34 -24zM162 266h242l-121 328z" />
    <glyph glyph-name="B" unicode="B" 
d="M106 0q-15 0 -25.5 11.5t-10.5 26.5v663q0 15 11 26.5t25 11.5h191q74 0 126 -54.5t52 -130.5q0 -92 -99 -138q150 -54 150 -194q0 -92 -63.5 -157t-150.5 -65h-206zM143 444h154q46 0 76 33t30 77t-31 76.5t-75 32.5h-154v-219zM143 75h169q60 0 100.5 44t40.5 103
q0 60 -41 103.5t-100 43.5h-169v-294z" />
    <glyph glyph-name="C" unicode="C" 
d="M293 0q-87 0 -148 64.5t-61 153.5v303q0 89 61 153.5t148 64.5t148 -64.5t61 -153.5q0 -17 -11 -27.5t-25 -10.5q-15 0 -25.5 11t-10.5 27q0 58 -40 100t-97 42q-58 0 -97.5 -42.5t-39.5 -99.5v-303q0 -58 40 -100.5t97 -42.5q59 0 98 42.5t39 100.5q0 17 11 27t25 10
q15 0 25.5 -10.5t10.5 -26.5q0 -89 -61 -153.5t-148 -64.5z" />
    <glyph glyph-name="D" unicode="D" 
d="M122 0q-15 0 -25.5 11t-10.5 27v663q0 17 11 27.5t25 10.5h173q87 0 148 -64.5t61 -153.5v-303q0 -89 -61 -153.5t-148 -64.5h-173zM158 75h137q56 0 96.5 43t40.5 100v303q0 59 -41 101t-96 42h-137v-589z" />
    <glyph glyph-name="E" unicode="E" 
d="M115 0q-14 0 -24.5 11t-10.5 27v663q0 15 10 26.5t25 11.5h366q14 0 24.5 -11.5t10.5 -27.5t-10.5 -26.5t-24.5 -10.5h-330v-256h256q15 0 25.5 -11t10.5 -27t-11 -26.5t-25 -10.5h-256v-257h330q14 0 24.5 -11t10.5 -27t-11 -26.5t-24 -10.5h-366z" />
    <glyph glyph-name="F" unicode="F" 
d="M145 0q-14 0 -24.5 11t-10.5 27v663q0 15 10 26.5t25 11.5h346q14 0 25 -11.5t11 -26.5q0 -16 -11 -27t-25 -11h-310v-256h236q15 0 25.5 -11t10.5 -27t-11 -26.5t-25 -10.5h-236v-294q0 -17 -11 -27.5t-25 -10.5z" />
    <glyph glyph-name="G" unicode="G" 
d="M283 0q-87 0 -148 64.5t-61 153.5v303q0 91 62 154.5t147 63.5q88 0 148.5 -59.5t60.5 -148.5q0 -17 -11 -27.5t-25 -10.5q-15 0 -25.5 11t-10.5 27q0 56 -39.5 94t-97.5 38t-97.5 -42.5t-39.5 -99.5v-303q0 -58 40 -100.5t97 -42.5t97 42t40 101v74h-117q-14 0 -25 11
t-11 26q0 17 11 27.5t25 10.5h153q15 0 25.5 -11t10.5 -27v-111q0 -89 -61 -153.5t-148 -64.5z" />
    <glyph glyph-name="H" unicode="H" 
d="M116 0q-15 0 -25.5 11t-10.5 27v663q0 15 10.5 26.5t25.5 11.5q14 0 25 -11.5t11 -26.5v-294h262v294q0 15 11 26.5t25 11.5q15 0 25.5 -11.5t10.5 -26.5v-663q0 -17 -11 -27.5t-25 -10.5q-15 0 -25.5 11.5t-10.5 26.5v294h-262v-294q0 -16 -11 -27t-25 -11z" />
    <glyph glyph-name="I" unicode="I" 
d="M126 0q-15 0 -25.5 11t-10.5 27q0 17 11 27t25 10h121v589h-121q-15 0 -25.5 11t-10.5 27q0 17 11 27t25 10h314q15 0 25.5 -10.5t10.5 -26.5q0 -17 -11 -27.5t-25 -10.5h-121v-589h121q15 0 25.5 -10.5t10.5 -26.5t-10 -27t-26 -11h-314z" />
    <glyph glyph-name="J" unicode="J" 
d="M283 0q-87 0 -148.5 64.5t-61.5 153.5q0 15 11 26t26 11q14 0 25 -11t11 -26q0 -57 40.5 -100t96.5 -43q58 0 97.5 43.5t39.5 99.5v446h-274q-15 0 -25.5 11t-10.5 27t11 26.5t25 10.5h310q15 0 26 -11t11 -26v-484q0 -89 -61.5 -153.5t-148.5 -64.5z" />
    <glyph glyph-name="K" unicode="K" 
d="M125 0q-15 0 -25.5 11t-10.5 27v664q0 16 11 26.5t25 10.5q15 0 26 -11t11 -26v-362l236 382q11 17 31 17q15 0 25.5 -11.5t10.5 -26.5q0 -10 -6 -19l-151 -245l224 -380q5 -12 5 -21q0 -15 -10.5 -25.5t-25.5 -10.5q-21 0 -31 18l-206 348l-102 -166v-162
q0 -16 -10.5 -27t-26.5 -11z" />
    <glyph glyph-name="L" unicode="L" 
d="M131 0q-14 0 -25 11t-11 27v664q0 15 11 26t25 11q15 0 26 -11t11 -26v-627h327q14 0 25 -11t11 -26q0 -16 -11 -27t-25 -11h-364z" />
    <glyph glyph-name="M" unicode="M" 
d="M78 0q-15 0 -25.5 11t-10.5 27v664q0 16 11.5 26.5t24.5 10.5q22 0 33 -21l172 -364l172 364q11 21 33 21q14 0 25 -11t11 -26v-664q0 -17 -11 -27.5t-25 -10.5q-16 0 -26.5 11t-10.5 27v500l-135 -286q-10 -21 -33 -21t-33 21l-135 286v-500q0 -16 -10.5 -27t-26.5 -11z
" />
    <glyph glyph-name="N" unicode="N" 
d="M101 0q-15 0 -25.5 11t-10.5 27v664q0 16 11 26.5t25 10.5q21 0 31 -19l297 -540v522q0 16 11 26.5t25 10.5t25 -11t11 -26v-664q0 -17 -11 -27.5t-25 -10.5q-22 0 -31 19l-297 540v-521q0 -17 -11 -27.5t-25 -10.5z" />
    <glyph glyph-name="O" unicode="O" 
d="M283 -3q-88 0 -149 64t-61 154v306q0 91 61.5 154.5t148.5 63.5t148.5 -64t61.5 -154v-306q0 -90 -61.5 -154t-148.5 -64zM283 72q58 0 97.5 43.5t39.5 99.5v306q0 58 -40 100t-97 42q-58 0 -97.5 -42.5t-39.5 -99.5v-306q0 -59 41 -101t96 -42z" />
    <glyph glyph-name="P" unicode="P" 
d="M122 0q-15 0 -25.5 11.5t-10.5 26.5v663q0 15 11 26.5t25 11.5h160q90 0 154 -67t64 -160q0 -94 -64.5 -160.5t-153.5 -66.5h-123v-247q0 -16 -10.5 -27t-26.5 -11zM159 361h123q59 0 102 44.5t43 106.5q0 61 -42.5 106t-102.5 45h-123v-302z" />
    <glyph glyph-name="Q" unicode="Q" 
d="M281 0q-88 0 -149.5 64.5t-61.5 154.5v301q0 90 61.5 154.5t149.5 64.5q87 0 148.5 -64.5t61.5 -154.5v-301q0 -65 -35 -121l37 -41q7 -8 7 -20q0 -16 -12 -26.5t-25 -10.5q-9 0 -19 7l-39 36q-55 -43 -124 -43zM281 75q39 0 73 22l-99 102q-11 11 -11 27t10.5 27
t26.5 11t25 -11l97 -101q16 33 16 67v301q0 59 -41.5 101t-96.5 42q-58 0 -98 -43.5t-40 -99.5v-301q0 -59 40 -101.5t98 -42.5z" />
    <glyph glyph-name="R" unicode="R" 
d="M118 0q-15 0 -25.5 11.5t-10.5 26.5v663q0 15 11 26.5t25 11.5h161q91 0 155 -67t64 -160q0 -73 -40.5 -131t-105.5 -83l165 -239q7 -11 7 -21q0 -16 -11 -27t-25 -11q-20 0 -30 16l-187 269h-116v-247q0 -16 -10.5 -27t-26.5 -11zM155 361h124q59 0 102.5 44.5
t43.5 106.5q0 61 -43 106t-103 45h-124v-302z" />
    <glyph glyph-name="S" unicode="S" 
d="M292 0q-90 0 -151.5 66.5t-61.5 155.5q0 15 11 26.5t26 11.5q14 0 25 -11.5t11 -26.5q0 -62 41.5 -104t98.5 -42q50 0 83 27.5t36 71.5q0 49 -32 75l-199 161q-65 52 -65 143q0 76 50.5 130.5t126.5 54.5q91 0 160 -74q35 -42 35 -68q0 -15 -11 -27t-25 -12q-20 0 -33 23
q-45 82 -126 82q-46 0 -75.5 -33.5t-29.5 -77.5q0 -51 39 -82l199 -161q58 -48 58 -136q-3 -77 -58.5 -125t-132.5 -48z" />
    <glyph glyph-name="T" unicode="T" 
d="M283 0q-16 0 -26.5 11t-10.5 27v625h-205q-16 0 -26.5 11t-10.5 27t10.5 27t26.5 11h484q16 0 26.5 -11t10.5 -27t-10.5 -27t-26.5 -11h-205v-625q0 -16 -10.5 -27t-26.5 -11z" />
    <glyph glyph-name="U" unicode="U" 
d="M283 0q-89 0 -149.5 65t-60.5 154v482q0 15 10.5 26.5t25.5 11.5t25.5 -11.5t10.5 -26.5v-482q0 -59 40 -101.5t98 -42.5t98 43.5t40 100.5v482q0 15 10.5 26.5t25.5 11.5t25.5 -11.5t10.5 -26.5v-482q0 -92 -61.5 -155.5t-148.5 -63.5z" />
    <glyph glyph-name="V" unicode="V" 
d="M283 0q-27 0 -34 24l-195 657q-3 11 -3 19q0 18 10 28.5t26 10.5q26 0 35 -27l161 -545l161 545q9 27 35 27q37 0 37 -36q0 -6 -4 -22l-195 -657q-7 -24 -34 -24z" />
    <glyph glyph-name="W" unicode="W" 
d="M78 0q-16 0 -26.5 11t-10.5 27v663q0 15 11 26.5t26 11.5t25.5 -11.5t10.5 -26.5v-499l136 287q10 22 33 22t33 -22l136 -287v499q0 15 10.5 26.5t25.5 11.5q16 0 26.5 -12t10.5 -26v-663q0 -16 -10.5 -27t-26.5 -11q-22 0 -33 21l-172 366l-172 -366q-11 -21 -33 -21z
" />
    <glyph glyph-name="X" unicode="X" 
d="M115 0q-15 0 -26 11t-11 26q0 11 5 18l159 314l-159 314q-4 9 -4 20q0 15 10.5 25.5t25.5 10.5q21 0 32 -21l136 -268l136 268q11 21 32 21q16 0 26 -10t10 -26q0 -11 -4 -20l-159 -314l159 -314q5 -12 5 -19q0 -15 -11 -25.5t-26 -10.5q-20 0 -32 20l-136 269l-136 -269
q-12 -20 -32 -20z" />
    <glyph glyph-name="Y" unicode="Y" 
d="M283 0q-15 0 -25.5 11t-10.5 27v322l-163 323q-5 12 -5 18q0 15 11 26.5t25 11.5q21 0 32 -21l136 -268l136 268q11 21 32 21q14 0 25 -11.5t11 -26.5q0 -6 -5 -18l-163 -323v-322q0 -17 -11 -27.5t-25 -10.5z" />
    <glyph glyph-name="Z" unicode="Z" 
d="M90 0q-15 0 -25.5 11.5t-10.5 26.5q0 7 5 19l352 606h-281q-16 0 -26.5 11t-10.5 27q0 15 11 26.5t26 11.5h346q14 0 25 -11.5t11 -26.5q0 -8 -5 -20l-352 -606h321q14 0 25 -11t11 -26q0 -16 -11 -27t-25 -11h-386z" />
    <glyph glyph-name="bracketleft" unicode="[" 
d="M191 -235q-15 0 -25.5 11t-10.5 27v896q0 18 11 29t25 11h184q16 0 26 -11.5t10 -28.5t-11 -27.5t-25 -10.5h-148v-819h148q15 0 25.5 -11.5t10.5 -27.5q0 -17 -11 -27.5t-25 -10.5h-184z" />
    <glyph glyph-name="backslash" unicode="\" 
d="M499 -189q-20 0 -30 19l-469 857q-4 9 -4 17q0 15 12 24q10 11 25 11q9 0 17 -6q7 -6 12 -14l469 -856q4 -7 4 -17q0 -14 -11 -25q-10 -10 -25 -10z" />
    <glyph glyph-name="bracketright" unicode="]" 
d="M191 -235q-14 0 -25 10.5t-11 27.5q0 16 10.5 27.5t25.5 11.5h148v819h-148q-14 0 -25 10.5t-11 27.5t10 28.5t26 11.5h184q14 0 25 -11t11 -29v-896q0 -16 -10.5 -27t-25.5 -11h-184z" />
    <glyph glyph-name="asciicircum" unicode="^" 
d="M485 381q-6 0 -9 1q-16 5 -23 16l-173 271l-172 -271q-7 -13 -24 -16q-14 -4 -28 4q-13 8 -16 23q-5 13 3 28l205 323q12 17 33 17t31 -18l205 -322q6 -9 6 -25q0 -15 -16 -24q-11 -7 -22 -7z" />
    <glyph glyph-name="underscore" unicode="_" 
d="M51 -100q-17 0 -26 11t-9 24t9 24t26 11h464q17 0 25 -11q9 -11 9 -24t-9 -24q-8 -11 -25 -11h-464z" />
    <glyph glyph-name="grave" unicode="`" 
d="M273 606q-3 0 -13 2q-6 1 -15 10l-79 92q-11 11 -11 24q0 6 1 8q5 15 20 23q14 7 24 3q12 -6 16 -11l81 -92q10 -11 10 -23q0 -6 -1 -9q-10 -27 -33 -27z" />
    <glyph glyph-name="a" unicode="a" 
d="M228 0q-77 0 -120.5 40t-43.5 104q0 65 45 105t118 41q152 1 171 12q15 14 15 32q0 35 -36.5 62t-90.5 27q-41 0 -75.5 -18t-52.5 -52q-10 -21 -31 -21q-36 0 -36 35q0 47 66 86.5t135 39.5q72 0 131 -45.5t59 -113.5v-299q0 -16 -10.5 -25.5t-24.5 -9.5t-24 10t-10 25
v46q-32 -42 -82.5 -61.5t-102.5 -19.5zM242 71q76 0 123.5 35t47.5 100v47q-24 -13 -57 -16t-118 -5q-102 -2 -102 -83q0 -78 106 -78z" />
    <glyph glyph-name="b" unicode="b" 
d="M127 0q-15 0 -25.5 11t-10.5 27v664q0 16 11 26.5t25 10.5q15 0 26 -11t11 -26v-263q61 55 122 55q102 0 165.5 -62.5t63.5 -158.5v-53q0 -91 -61.5 -155.5t-146.5 -64.5q-83 0 -143 54v-16q0 -16 -10.5 -27t-26.5 -11zM302 76q57 0 98.5 42t41.5 102v53q0 63 -41 104
t-99 41q-57 0 -97.5 -42t-40.5 -103v-53q0 -62 40.5 -103t97.5 -41z" />
    <glyph glyph-name="c" unicode="c" 
d="M313 0q-87 0 -149.5 65t-62.5 151v61q0 90 63.5 153t149.5 63q58 0 108.5 -30.5t77.5 -81.5q5 -10 5 -18q0 -14 -11 -25t-26 -11q-11 0 -18.5 5t-18 20.5t-11.5 16.5q-40 50 -106 50q-58 0 -99 -42t-41 -100v-61q0 -59 41 -100.5t99 -41.5q73 0 116 64q13 29 39 29
q14 0 25 -11.5t11 -25.5q0 -10 -5 -18q-27 -51 -78 -81.5t-109 -30.5z" />
    <glyph glyph-name="d" unicode="d" 
d="M269 0q-85 0 -146.5 64.5t-61.5 155.5v52q0 93 64 157t149 64q77 0 138 -55v264q0 15 11 26t26 11q14 0 25 -10.5t11 -26.5v-664q0 -16 -10.5 -27t-25.5 -11q-16 0 -26.5 11t-10.5 27v16q-60 -54 -143 -54zM274 76q57 0 97.5 41t40.5 103v52q0 61 -40.5 103t-97.5 42
q-58 0 -99 -41t-41 -104v-52q0 -60 41.5 -102t98.5 -42z" />
    <glyph glyph-name="e" unicode="e" 
d="M292 0q-87 0 -150 64t-63 152v61q0 89 63 152.5t154 63.5q95 0 153 -68.5t58 -169.5q0 -21 -10.5 -31.5t-26.5 -10.5h-317q0 -59 42.5 -99t101.5 -40q42 0 67.5 19t51.5 55q13 19 31 19q14 0 26 -10t12 -23q0 -10 -5 -22q-17 -43 -71.5 -77.5t-116.5 -34.5zM153 287h278
q-9 64 -45.5 98t-90.5 34q-59 0 -99 -38.5t-43 -93.5z" />
    <glyph glyph-name="f" unicode="f" 
d="M106 0q-15 0 -25.5 11.5t-10.5 26.5q0 16 11 27t25 11h124v352h-124q-36 0 -36 33q0 32 36 32h124v108q0 60 39 99t94 39q56 0 94.5 -39.5t38.5 -91.5q0 -45 -36 -45q-17 0 -27 12.5t-10 30.5q0 65 -60 65t-60 -70v-108h157q36 0 36 -32q0 -33 -36 -33h-157v-352h157
q15 0 25.5 -11.5t10.5 -26.5q0 -16 -11 -27t-25 -11h-354z" />
    <glyph glyph-name="g" unicode="g" 
d="M177 -208q-49 0 -79.5 34t-30.5 81q0 54 43 88l15 12q-58 37 -58 109t54 126q-13 29 -13 68q0 76 52 130t127 54q74 0 125 -55l75 68q9 8 24 5q14 -3 22 -13t8 -21q0 -16 -17 -31l-74 -68q13 -29 13 -68q0 -83 -50.5 -133t-127.5 -50q-30 0 -65.5 14t-59.5 39
q-24 -30 -24 -60q0 -59 49 -59h204q51 0 80.5 -34.5t29.5 -83.5q0 -60 -45 -106t-106 -46h-171zM285 199q49 0 79 32.5t30 79.5q0 49 -32 80t-77 31q-48 0 -78 -33t-30 -78q0 -48 32 -80t76 -32zM177 -137h171q54 0 76 51q12 32 1.5 54t-36.5 22h-173l-64 -51
q-16 -13 -16 -32t12 -31.5t29 -12.5z" />
    <glyph glyph-name="h" unicode="h" 
d="M116 0q-15 0 -25.5 11.5t-10.5 26.5v663q0 15 11 26.5t25 11.5q16 0 26.5 -12t10.5 -26v-282q65 75 140 75q88 0 150.5 -65.5t62.5 -156.5v-234q0 -16 -11 -27t-25 -11q-16 0 -26.5 11t-10.5 27v234q0 60 -42 103t-98 43q-57 0 -98.5 -43.5t-41.5 -102.5v-234
q0 -16 -10.5 -27t-26.5 -11z" />
    <glyph glyph-name="i" unicode="i" 
d="M302 573q-26 0 -43 19t-17 43q0 26 17.5 44.5t42.5 18.5q28 0 44.5 -18.5t16.5 -44.5q0 -27 -17 -44.5t-44 -17.5zM106 0q-16 0 -26.5 11t-10.5 27q0 14 11 26t26 12h170v341h-170q-16 0 -26.5 11t-10.5 27q0 14 11 26t26 12h207q15 0 26 -11.5t11 -26.5v-379h140
q15 0 26 -11.5t11 -26.5q0 -16 -10.5 -27t-26.5 -11h-384z" />
    <glyph glyph-name="j" unicode="j" 
d="M421 571q-27 0 -43.5 19t-16.5 44q0 26 17 45t43 19q27 0 43.5 -19t16.5 -45t-17.5 -44.5t-42.5 -18.5zM283 -230q-88 0 -151 66t-63 157q0 15 11 27t26 12t26 -11.5t11 -27.5q0 -61 42 -104t98 -43q58 0 99 43.5t41 103.5v423h-233q-16 0 -26.5 11t-10.5 27q0 15 11 27
t26 12h270q15 0 26 -11.5t11 -27.5v-461q0 -92 -63.5 -157.5t-150.5 -65.5z" />
    <glyph glyph-name="k" unicode="k" 
d="M144 0q-15 0 -25.5 11t-10.5 27v663q0 15 10.5 26.5t25.5 11.5t25.5 -11.5t10.5 -26.5v-471l266 253q11 10 25 10q15 0 25.5 -11t10.5 -27q0 -17 -11 -28l-157 -149l171 -216q8 -11 8 -24q0 -17 -11 -27.5t-25 -10.5q-17 0 -28 14l-169 213l-105 -100v-89
q0 -17 -11 -27.5t-25 -10.5z" />
    <glyph glyph-name="l" unicode="l" 
d="M349 -1q-70 0 -121 52t-51 124v488h-115q-15 0 -26 10.5t-11 27.5q0 18 11 28t26 10h152q15 0 26 -10.5t11 -27.5v-526q0 -43 29.5 -71.5t68.5 -28.5q40 0 69 29.5t29 70.5q0 16 10.5 27t26.5 11q15 0 26 -10.5t11 -27.5q0 -72 -50.5 -124t-121.5 -52z" />
    <glyph glyph-name="m" unicode="m" 
d="M109 0q-15 0 -26 11t-11 26v419q0 15 10.5 26t26.5 11q21 0 29 -14q30 14 58 14q51 0 87 -36q36 36 87 36t87.5 -37t36.5 -88v-331q0 -15 -11 -26t-26 -11q-14 0 -25 11t-11 26v331q0 21 -15 36t-36 15q-22 0 -36 -14.5t-14 -36.5v-331q0 -15 -11 -26t-26 -11t-26 11
t-11 26v331q0 21 -14.5 36t-35.5 15t-36 -15t-15 -36v-331q0 -16 -11 -26.5t-25 -10.5z" />
    <glyph glyph-name="n" unicode="n" 
d="M116 0q-15 0 -26 11t-11 26v419q0 15 10.5 26t26.5 11t26.5 -11t10.5 -26v-52q29 46 65 67.5t93 21.5q94 0 145 -54.5t51 -161.5v-240q0 -15 -11 -26t-26 -11t-26 11t-11 26v240q0 70 -35 106t-97 36q-71 0 -109.5 -42.5t-38.5 -99.5v-240q0 -15 -11 -26t-26 -11z" />
    <glyph glyph-name="o" unicode="o" 
d="M283 0q-90 0 -152 64t-62 152v61q0 88 62.5 152t151.5 64q91 0 152.5 -64t61.5 -152v-61q0 -90 -63.5 -153t-150.5 -63zM283 74q58 0 99 42t41 100v61q0 59 -41 100.5t-99 41.5q-60 0 -100 -42t-40 -100v-61q0 -59 42 -100.5t98 -41.5z" />
    <glyph glyph-name="p" unicode="p" 
d="M116 -230q-16 0 -26.5 11t-10.5 27v648q0 15 11 26t26 11t26 -11t11 -26v-47q55 84 150 84q82 -2 143 -67t61 -154v-51q0 -91 -57.5 -156t-140.5 -65q-92 0 -156 85v-277q0 -16 -10.5 -27t-26.5 -11zM293 76q59 0 99.5 42.5t40.5 102.5v51q0 59 -39.5 102.5t-100.5 43.5
q-59 0 -99.5 -43.5t-40.5 -102.5v-51q0 -60 41 -102.5t99 -42.5z" />
    <glyph glyph-name="q" unicode="q" 
d="M460 -230q-16 0 -26.5 11t-10.5 27v277q-64 -85 -156 -85q-83 0 -140.5 65t-57.5 156v51q0 89 61 154t143 67q95 0 150 -84v47q0 15 11 26t26 11t26 -11t11 -26v-648q0 -16 -10.5 -27t-26.5 -11zM283 76q58 0 99 42.5t41 102.5v51q0 59 -40.5 102.5t-99.5 43.5
q-61 0 -100.5 -43.5t-39.5 -102.5v-51q0 -60 40.5 -102.5t99.5 -42.5z" />
    <glyph glyph-name="r" unicode="r" 
d="M102 0q-14 0 -24.5 10.5t-10.5 24.5t10.5 24.5t24.5 10.5h60v388q0 16 10.5 25.5t23.5 9.5q14 0 24.5 -10t10.5 -25v-49q68 84 144 84q75 0 125 -40q12 -10 14 -23q2 -14 -5.5 -26t-22.5 -14t-27 6q-36 27 -78 27q-64 0 -107 -42t-43 -103v-208h140q14 0 24.5 -10.5
t10.5 -24.5t-10.5 -24.5t-24.5 -10.5h-269z" />
    <glyph glyph-name="s" unicode="s" 
d="M299 0q-26 0 -58 4t-81 24.5t-77 54.5q-21 26 -2 52q27 27 56 0q36 -37 72 -52.5t82 -15.5q54 0 91.5 19t37.5 58q0 17 -8 29t-19 19t-31 11.5t-34 6t-39 3.5q-38 3 -59.5 6t-53 11.5t-48 21.5t-29.5 37.5t-13 57.5q0 70 49 108t134 38q119 0 185 -66q13 -13 12 -26
q-1 -14 -12 -25t-25 -11q-12 0 -26 12q-58 47 -135 47q-108 0 -108 -68q0 -35 30.5 -50t94.5 -20q31 -2 51 -4.5t53.5 -11.5t53.5 -22.5t35.5 -39t15.5 -60.5q0 -71 -55 -109t-140 -39z" />
    <glyph glyph-name="t" unicode="t" 
d="M342 0q-76 0 -128.5 54t-52.5 131v243h-91q-17 0 -26.5 9.5t-9.5 23.5t10 23t26 9h91v139q0 16 10.5 27t26.5 11t26.5 -11t10.5 -27v-139h251q17 0 26.5 -9.5t9.5 -22.5q0 -15 -10 -24t-26 -9h-251v-243q0 -45 31 -77.5t76 -32.5t76 32.5t31 77.5q0 16 11 26.5t26 10.5
t26 -11t11 -26q0 -76 -53 -130.5t-128 -54.5z" />
    <glyph glyph-name="u" unicode="u" 
d="M258 0q-92 0 -140.5 55t-48.5 161v240q0 15 11 26t26 11t26 -11t11 -26v-240q0 -70 34.5 -106t99.5 -36t105 42q41 43 41 100v240q0 15 11 26t26 11t26 -11t11 -26v-419q0 -16 -10.5 -26.5t-26.5 -10.5t-26.5 10.5t-10.5 26.5v56q-31 -49 -70 -71t-95 -22z" />
    <glyph glyph-name="v" unicode="v" 
d="M283 0q-19 0 -32 20l-182 436q0 15 10.5 26t27.5 11q23 0 33 -22l143 -340l143 340q10 22 33 22q17 0 27.5 -11t10.5 -26l-182 -436q-11 -20 -32 -20z" />
    <glyph glyph-name="w" unicode="w" 
d="M149 0q-13 0 -24.5 8t-13.5 21l-70 424q-2 14 6.5 26.5t22.5 13.5q14 2 26.5 -6.5t13.5 -22.5l53 -341l89 187q9 18 31 18t31 -18l89 -187l53 341q1 13 13.5 22t26.5 7q13 -1 22 -13.5t7 -26.5l-70 -424q-1 -14 -11.5 -21.5t-24.5 -7.5q-21 0 -30 19l-106 200l-106 -200
q-10 -19 -28 -19z" />
    <glyph glyph-name="x" unicode="x" 
d="M106 0q-15 0 -26 11t-11 26q0 7 3 13q2 7 6 11l157 186l-157 185q-4 4 -6 12q-3 6 -3 12q0 17 11 26q10 11 26 11q18 0 28 -13l149 -176l149 176q10 13 28 13q16 0 26 -11q11 -9 11 -26q0 -6 -3 -12q-2 -8 -6 -12l-157 -185l157 -186q4 -4 6 -11q3 -6 3 -13
q0 -15 -11 -26t-26 -11q-18 0 -28 13l-149 177l-149 -177q-10 -13 -28 -13z" />
    <glyph glyph-name="y" unicode="y" 
d="M213 -230q-15 0 -26 10.5t-11 26.5q0 7 3 15l84 204l-171 415q-3 8 -3 14q0 16 12.5 27.5t25.5 11.5q24 0 33 -24l143 -348l143 348q9 24 33 24q15 0 26.5 -12t11.5 -27q0 -6 -3 -14l-267 -648q-10 -23 -34 -23z" />
    <glyph glyph-name="z" unicode="z" 
d="M106 0q-15 0 -26 11t-11 25q0 16 9 25l304 358h-276q-15 0 -26 11t-11 26t10.5 26t26.5 11h356q16 0 26.5 -11t10.5 -26q0 -14 -9 -24l-304 -358h304q15 0 26 -11t11 -26t-11 -26t-26 -11h-384z" />
    <glyph glyph-name="braceleft" unicode="{" 
d="M356 -240q-59 0 -101.5 45.5t-42.5 103.5q0 28 19 74t19 72q0 37 -23.5 67.5t-70.5 64.5q-17 10 -17 32q0 23 17 33q99 67 99 138q0 27 -24.5 99.5t-24.5 102.5q0 60 41.5 103.5t101.5 43.5h42q14 0 25 -10.5t11 -28.5q0 -16 -10.5 -27t-25.5 -11h-42q-28 0 -48.5 -21.5
t-20.5 -50.5q0 -26 24 -94t24 -101q0 -51 -22.5 -97.5t-63.5 -78.5q80 -67 80 -170q0 -30 -18 -75.5t-18 -66.5q0 -29 20 -49.5t50 -20.5h35q14 0 25 -10.5t11 -28.5q0 -16 -10.5 -27t-25.5 -11h-35z" />
    <glyph glyph-name="bar" unicode="|" 
d="M283 -235q-15 0 -25 9q-10 10 -10 26v904q0 15 10 25t25 10t25 -10t10 -25v-904q0 -16 -10 -26q-10 -9 -25 -9z" />
    <glyph glyph-name="braceright" unicode="}" 
d="M175 -240q-15 0 -25.5 11t-10.5 27q0 18 11 28.5t25 10.5h35q30 0 50 20.5t20 49.5q0 21 -18 66.5t-18 75.5q0 103 80 170q-41 32 -63.5 78.5t-22.5 97.5q0 33 24 101t24 94q0 29 -20.5 50.5t-48.5 21.5h-42q-15 0 -25.5 11t-10.5 27q0 18 11 28.5t25 10.5h42
q60 0 101.5 -43.5t41.5 -103.5q0 -30 -24.5 -102.5t-24.5 -99.5q0 -71 99 -138q17 -10 17 -33q0 -22 -17 -32q-47 -34 -70.5 -64.5t-23.5 -67.5q0 -26 19 -72t19 -74q0 -58 -42.5 -103.5t-101.5 -45.5h-35z" />
    <glyph glyph-name="asciitilde" unicode="~" 
d="M450 342q9 25 37 25q16 0 27.5 -11.5t11.5 -27.5q0 -6 -3 -14q-33 -85 -123 -88q-46 -2 -111 34t-94 36q-40 0 -62 -43q-11 -21 -35 -21q-16 0 -27.5 11.5t-11.5 27.5q0 9 5 19q46 84 131 84q45 0 86 -18t70 -35.5t46 -16.5q40 2 53 38z" />
    <glyph glyph-name="DEL" 
 />
    <glyph glyph-name="exclamdown" unicode="&#xa1;" 
d="M283 565q-33 0 -58.5 25.5t-25.5 61.5q0 34 24 60.5t60 26.5q33 0 58.5 -25.5t25.5 -61.5q0 -35 -25 -61t-59 -26zM283 0q-16 0 -25.5 10t-9.5 25v416q0 16 10 25.5t25 9.5q16 0 25.5 -10t9.5 -25v-416q0 -16 -10 -25.5t-25 -9.5z" />
    <glyph glyph-name="cent" unicode="&#xa2;" 
d="M293 -145q-15 0 -25 9.5t-10 25.5v113q-79 16 -128 75.5t-49 137.5v61q0 80 51.5 140.5t125.5 72.5v114q0 15 9.5 25t25.5 10q15 0 25 -9.5t10 -25.5v-114q49 -7 89 -36t63 -73q13 -24 -6 -43q-9 -9 -22.5 -11t-19.5 4q-13 7 -31.5 32.5t-32.5 34.5q-21 13 -40 17v-337
q24 7 42 19.5t24 20t26 34.5q9 13 25 14.5t29 -10.5q16 -19 6 -44q-23 -44 -64 -72.5t-88 -36.5v-113q0 -15 -9.5 -25t-25.5 -10zM258 79v336q-46 -14 -75 -52t-29 -86v-61q0 -47 30 -86t74 -51z" />
    <glyph glyph-name="sterling" unicode="&#xa3;" 
d="M65 0q-26 0 -36 27q-9 25 16 43q41 27 68 54q22 21 33 57.5t10.5 75t-4.5 72t-9 59.5t-5 27h-73q-16 0 -26.5 11t-10.5 27t10.5 27.5t26.5 11.5h69q6 98 76.5 172.5t164.5 74.5h126q16 0 26.5 -11.5t10.5 -27.5t-10.5 -27t-26.5 -11h-126q-62 0 -110.5 -51.5
t-54.5 -118.5h165q16 0 27 -11.5t11 -27.5t-11 -27t-27 -11h-161l1 -3q10 -64 13.5 -101.5t2 -84.5t-16 -82.5t-41.5 -66.5h328q16 0 26.5 -11t10.5 -28q0 -18 -11 -28t-26 -10h-436z" />
    <glyph glyph-name="yen" unicode="&#xa5;" 
d="M283 0q-15 0 -25.5 11t-10.5 27v97h-126q-16 0 -25.5 10.5t-9.5 24.5q0 15 9.5 25t25.5 10h126v90h-126q-16 0 -25.5 10.5t-9.5 24.5q0 15 9.5 25t25.5 10h123l-160 318q-5 12 -5 18q0 15 11 26.5t25 11.5q21 0 32 -21l136 -268l136 268q11 21 32 21q14 0 25 -11.5
t11 -26.5q0 -6 -5 -18l-160 -318h123q16 0 25 -11t9 -24q0 -15 -9.5 -25t-24.5 -10h-126v-90h126q16 0 25 -11t9 -24q0 -15 -9.5 -25t-24.5 -10h-126v-97q0 -17 -11 -27.5t-25 -10.5z" />
    <glyph glyph-name="copyright" unicode="&#xa9;" 
d="M283 292q-45 0 -86 18q-39 16 -70 47t-47 70q-18 40 -18 86q0 45 18 86q16 39 47 70t70 47q40 18 86 18q45 0 86 -18q39 -16 70 -47t47 -70q18 -41 18 -86t-18 -86q-16 -39 -47 -70t-70 -47q-41 -18 -86 -18zM283 331q37 0 71 15q31 13 58 38q25 27 38 58q15 33 15 71
q0 37 -15 70q-13 31 -38 58q-26 26 -58 39q-36 14 -71 14q-37 0 -71 -14q-32 -13 -58 -39q-25 -27 -38 -58q-15 -33 -15 -70q0 -38 15 -71q13 -31 38 -58q27 -25 58 -38q33 -15 71 -15zM280 381q-27 0 -50 10q-24 11 -40 27q-17 17 -28 42q-10 21 -10 50t10 50q11 25 28 42
q16 16 40 27q23 10 50 10q24 0 50 -10q27 -11 41 -28q6 -6 6 -14t-6 -14t-14 -6q-5 0 -13 5l-14 11q-11 7 -21 11q-13 5 -29 5q-19 0 -34 -7q-16 -8 -28 -19q-12 -12 -19 -29q-7 -14 -7 -34t7 -34q7 -17 19 -29q12 -11 28 -19q15 -7 34 -7q16 0 29 5q10 4 21 11l14 11
q8 5 13 5q8 0 14 -6t6 -14t-6 -14q-14 -17 -41 -28q-26 -10 -50 -10z" />
    <glyph glyph-name="logicalnot" unicode="&#xac;" 
d="M511 213q-18 0 -29 10q-14 10 -14 31v179h-413q-22 0 -32 13q-11 14 -11 28t11 28q10 13 32 13h456q17 0 30 -12t13 -29v-220q0 -21 -14 -31q-11 -10 -29 -10z" />
    <glyph glyph-name="registered" unicode="&#xae;" 
d="M283 292q-45 0 -86 18q-39 16 -70 47t-47 70q-18 40 -18 86q0 45 18 86q16 39 47 70t70 47q40 18 86 18q45 0 86 -18q39 -16 70 -47t47 -70q18 -41 18 -86t-18 -86q-16 -39 -47 -70t-70 -47q-41 -18 -86 -18zM283 331q37 0 71 15q31 13 58 38q25 27 38 58q15 33 15 71
q0 37 -15 70q-13 31 -38 58q-26 26 -58 39q-36 14 -71 14q-37 0 -71 -14q-32 -13 -58 -39q-25 -27 -38 -58q-15 -33 -15 -70q0 -38 15 -71q13 -31 38 -58q27 -25 58 -38q33 -15 71 -15zM244 386q-6 0 -10 4q-5 5 -5 12v219q0 7 5 11q3 5 10 5h53q29 0 48 -21q19 -22 19 -50
q0 -24 -15 -44q-15 -19 -44 -27q12 -20 17 -30q9 -15 16 -29q3 -4 6.5 -11.5t5.5 -10.5q1 -2 2 -5l1.5 -4.5t0.5 -2.5q0 -4 -4 -12q-8 -4 -11 -4q-9 0 -14 8l-56 101h-9v-93q0 -16 -16 -16zM260 527h37q15 0 26 12q10 11 10 27t-10 26q-11 12 -26 12h-37v-77z" />
    <glyph glyph-name="plusminus" unicode="&#xb1;" 
d="M282 118q-16 0 -27 11t-11 27v169h-167q-16 0 -27 11t-11 27t11 27t27 11h167v169q0 16 11 27t27 11t27 -11t11 -27v-169h167q16 0 27 -11t11 -27t-11 -27t-27 -11h-167v-169q0 -16 -11 -27t-27 -11zM80 0q-16 0 -27 11t-11 27t11 27t27 11h409q16 0 27 -11t11 -27
t-11 -27t-27 -11h-409z" />
    <glyph glyph-name="paragraph" unicode="&#xb6;" 
d="M326 0q-12 0 -20 8q-9 9 -9 21v233q-43 4 -83 26q-39 20 -66 52q-26 27 -45 72q-16 41 -16 87q0 51 19 93q20 45 51 76q29 31 75 52q44 19 94 19h124q12 0 20 -9q9 -9 9 -21v-680q0 -12 -9 -21q-8 -8 -20 -8q-11 0 -21 8q-9 9 -9 21v651h-64v-651q0 -12 -9 -21
q-10 -8 -21 -8z" />
    <glyph glyph-name="cedilla" unicode="&#xb8;" 
d="M231 -186q-39 0 -39 29q0 28 27 28l35 -1q78 0 78 33q0 39 -69 41q-18 0 -9 18l52 104l60 2l-49 -92q71 -9 71 -67q0 -95 -138 -95h-19z" />
    <glyph glyph-name="questiondown" unicode="&#xbf;" 
d="M283 581q-31 0 -53.5 23.5t-22.5 55.5q0 35 21 57t54 22q32 0 54 -24t22 -55q0 -34 -22 -56.5t-53 -22.5zM286 0q-91 0 -152.5 56t-61.5 144q0 83 42 123.5t135 44.5v96q0 20 10 30t24 10q16 0 28 -11t12 -29v-130q0 -38 -47 -38q-72 0 -101 -22.5t-29 -73.5
q0 -58 40.5 -91t99.5 -33q51 0 95.5 39t44.5 83q0 26 12 40t28 14q13 0 23.5 -9t10.5 -23q0 -91 -63 -155.5t-151 -64.5z" />
    <glyph glyph-name="Agrave" unicode="&#xc0;" 
d="M283 798q-16 0 -27 11l-89 95q-10 10 -10 23q0 15 11.5 26.5t25.5 11.5q15 0 25 -13l89 -95q10 -9 10 -22q0 -15 -10.5 -26t-24.5 -11zM38 0q-15 0 -26 10.5t-11 27.5l248 678q9 23 34 23q26 0 34 -23l248 -678q0 -18 -11 -28t-26 -10q-24 0 -34 24l-62 167h-298
l-62 -167q-11 -24 -34 -24zM162 266h242l-121 328z" />
    <glyph glyph-name="Aacute" unicode="&#xc1;" 
d="M281 798q-14 0 -24.5 11t-10.5 26q0 13 10 22l89 95q10 13 25 13q14 0 25.5 -11.5t11.5 -26.5q0 -13 -10 -23l-89 -95q-11 -11 -27 -11zM38 0q-15 0 -26 10.5t-11 27.5l248 678q9 23 34 23q26 0 34 -23l248 -678q0 -18 -11 -28t-26 -10q-24 0 -34 24l-62 167h-298
l-62 -167q-11 -24 -34 -24zM162 266h242l-121 328z" />
    <glyph glyph-name="Acircumflex" unicode="&#xc2;" 
d="M175 790q-13 0 -22 9t-9 22q0 12 13 25l101 101q12 11 25 11q12 0 24 -11l102 -101q13 -13 13 -25q0 -14 -9.5 -22.5t-21.5 -8.5t-21 9l-87 87l-87 -87q-9 -9 -21 -9zM38 0q-15 0 -26 10.5t-11 27.5l248 678q9 23 34 23q26 0 34 -23l248 -678q0 -18 -11 -28t-26 -10
q-24 0 -34 24l-62 167h-298l-62 -167q-11 -24 -34 -24zM162 266h242l-121 328z" />
    <glyph glyph-name="Atilde" unicode="&#xc3;" 
d="M384 872q8 15 26 15q12 0 21 -8.5t9 -21.5q0 -8 -5 -15q-29 -50 -79 -50q-30 0 -74.5 25t-51.5 25q-33 0 -49 -28q-8 -15 -26 -15q-12 0 -21 8.5t-9 21.5q0 7 4 15q34 58 101 58q23 0 67 -25t59 -25t28 20zM38 0q-15 0 -26 10.5t-11 27.5l248 678q9 23 34 23q26 0 34 -23
l248 -678q0 -18 -11 -28t-26 -10q-24 0 -34 24l-62 167h-298l-62 -167q-11 -24 -34 -24zM162 266h242l-121 328z" />
    <glyph glyph-name="Adieresis" unicode="&#xc4;" 
d="M184 800q-26 0 -43 19t-17 43q0 26 17.5 44.5t42.5 18.5q27 0 44 -19t17 -44q0 -26 -18 -44t-43 -18zM382 800q-25 0 -43 18t-18 44t17.5 44.5t43.5 18.5q27 0 43.5 -19t16.5 -44t-17.5 -43.5t-42.5 -18.5zM38 0q-15 0 -26 10.5t-11 27.5l248 678q9 23 34 23q26 0 34 -23
l248 -678q0 -18 -11 -28t-26 -10q-24 0 -34 24l-62 167h-298l-62 -167q-11 -24 -34 -24zM162 266h242l-121 328z" />
    <glyph glyph-name="Aring" unicode="&#xc5;" 
d="M322 702l243 -664q0 -18 -11 -28t-26 -10q-24 0 -34 24l-62 167h-298l-62 -167q-11 -24 -34 -24q-15 0 -26 10.5t-11 27.5l243 665q-24 11 -39 33.5t-15 50.5q0 38 27 65.5t66 27.5q38 0 65.5 -27t27.5 -66q0 -27 -15 -50.5t-39 -34.5zM283 834q-20 0 -33.5 -13.5
t-13.5 -33.5t13.5 -33.5t33.5 -13.5t33.5 13.5t13.5 33.5t-13.5 33.5t-33.5 13.5zM162 266h242l-121 328z" />
    <glyph glyph-name="AE" unicode="&#xc6;" 
d="M53 0q-37 0 -37 38l236 647q15 54 46 54h203q15 0 25 -11t10 -28q0 -16 -11 -26.5t-24 -10.5h-167v-256h123q14 0 25 -11t11 -26q0 -17 -11 -27.5t-25 -10.5h-123v-257h167q14 0 24.5 -11t10.5 -26q0 -17 -10.5 -27.5t-24.5 -10.5h-203q-14 0 -24.5 11t-10.5 27v153h-114
l-62 -167q-9 -24 -34 -24zM177 266h86v286z" />
    <glyph glyph-name="Ccedilla" unicode="&#xc7;" 
d="M466 255q15 0 25.5 -10.5t10.5 -26.5q0 -82 -53 -144t-130 -72l-45 -85q37 0 54 -19.5t17 -50.5q0 -93 -138 -93h-31q-28 0 -28 28t28 28h35q78 0 78 37q0 16 -13 24.5t-25 10t-31 2.5q-12 0 -12 8q0 4 3 10l50 100q-76 13 -126.5 74.5t-50.5 141.5v303q0 89 61 153.5
t148 64.5t148 -64.5t61 -153.5q0 -17 -11 -27.5t-25 -10.5q-15 0 -25.5 11t-10.5 27q0 58 -40 100t-97 42q-58 0 -97.5 -42.5t-39.5 -99.5v-303q0 -58 40 -100.5t97 -42.5q59 0 98 42.5t39 100.5q0 17 11 27t25 10z" />
    <glyph glyph-name="Egrave" unicode="&#xc8;" 
d="M283 798q-16 0 -27 11l-89 95q-10 10 -10 23q0 15 11.5 26.5t25.5 11.5q15 0 25 -13l89 -95q10 -9 10 -22q0 -15 -10.5 -26t-24.5 -11zM115 0q-14 0 -24.5 11t-10.5 27v663q0 15 10 26.5t25 11.5h366q14 0 24.5 -11.5t10.5 -27.5t-10.5 -26.5t-24.5 -10.5h-330v-256h256
q15 0 25.5 -11t10.5 -27t-11 -26.5t-25 -10.5h-256v-257h330q14 0 24.5 -11t10.5 -27t-11 -26.5t-24 -10.5h-366z" />
    <glyph glyph-name="Eacute" unicode="&#xc9;" 
d="M281 798q-14 0 -24.5 11t-10.5 26q0 13 10 22l89 95q10 13 25 13q14 0 25.5 -11.5t11.5 -26.5q0 -13 -10 -23l-89 -95q-11 -11 -27 -11zM115 0q-14 0 -24.5 11t-10.5 27v663q0 15 10 26.5t25 11.5h366q14 0 24.5 -11.5t10.5 -27.5t-10.5 -26.5t-24.5 -10.5h-330v-256h256
q15 0 25.5 -11t10.5 -27t-11 -26.5t-25 -10.5h-256v-257h330q14 0 24.5 -11t10.5 -27t-11 -26.5t-24 -10.5h-366z" />
    <glyph glyph-name="Ecircumflex" unicode="&#xca;" 
d="M175 790q-13 0 -22 9t-9 22q0 12 13 25l101 101q12 11 25 11q12 0 24 -11l102 -101q13 -13 13 -25q0 -14 -9.5 -22.5t-21.5 -8.5t-21 9l-87 87l-87 -87q-9 -9 -21 -9zM115 0q-14 0 -24.5 11t-10.5 27v663q0 15 10 26.5t25 11.5h366q14 0 24.5 -11.5t10.5 -27.5
t-10.5 -26.5t-24.5 -10.5h-330v-256h256q15 0 25.5 -11t10.5 -27t-11 -26.5t-25 -10.5h-256v-257h330q14 0 24.5 -11t10.5 -27t-11 -26.5t-24 -10.5h-366z" />
    <glyph glyph-name="Edieresis" unicode="&#xcb;" 
d="M184 800q-26 0 -43 19t-17 43q0 26 17.5 44.5t42.5 18.5q27 0 44 -19t17 -44q0 -26 -18 -44t-43 -18zM382 800q-25 0 -43 18t-18 44t17.5 44.5t43.5 18.5q27 0 43.5 -19t16.5 -44t-17.5 -43.5t-42.5 -18.5zM115 0q-14 0 -24.5 11t-10.5 27v663q0 15 10 26.5t25 11.5h366
q14 0 24.5 -11.5t10.5 -27.5t-10.5 -26.5t-24.5 -10.5h-330v-256h256q15 0 25.5 -11t10.5 -27t-11 -26.5t-25 -10.5h-256v-257h330q14 0 24.5 -11t10.5 -27t-11 -26.5t-24 -10.5h-366z" />
    <glyph glyph-name="Igrave" unicode="&#xcc;" 
d="M283 798q-16 0 -27 11l-89 95q-10 10 -10 23q0 15 11.5 26.5t25.5 11.5q15 0 25 -13l89 -95q10 -9 10 -22q0 -15 -10.5 -26t-24.5 -11zM126 0q-15 0 -25.5 11t-10.5 27q0 17 11 27t25 10h121v589h-121q-15 0 -25.5 11t-10.5 27q0 17 11 27t25 10h314q15 0 25.5 -10.5
t10.5 -26.5q0 -17 -11 -27.5t-25 -10.5h-121v-589h121q15 0 25.5 -10.5t10.5 -26.5t-10 -27t-26 -11h-314z" />
    <glyph glyph-name="Iacute" unicode="&#xcd;" 
d="M281 798q-14 0 -24.5 11t-10.5 26q0 13 10 22l89 95q10 13 25 13q14 0 25.5 -11.5t11.5 -26.5q0 -13 -10 -23l-89 -95q-11 -11 -27 -11zM126 0q-15 0 -25.5 11t-10.5 27q0 17 11 27t25 10h121v589h-121q-15 0 -25.5 11t-10.5 27q0 17 11 27t25 10h314q15 0 25.5 -10.5
t10.5 -26.5q0 -17 -11 -27.5t-25 -10.5h-121v-589h121q15 0 25.5 -10.5t10.5 -26.5t-10 -27t-26 -11h-314z" />
    <glyph glyph-name="Icircumflex" unicode="&#xce;" 
d="M175 790q-13 0 -22 9t-9 22q0 12 13 25l101 101q12 11 25 11q12 0 24 -11l102 -101q13 -13 13 -25q0 -14 -9.5 -22.5t-21.5 -8.5t-21 9l-87 87l-87 -87q-9 -9 -21 -9zM126 0q-15 0 -25.5 11t-10.5 27q0 17 11 27t25 10h121v589h-121q-15 0 -25.5 11t-10.5 27q0 17 11 27
t25 10h314q15 0 25.5 -10.5t10.5 -26.5q0 -17 -11 -27.5t-25 -10.5h-121v-589h121q15 0 25.5 -10.5t10.5 -26.5t-10 -27t-26 -11h-314z" />
    <glyph glyph-name="Idieresis" unicode="&#xcf;" 
d="M184 800q-26 0 -43 19t-17 43q0 26 17.5 44.5t42.5 18.5q27 0 44 -19t17 -44q0 -26 -18 -44t-43 -18zM382 800q-25 0 -43 18t-18 44t17.5 44.5t43.5 18.5q27 0 43.5 -19t16.5 -44t-17.5 -43.5t-42.5 -18.5zM126 0q-15 0 -25.5 11t-10.5 27q0 17 11 27t25 10h121v589h-121
q-15 0 -25.5 11t-10.5 27q0 17 11 27t25 10h314q15 0 25.5 -10.5t10.5 -26.5q0 -17 -11 -27.5t-25 -10.5h-121v-589h121q15 0 25.5 -10.5t10.5 -26.5t-10 -27t-26 -11h-314z" />
    <glyph glyph-name="Eth" unicode="&#xd0;" 
d="M295 739q87 0 148 -64.5t61 -153.5v-303q0 -89 -61 -153.5t-148 -64.5h-173q-15 0 -25.5 11t-10.5 27v301h-49q-12 0 -21 9.5t-9 21.5t9 21t21 9h49v301q0 17 11 27.5t25 10.5h173zM432 218v303q0 59 -41 101t-96 42h-137v-264h125q12 0 20.5 -9t10.5 -22
q-1 -12 -10 -20.5t-21 -8.5l-125 -1v-264h137q56 0 96.5 43t40.5 100z" />
    <glyph glyph-name="Ntilde" unicode="&#xd1;" 
d="M384 872q8 15 26 15q12 0 21 -8.5t9 -21.5q0 -8 -5 -15q-29 -50 -79 -50q-30 0 -74.5 25t-51.5 25q-33 0 -49 -28q-8 -15 -26 -15q-12 0 -21 8.5t-9 21.5q0 7 4 15q34 58 101 58q23 0 67 -25t59 -25t28 20zM101 0q-15 0 -25.5 11t-10.5 27v664q0 16 11 26.5t25 10.5
q21 0 31 -19l297 -540v522q0 16 11 26.5t25 10.5t25 -11t11 -26v-664q0 -17 -11 -27.5t-25 -10.5q-22 0 -31 19l-297 540v-521q0 -17 -11 -27.5t-25 -10.5z" />
    <glyph glyph-name="Ograve" unicode="&#xd2;" 
d="M283 798q-16 0 -27 11l-89 95q-10 10 -10 23q0 15 11.5 26.5t25.5 11.5q15 0 25 -13l89 -95q10 -9 10 -22q0 -15 -10.5 -26t-24.5 -11zM283 -3q-88 0 -149 64t-61 154v306q0 91 61.5 154.5t148.5 63.5t148.5 -64t61.5 -154v-306q0 -90 -61.5 -154t-148.5 -64zM283 72
q58 0 97.5 43.5t39.5 99.5v306q0 58 -40 100t-97 42q-58 0 -97.5 -42.5t-39.5 -99.5v-306q0 -59 41 -101t96 -42z" />
    <glyph glyph-name="Oacute" unicode="&#xd3;" 
d="M281 798q-14 0 -24.5 11t-10.5 26q0 13 10 22l89 95q10 13 25 13q14 0 25.5 -11.5t11.5 -26.5q0 -13 -10 -23l-89 -95q-11 -11 -27 -11zM283 -3q-88 0 -149 64t-61 154v306q0 91 61.5 154.5t148.5 63.5t148.5 -64t61.5 -154v-306q0 -90 -61.5 -154t-148.5 -64zM283 72
q58 0 97.5 43.5t39.5 99.5v306q0 58 -40 100t-97 42q-58 0 -97.5 -42.5t-39.5 -99.5v-306q0 -59 41 -101t96 -42z" />
    <glyph glyph-name="Ocircumflex" unicode="&#xd4;" 
d="M175 790q-13 0 -22 9t-9 22q0 12 13 25l101 101q12 11 25 11q12 0 24 -11l102 -101q13 -13 13 -25q0 -14 -9.5 -22.5t-21.5 -8.5t-21 9l-87 87l-87 -87q-9 -9 -21 -9zM283 -3q-88 0 -149 64t-61 154v306q0 91 61.5 154.5t148.5 63.5t148.5 -64t61.5 -154v-306
q0 -90 -61.5 -154t-148.5 -64zM283 72q58 0 97.5 43.5t39.5 99.5v306q0 58 -40 100t-97 42q-58 0 -97.5 -42.5t-39.5 -99.5v-306q0 -59 41 -101t96 -42z" />
    <glyph glyph-name="Otilde" unicode="&#xd5;" 
d="M384 872q8 15 26 15q12 0 21 -8.5t9 -21.5q0 -8 -5 -15q-29 -50 -79 -50q-30 0 -74.5 25t-51.5 25q-33 0 -49 -28q-8 -15 -26 -15q-12 0 -21 8.5t-9 21.5q0 7 4 15q34 58 101 58q23 0 67 -25t59 -25t28 20zM283 -3q-88 0 -149 64t-61 154v306q0 91 61.5 154.5t148.5 63.5
t148.5 -64t61.5 -154v-306q0 -90 -61.5 -154t-148.5 -64zM283 72q58 0 97.5 43.5t39.5 99.5v306q0 58 -40 100t-97 42q-58 0 -97.5 -42.5t-39.5 -99.5v-306q0 -59 41 -101t96 -42z" />
    <glyph glyph-name="Odieresis" unicode="&#xd6;" 
d="M184 800q-26 0 -43 19t-17 43q0 26 17.5 44.5t42.5 18.5q27 0 44 -19t17 -44q0 -26 -18 -44t-43 -18zM382 800q-25 0 -43 18t-18 44t17.5 44.5t43.5 18.5q27 0 43.5 -19t16.5 -44t-17.5 -43.5t-42.5 -18.5zM283 -3q-88 0 -149 64t-61 154v306q0 91 61.5 154.5t148.5 63.5
t148.5 -64t61.5 -154v-306q0 -90 -61.5 -154t-148.5 -64zM283 72q58 0 97.5 43.5t39.5 99.5v306q0 58 -40 100t-97 42q-58 0 -97.5 -42.5t-39.5 -99.5v-306q0 -59 41 -101t96 -42z" />
    <glyph glyph-name="multiply" unicode="&#xd7;" 
d="M89 55q-12 11 -12 25.5t12 25.5l143 143l-143 144q-26 25 0 51q25 26 51 0l143 -143l143 143q25 25 51 -1q26 -25 1 -50l-143 -143l143 -144q24 -24 -1 -50q-11 -12 -25.5 -12t-25.5 11l-143 143l-143 -143q-26 -25 -51 0z" />
    <glyph glyph-name="Oslash" unicode="&#xd8;" 
d="M466 627q27 -49 27 -106v-306q0 -90 -61.5 -154t-148.5 -64q-85 0 -145 60l-8 -13q-6 -11 -18.5 -14t-22.5 3t-13.5 18.5t2.5 22.5l21 36q-26 47 -26 105v306q0 91 61.5 154.5t148.5 63.5q83 0 144 -59l9 15q15 25 42 11q11 -6 14 -18t-4 -23zM146 215q0 -4 0.5 -10.5
t0.5 -9.5l241 417q-41 51 -105 51q-58 0 -97.5 -42.5t-39.5 -99.5v-306zM420 215v306q0 7 -2 23l-241 -418q43 -54 106 -54q58 0 97.5 43.5t39.5 99.5z" />
    <glyph glyph-name="Ugrave" unicode="&#xd9;" 
d="M283 798q-16 0 -27 11l-89 95q-10 10 -10 23q0 15 11.5 26.5t25.5 11.5q15 0 25 -13l89 -95q10 -9 10 -22q0 -15 -10.5 -26t-24.5 -11zM283 0q-89 0 -149.5 65t-60.5 154v482q0 15 10.5 26.5t25.5 11.5t25.5 -11.5t10.5 -26.5v-482q0 -59 40 -101.5t98 -42.5t98 43.5
t40 100.5v482q0 15 10.5 26.5t25.5 11.5t25.5 -11.5t10.5 -26.5v-482q0 -92 -61.5 -155.5t-148.5 -63.5z" />
    <glyph glyph-name="Uacute" unicode="&#xda;" 
d="M281 798q-14 0 -24.5 11t-10.5 26q0 13 10 22l89 95q10 13 25 13q14 0 25.5 -11.5t11.5 -26.5q0 -13 -10 -23l-89 -95q-11 -11 -27 -11zM283 0q-89 0 -149.5 65t-60.5 154v482q0 15 10.5 26.5t25.5 11.5t25.5 -11.5t10.5 -26.5v-482q0 -59 40 -101.5t98 -42.5t98 43.5
t40 100.5v482q0 15 10.5 26.5t25.5 11.5t25.5 -11.5t10.5 -26.5v-482q0 -92 -61.5 -155.5t-148.5 -63.5z" />
    <glyph glyph-name="Ucircumflex" unicode="&#xdb;" 
d="M175 790q-13 0 -22 9t-9 22q0 12 13 25l101 101q12 11 25 11q12 0 24 -11l102 -101q13 -13 13 -25q0 -14 -9.5 -22.5t-21.5 -8.5t-21 9l-87 87l-87 -87q-9 -9 -21 -9zM283 0q-89 0 -149.5 65t-60.5 154v482q0 15 10.5 26.5t25.5 11.5t25.5 -11.5t10.5 -26.5v-482
q0 -59 40 -101.5t98 -42.5t98 43.5t40 100.5v482q0 15 10.5 26.5t25.5 11.5t25.5 -11.5t10.5 -26.5v-482q0 -92 -61.5 -155.5t-148.5 -63.5z" />
    <glyph glyph-name="Udieresis" unicode="&#xdc;" 
d="M184 800q-26 0 -43 19t-17 43q0 26 17.5 44.5t42.5 18.5q27 0 44 -19t17 -44q0 -26 -18 -44t-43 -18zM382 800q-25 0 -43 18t-18 44t17.5 44.5t43.5 18.5q27 0 43.5 -19t16.5 -44t-17.5 -43.5t-42.5 -18.5zM283 0q-89 0 -149.5 65t-60.5 154v482q0 15 10.5 26.5
t25.5 11.5t25.5 -11.5t10.5 -26.5v-482q0 -59 40 -101.5t98 -42.5t98 43.5t40 100.5v482q0 15 10.5 26.5t25.5 11.5t25.5 -11.5t10.5 -26.5v-482q0 -92 -61.5 -155.5t-148.5 -63.5z" />
    <glyph glyph-name="Yacute" unicode="&#xdd;" 
d="M281 798q-14 0 -24.5 11t-10.5 26q0 13 10 22l89 95q10 13 25 13q14 0 25.5 -11.5t11.5 -26.5q0 -13 -10 -23l-89 -95q-11 -11 -27 -11zM283 0q-15 0 -25.5 11t-10.5 27v322l-163 323q-5 12 -5 18q0 15 11 26.5t25 11.5q21 0 32 -21l136 -268l136 268q11 21 32 21
q14 0 25 -11.5t11 -26.5q0 -6 -5 -18l-163 -323v-322q0 -17 -11 -27.5t-25 -10.5z" />
    <glyph glyph-name="Thorn" unicode="&#xde;" 
d="M122 0q-15 0 -25.5 11.5t-10.5 26.5v663q0 15 10.5 26.5t25.5 11.5q16 0 26.5 -11t10.5 -27v-81h123q90 0 154 -67t64 -160t-64 -160t-154 -67h-123v-128q0 -16 -10.5 -27t-26.5 -11zM159 242h127q57 2 98.5 44.5t42.5 102.5v4v4q-1 61 -44 104t-101 43h-123v-302z" />
    <glyph glyph-name="germandbls" unicode="&#xdf;" 
d="M114 0q-16 0 -26.5 11t-10.5 27v525q0 78 46 127t120 49q76 0 126.5 -51t50.5 -128q0 -35 -14 -62t-51 -64q64 -25 99 -76.5t35 -121.5q0 -103 -68.5 -169.5t-155.5 -66.5q-54 0 -54 37q0 38 47 40q72 5 114 46.5t42 112.5q0 33 -10.5 58.5t-24.5 40t-39.5 26t-43 16.5
t-47.5 11q-19 4 -28.5 12t-9.5 25q0 34 40 39q94 16 94 98q0 46 -28.5 73t-69.5 27t-68 -28t-27 -71v-525q0 -16 -11 -27t-27 -11z" />
    <glyph glyph-name="agrave" unicode="&#xe0;" 
d="M288 552q-16 0 -27 11l-89 95q-10 10 -10 23q0 15 11.5 26.5t25.5 11.5q15 0 25 -13l89 -95q10 -9 10 -22q0 -15 -10.5 -26t-24.5 -11zM228 0q-77 0 -120.5 40t-43.5 104q0 65 45 105t118 41q152 1 171 12q15 14 15 32q0 35 -36.5 62t-90.5 27q-41 0 -75.5 -18t-52.5 -52
q-10 -21 -31 -21q-36 0 -36 35q0 47 66 86.5t135 39.5q72 0 131 -45.5t59 -113.5v-299q0 -16 -10.5 -25.5t-24.5 -9.5t-24 10t-10 25v46q-32 -42 -82.5 -61.5t-102.5 -19.5zM242 71q76 0 123.5 35t47.5 100v47q-24 -13 -57 -16t-118 -5q-102 -2 -102 -83q0 -78 106 -78z" />
    <glyph glyph-name="aacute" unicode="&#xe1;" 
d="M286 552q-14 0 -24.5 11t-10.5 26q0 13 10 22l89 95q10 13 25 13q14 0 25.5 -11.5t11.5 -26.5q0 -13 -10 -23l-89 -95q-11 -11 -27 -11zM228 0q-77 0 -120.5 40t-43.5 104q0 65 45 105t118 41q152 1 171 12q15 14 15 32q0 35 -36.5 62t-90.5 27q-41 0 -75.5 -18
t-52.5 -52q-10 -21 -31 -21q-36 0 -36 35q0 47 66 86.5t135 39.5q72 0 131 -45.5t59 -113.5v-299q0 -16 -10.5 -25.5t-24.5 -9.5t-24 10t-10 25v46q-32 -42 -82.5 -61.5t-102.5 -19.5zM242 71q76 0 123.5 35t47.5 100v47q-24 -13 -57 -16t-118 -5q-102 -2 -102 -83
q0 -78 106 -78z" />
    <glyph glyph-name="acircumflex" unicode="&#xe2;" 
d="M180 544q-13 0 -22 9t-9 22q0 12 13 25l101 101q12 11 25 11q12 0 24 -11l102 -101q13 -13 13 -25q0 -14 -9.5 -22.5t-21.5 -8.5t-21 9l-87 87l-87 -87q-9 -9 -21 -9zM228 0q-77 0 -120.5 40t-43.5 104q0 65 45 105t118 41q152 1 171 12q15 14 15 32q0 35 -36.5 62
t-90.5 27q-41 0 -75.5 -18t-52.5 -52q-10 -21 -31 -21q-36 0 -36 35q0 47 66 86.5t135 39.5q72 0 131 -45.5t59 -113.5v-299q0 -16 -10.5 -25.5t-24.5 -9.5t-24 10t-10 25v46q-32 -42 -82.5 -61.5t-102.5 -19.5zM242 71q76 0 123.5 35t47.5 100v47q-24 -13 -57 -16t-118 -5
q-102 -2 -102 -83q0 -78 106 -78z" />
    <glyph glyph-name="atilde" unicode="&#xe3;" 
d="M389 626q8 15 26 15q12 0 21 -8.5t9 -21.5q0 -8 -5 -15q-29 -50 -79 -50q-30 0 -74.5 25t-51.5 25q-33 0 -49 -28q-8 -15 -26 -15q-12 0 -21 8.5t-9 21.5q0 7 4 15q34 58 101 58q23 0 67 -25t59 -25t28 20zM228 0q-77 0 -120.5 40t-43.5 104q0 65 45 105t118 41
q152 1 171 12q15 14 15 32q0 35 -36.5 62t-90.5 27q-41 0 -75.5 -18t-52.5 -52q-10 -21 -31 -21q-36 0 -36 35q0 47 66 86.5t135 39.5q72 0 131 -45.5t59 -113.5v-299q0 -16 -10.5 -25.5t-24.5 -9.5t-24 10t-10 25v46q-32 -42 -82.5 -61.5t-102.5 -19.5zM242 71
q76 0 123.5 35t47.5 100v47q-24 -13 -57 -16t-118 -5q-102 -2 -102 -83q0 -78 106 -78z" />
    <glyph glyph-name="adieresis" unicode="&#xe4;" 
d="M189 554q-26 0 -43 19t-17 43q0 26 17.5 44.5t42.5 18.5q27 0 44 -19t17 -44q0 -26 -18 -44t-43 -18zM387 554q-25 0 -43 18t-18 44t17.5 44.5t43.5 18.5q27 0 43.5 -19t16.5 -44t-17.5 -43.5t-42.5 -18.5zM228 0q-77 0 -120.5 40t-43.5 104q0 65 45 105t118 41
q152 1 171 12q15 14 15 32q0 35 -36.5 62t-90.5 27q-41 0 -75.5 -18t-52.5 -52q-10 -21 -31 -21q-36 0 -36 35q0 47 66 86.5t135 39.5q72 0 131 -45.5t59 -113.5v-299q0 -16 -10.5 -25.5t-24.5 -9.5t-24 10t-10 25v46q-32 -42 -82.5 -61.5t-102.5 -19.5zM242 71
q76 0 123.5 35t47.5 100v47q-24 -13 -57 -16t-118 -5q-102 -2 -102 -83q0 -78 106 -78z" />
    <glyph glyph-name="aring" unicode="&#xe5;" 
d="M288 554q-38 0 -65.5 27t-27.5 66q0 38 27 65.5t66 27.5q38 0 65.5 -27t27.5 -66q0 -38 -27 -65.5t-66 -27.5zM288 600q20 0 33.5 13.5t13.5 33.5t-13.5 33.5t-33.5 13.5t-33.5 -13.5t-13.5 -33.5t13.5 -33.5t33.5 -13.5zM228 0q-77 0 -120.5 40t-43.5 104q0 65 45 105
t118 41q152 1 171 12q15 14 15 32q0 35 -36.5 62t-90.5 27q-41 0 -75.5 -18t-52.5 -52q-10 -21 -31 -21q-36 0 -36 35q0 47 66 86.5t135 39.5q72 0 131 -45.5t59 -113.5v-299q0 -16 -10.5 -25.5t-24.5 -9.5t-24 10t-10 25v46q-32 -42 -82.5 -61.5t-102.5 -19.5zM242 71
q76 0 123.5 35t47.5 100v47q-24 -13 -57 -16t-118 -5q-102 -2 -102 -83q0 -78 106 -78z" />
    <glyph glyph-name="ae" unicode="&#xe6;" 
d="M181 0q-55 0 -96 40t-41 97v35q0 59 40.5 98.5t96.5 39.5h67v74q0 16 -18 27.5t-41 11.5q-20 0 -36.5 -8.5t-21.5 -21.5q-5 -15 -18 -19q-8 -2 -13 -2q-25 0 -34 20q-2 10 -2 14q0 5 2 13q14 36 48.5 55t74.5 19q60 0 100 -40q37 40 96 40q56 0 96.5 -40t40.5 -97v-81
q0 -15 -9.5 -25t-25.5 -10h-169v-103q0 -28 19.5 -47.5t47.5 -19.5q39 0 59 35q7 12 21 17q6 2 10 2q23 0 33 -26q2 -8 2 -11q0 -30 -42 -58.5t-83 -28.5q-59 0 -102 46q-43 -46 -102 -46zM318 310h134v46q0 28 -19 47.5t-48 19.5q-28 0 -47.5 -19.5t-19.5 -47.5v-46z
M181 70q28 0 47.5 19.5t19.5 47.5v103h-67q-28 0 -47.5 -20t-19.5 -48v-35q0 -28 19.5 -47.5t47.5 -19.5z" />
    <glyph glyph-name="ccedilla" unicode="&#xe7;" 
d="M469 167q14 0 25 -11.5t11 -25.5q0 -10 -5 -18q-24 -45 -67.5 -74.5t-93.5 -35.5l-45 -85q37 0 54 -19.5t17 -50.5q0 -93 -138 -93h-31q-28 0 -28 28t28 28h35q78 0 78 37q0 16 -13 24.5t-25 10t-31 2.5q-12 0 -12 8q0 4 3 10l50 101q-76 12 -128 73.5t-52 139.5v61
q0 90 63.5 153t149.5 63q58 0 108.5 -30.5t77.5 -81.5q5 -10 5 -18q0 -14 -11 -25t-26 -11q-11 0 -18.5 5t-18 20.5t-11.5 16.5q-40 50 -106 50q-58 0 -99 -42t-41 -100v-61q0 -59 41 -100.5t99 -41.5q73 0 116 64q13 29 39 29z" />
    <glyph glyph-name="egrave" unicode="&#xe8;" 
d="M296 552q-16 0 -27 11l-89 95q-10 10 -10 23q0 15 11.5 26.5t25.5 11.5q15 0 25 -13l89 -95q10 -9 10 -22q0 -15 -10.5 -26t-24.5 -11zM292 0q-87 0 -150 64t-63 152v61q0 89 63 152.5t154 63.5q95 0 153 -68.5t58 -169.5q0 -21 -10.5 -31.5t-26.5 -10.5h-317
q0 -59 42.5 -99t101.5 -40q42 0 67.5 19t51.5 55q13 19 31 19q14 0 26 -10t12 -23q0 -10 -5 -22q-17 -43 -71.5 -77.5t-116.5 -34.5zM153 287h278q-9 64 -45.5 98t-90.5 34q-59 0 -99 -38.5t-43 -93.5z" />
    <glyph glyph-name="eacute" unicode="&#xe9;" 
d="M294 552q-14 0 -24.5 11t-10.5 26q0 13 10 22l89 95q10 13 25 13q14 0 25.5 -11.5t11.5 -26.5q0 -13 -10 -23l-89 -95q-11 -11 -27 -11zM292 0q-87 0 -150 64t-63 152v61q0 89 63 152.5t154 63.5q95 0 153 -68.5t58 -169.5q0 -21 -10.5 -31.5t-26.5 -10.5h-317
q0 -59 42.5 -99t101.5 -40q42 0 67.5 19t51.5 55q13 19 31 19q14 0 26 -10t12 -23q0 -10 -5 -22q-17 -43 -71.5 -77.5t-116.5 -34.5zM153 287h278q-9 64 -45.5 98t-90.5 34q-59 0 -99 -38.5t-43 -93.5z" />
    <glyph glyph-name="ecircumflex" unicode="&#xea;" 
d="M188 544q-13 0 -22 9t-9 22q0 12 13 25l101 101q12 11 25 11q12 0 24 -11l102 -101q13 -13 13 -25q0 -14 -9.5 -22.5t-21.5 -8.5t-21 9l-87 87l-87 -87q-9 -9 -21 -9zM292 0q-87 0 -150 64t-63 152v61q0 89 63 152.5t154 63.5q95 0 153 -68.5t58 -169.5
q0 -21 -10.5 -31.5t-26.5 -10.5h-317q0 -59 42.5 -99t101.5 -40q42 0 67.5 19t51.5 55q13 19 31 19q14 0 26 -10t12 -23q0 -10 -5 -22q-17 -43 -71.5 -77.5t-116.5 -34.5zM153 287h278q-9 64 -45.5 98t-90.5 34q-59 0 -99 -38.5t-43 -93.5z" />
    <glyph glyph-name="edieresis" unicode="&#xeb;" 
d="M197 554q-26 0 -43 19t-17 43q0 26 17.5 44.5t42.5 18.5q27 0 44 -19t17 -44q0 -26 -18 -44t-43 -18zM395 554q-25 0 -43 18t-18 44t17.5 44.5t43.5 18.5q27 0 43.5 -19t16.5 -44t-17.5 -43.5t-42.5 -18.5zM292 0q-87 0 -150 64t-63 152v61q0 89 63 152.5t154 63.5
q95 0 153 -68.5t58 -169.5q0 -21 -10.5 -31.5t-26.5 -10.5h-317q0 -59 42.5 -99t101.5 -40q42 0 67.5 19t51.5 55q13 19 31 19q14 0 26 -10t12 -23q0 -10 -5 -22q-17 -43 -71.5 -77.5t-116.5 -34.5zM153 287h278q-9 64 -45.5 98t-90.5 34q-59 0 -99 -38.5t-43 -93.5z" />
    <glyph glyph-name="igrave" unicode="&#xec;" 
d="M303 552q-16 0 -27 11l-89 95q-10 10 -10 23q0 15 11.5 26.5t25.5 11.5q15 0 25 -13l89 -95q10 -9 10 -22q0 -15 -10.5 -26t-24.5 -11zM96 0q-16 0 -26.5 11t-10.5 27q0 14 11 26t26 12h170v341h-170q-16 0 -26.5 11t-10.5 27q0 14 11 26t26 12h207q15 0 26 -11.5
t11 -26.5v-379h140q15 0 26 -11.5t11 -26.5q0 -16 -10.5 -27t-26.5 -11h-384z" />
    <glyph glyph-name="iacute" unicode="&#xed;" 
d="M301 552q-14 0 -24.5 11t-10.5 26q0 13 10 22l89 95q10 13 25 13q14 0 25.5 -11.5t11.5 -26.5q0 -13 -10 -23l-89 -95q-11 -11 -27 -11zM96 0q-16 0 -26.5 11t-10.5 27q0 14 11 26t26 12h170v341h-170q-16 0 -26.5 11t-10.5 27q0 14 11 26t26 12h207q15 0 26 -11.5
t11 -26.5v-379h140q15 0 26 -11.5t11 -26.5q0 -16 -10.5 -27t-26.5 -11h-384z" />
    <glyph glyph-name="icircumflex" unicode="&#xee;" 
d="M195 544q-13 0 -22 9t-9 22q0 12 13 25l101 101q12 11 25 11q12 0 24 -11l102 -101q13 -13 13 -25q0 -14 -9.5 -22.5t-21.5 -8.5t-21 9l-87 87l-87 -87q-9 -9 -21 -9zM96 0q-16 0 -26.5 11t-10.5 27q0 14 11 26t26 12h170v341h-170q-16 0 -26.5 11t-10.5 27q0 14 11 26
t26 12h207q15 0 26 -11.5t11 -26.5v-379h140q15 0 26 -11.5t11 -26.5q0 -16 -10.5 -27t-26.5 -11h-384z" />
    <glyph glyph-name="idieresis" unicode="&#xef;" 
d="M204 554q-26 0 -43 19t-17 43q0 26 17.5 44.5t42.5 18.5q27 0 44 -19t17 -44q0 -26 -18 -44t-43 -18zM402 554q-25 0 -43 18t-18 44t17.5 44.5t43.5 18.5q27 0 43.5 -19t16.5 -44t-17.5 -43.5t-42.5 -18.5zM96 0q-16 0 -26.5 11t-10.5 27q0 14 11 26t26 12h170v341h-170
q-16 0 -26.5 11t-10.5 27q0 14 11 26t26 12h207q15 0 26 -11.5t11 -26.5v-379h140q15 0 26 -11.5t11 -26.5q0 -16 -10.5 -27t-26.5 -11h-384z" />
    <glyph glyph-name="eth" unicode="&#xf0;" 
d="M497 280v-3v-61q0 -90 -63.5 -153t-150.5 -63q-90 0 -152 64t-62 152v61q0 88 62.5 152t151.5 64q53 0 97 -23q-35 69 -94 122l-50 -65q-9 -12 -24 -12q-12 0 -21 8.5t-9 21.5q0 11 6 18l50 65q-25 17 -62 34q-21 9 -21 33q0 15 10.5 25.5t25.5 10.5q9 0 15 -3
q44 -19 77 -43l32 42q9 12 24 12q12 0 21 -8.5t9 -21.5q0 -11 -6 -18l-33 -43q79 -70 123 -167.5t44 -200.5zM423 216v61q0 59 -41 100.5t-99 41.5q-60 0 -100 -42t-40 -100v-61q0 -59 42 -100.5t98 -41.5q58 0 99 42t41 100z" />
    <glyph glyph-name="ntilde" unicode="&#xf1;" 
d="M394 626q8 15 26 15q12 0 21 -8.5t9 -21.5q0 -8 -5 -15q-29 -50 -79 -50q-30 0 -74.5 25t-51.5 25q-33 0 -49 -28q-8 -15 -26 -15q-12 0 -21 8.5t-9 21.5q0 7 4 15q34 58 101 58q23 0 67 -25t59 -25t28 20zM116 0q-15 0 -26 11t-11 26v419q0 15 10.5 26t26.5 11t26.5 -11
t10.5 -26v-52q29 46 65 67.5t93 21.5q94 0 145 -54.5t51 -161.5v-240q0 -15 -11 -26t-26 -11t-26 11t-11 26v240q0 70 -35 106t-97 36q-71 0 -109.5 -42.5t-38.5 -99.5v-240q0 -15 -11 -26t-26 -11z" />
    <glyph glyph-name="ograve" unicode="&#xf2;" 
d="M283 552q-16 0 -27 11l-89 95q-10 10 -10 23q0 15 11.5 26.5t25.5 11.5q15 0 25 -13l89 -95q10 -9 10 -22q0 -15 -10.5 -26t-24.5 -11zM283 0q-90 0 -152 64t-62 152v61q0 88 62.5 152t151.5 64q91 0 152.5 -64t61.5 -152v-61q0 -90 -63.5 -153t-150.5 -63zM283 74
q58 0 99 42t41 100v61q0 59 -41 100.5t-99 41.5q-60 0 -100 -42t-40 -100v-61q0 -59 42 -100.5t98 -41.5z" />
    <glyph glyph-name="oacute" unicode="&#xf3;" 
d="M281 552q-14 0 -24.5 11t-10.5 26q0 13 10 22l89 95q10 13 25 13q14 0 25.5 -11.5t11.5 -26.5q0 -13 -10 -23l-89 -95q-11 -11 -27 -11zM283 0q-90 0 -152 64t-62 152v61q0 88 62.5 152t151.5 64q91 0 152.5 -64t61.5 -152v-61q0 -90 -63.5 -153t-150.5 -63zM283 74
q58 0 99 42t41 100v61q0 59 -41 100.5t-99 41.5q-60 0 -100 -42t-40 -100v-61q0 -59 42 -100.5t98 -41.5z" />
    <glyph glyph-name="ocircumflex" unicode="&#xf4;" 
d="M175 544q-13 0 -22 9t-9 22q0 12 13 25l101 101q12 11 25 11q12 0 24 -11l102 -101q13 -13 13 -25q0 -14 -9.5 -22.5t-21.5 -8.5t-21 9l-87 87l-87 -87q-9 -9 -21 -9zM283 0q-90 0 -152 64t-62 152v61q0 88 62.5 152t151.5 64q91 0 152.5 -64t61.5 -152v-61
q0 -90 -63.5 -153t-150.5 -63zM283 74q58 0 99 42t41 100v61q0 59 -41 100.5t-99 41.5q-60 0 -100 -42t-40 -100v-61q0 -59 42 -100.5t98 -41.5z" />
    <glyph glyph-name="otilde" unicode="&#xf5;" 
d="M384 626q8 15 26 15q12 0 21 -8.5t9 -21.5q0 -8 -5 -15q-29 -50 -79 -50q-30 0 -74.5 25t-51.5 25q-33 0 -49 -28q-8 -15 -26 -15q-12 0 -21 8.5t-9 21.5q0 7 4 15q34 58 101 58q23 0 67 -25t59 -25t28 20zM283 0q-90 0 -152 64t-62 152v61q0 88 62.5 152t151.5 64
q91 0 152.5 -64t61.5 -152v-61q0 -90 -63.5 -153t-150.5 -63zM283 74q58 0 99 42t41 100v61q0 59 -41 100.5t-99 41.5q-60 0 -100 -42t-40 -100v-61q0 -59 42 -100.5t98 -41.5z" />
    <glyph glyph-name="odieresis" unicode="&#xf6;" 
d="M184 554q-26 0 -43 19t-17 43q0 26 17.5 44.5t42.5 18.5q27 0 44 -19t17 -44q0 -26 -18 -44t-43 -18zM382 554q-25 0 -43 18t-18 44t17.5 44.5t43.5 18.5q27 0 43.5 -19t16.5 -44t-17.5 -43.5t-42.5 -18.5zM283 0q-90 0 -152 64t-62 152v61q0 88 62.5 152t151.5 64
q91 0 152.5 -64t61.5 -152v-61q0 -90 -63.5 -153t-150.5 -63zM283 74q58 0 99 42t41 100v61q0 59 -41 100.5t-99 41.5q-60 0 -100 -42t-40 -100v-61q0 -59 42 -100.5t98 -41.5z" />
    <glyph glyph-name="divide" unicode="&#xf7;" 
d="M292 374q-23 0 -40 16q-16 18 -16 39q0 23 16 39q17 16 40 16t40 -16q16 -16 16 -39q0 -21 -16 -39q-17 -16 -40 -16zM70 201q-17 0 -30 13q-12 12 -12 29t12 29q14 12 30 12h426q16 0 30 -12q12 -12 12 -29t-12 -29q-13 -13 -30 -13h-426zM292 0q-21 0 -40 16
q-16 19 -16 40t16 39q17 16 40 16t40 -16q16 -18 16 -39t-16 -40q-19 -16 -40 -16z" />
    <glyph glyph-name="oslash" unicode="&#xf8;" 
d="M423 441q74 -66 74 -164v-61q0 -90 -63.5 -153t-150.5 -63q-53 0 -100 25l-25 -44q-5 -9 -15 -11.5t-19 2.5q-20 13 -9 33l28 48q-74 64 -74 163v61q0 88 62.5 152t151.5 64q53 0 100 -25l25 44q5 9 15 11.5t19 -2.5q8 -5 10.5 -15t-2.5 -18zM143 216q0 -55 38 -96
l165 284q-28 15 -63 15q-60 0 -100 -42t-40 -100v-61zM423 216v61q0 57 -38 98l-164 -285q30 -16 62 -16q58 0 99 42t41 100z" />
    <glyph glyph-name="ugrave" unicode="&#xf9;" 
d="M283 552q-16 0 -27 11l-89 95q-10 10 -10 23q0 15 11.5 26.5t25.5 11.5q15 0 25 -13l89 -95q10 -9 10 -22q0 -15 -10.5 -26t-24.5 -11zM258 0q-92 0 -140.5 55t-48.5 161v240q0 15 11 26t26 11t26 -11t11 -26v-240q0 -70 34.5 -106t99.5 -36t105 42q41 43 41 100v240
q0 15 11 26t26 11t26 -11t11 -26v-419q0 -16 -10.5 -26.5t-26.5 -10.5t-26.5 10.5t-10.5 26.5v56q-31 -49 -70 -71t-95 -22z" />
    <glyph glyph-name="uacute" unicode="&#xfa;" 
d="M281 552q-14 0 -24.5 11t-10.5 26q0 13 10 22l89 95q10 13 25 13q14 0 25.5 -11.5t11.5 -26.5q0 -13 -10 -23l-89 -95q-11 -11 -27 -11zM258 0q-92 0 -140.5 55t-48.5 161v240q0 15 11 26t26 11t26 -11t11 -26v-240q0 -70 34.5 -106t99.5 -36t105 42q41 43 41 100v240
q0 15 11 26t26 11t26 -11t11 -26v-419q0 -16 -10.5 -26.5t-26.5 -10.5t-26.5 10.5t-10.5 26.5v56q-31 -49 -70 -71t-95 -22z" />
    <glyph glyph-name="ucircumflex" unicode="&#xfb;" 
d="M175 544q-13 0 -22 9t-9 22q0 12 13 25l101 101q12 11 25 11q12 0 24 -11l102 -101q13 -13 13 -25q0 -14 -9.5 -22.5t-21.5 -8.5t-21 9l-87 87l-87 -87q-9 -9 -21 -9zM258 0q-92 0 -140.5 55t-48.5 161v240q0 15 11 26t26 11t26 -11t11 -26v-240q0 -70 34.5 -106
t99.5 -36t105 42q41 43 41 100v240q0 15 11 26t26 11t26 -11t11 -26v-419q0 -16 -10.5 -26.5t-26.5 -10.5t-26.5 10.5t-10.5 26.5v56q-31 -49 -70 -71t-95 -22z" />
    <glyph glyph-name="udieresis" unicode="&#xfc;" 
d="M184 554q-26 0 -43 19t-17 43q0 26 17.5 44.5t42.5 18.5q27 0 44 -19t17 -44q0 -26 -18 -44t-43 -18zM382 554q-25 0 -43 18t-18 44t17.5 44.5t43.5 18.5q27 0 43.5 -19t16.5 -44t-17.5 -43.5t-42.5 -18.5zM258 0q-92 0 -140.5 55t-48.5 161v240q0 15 11 26t26 11t26 -11
t11 -26v-240q0 -70 34.5 -106t99.5 -36t105 42q41 43 41 100v240q0 15 11 26t26 11t26 -11t11 -26v-419q0 -16 -10.5 -26.5t-26.5 -10.5t-26.5 10.5t-10.5 26.5v56q-31 -49 -70 -71t-95 -22z" />
    <glyph glyph-name="yacute" unicode="&#xfd;" 
d="M301 552q-14 0 -24.5 11t-10.5 26q0 13 10 22l89 95q10 13 25 13q14 0 25.5 -11.5t11.5 -26.5q0 -13 -10 -23l-89 -95q-11 -11 -27 -11zM213 -230q-15 0 -26 10.5t-11 26.5q0 7 3 15l84 204l-171 415q-3 8 -3 14q0 16 12.5 27.5t25.5 11.5q24 0 33 -24l143 -348l143 348
q9 24 33 24q15 0 26.5 -12t11.5 -27q0 -6 -3 -14l-267 -648q-10 -23 -34 -23z" />
    <glyph glyph-name="thorn" unicode="&#xfe;" 
d="M116 -230q-16 0 -26.5 11t-10.5 27v894q0 15 11 26t26 11t26 -11t11 -26v-293q55 84 150 84q82 -2 143 -67t61 -154v-51q0 -91 -57.5 -156t-140.5 -65q-92 0 -156 85v-277q0 -16 -10.5 -27t-26.5 -11zM293 76q59 0 99.5 42.5t40.5 102.5v51q0 59 -39.5 102.5t-100.5 43.5
q-59 0 -99.5 -43.5t-40.5 -102.5v-51q0 -60 41 -102.5t99 -42.5z" />
    <glyph glyph-name="ydieresis" unicode="&#xff;" 
d="M204 554q-26 0 -43 19t-17 43q0 26 17.5 44.5t42.5 18.5q27 0 44 -19t17 -44q0 -26 -18 -44t-43 -18zM402 554q-25 0 -43 18t-18 44t17.5 44.5t43.5 18.5q27 0 43.5 -19t16.5 -44t-17.5 -43.5t-42.5 -18.5zM213 -230q-15 0 -26 10.5t-11 26.5q0 7 3 15l84 204l-171 415
q-3 8 -3 14q0 16 12.5 27.5t25.5 11.5q24 0 33 -24l143 -348l143 348q9 24 33 24q15 0 26.5 -12t11.5 -27q0 -6 -3 -14l-267 -648q-10 -23 -34 -23z" />
    <glyph glyph-name="Amacron" unicode="&#x100;" 
d="M144 807q-12 0 -20.5 9t-9.5 22q1 12 9.5 21t20.5 9h277q13 0 21.5 -9t9.5 -22q-1 -12 -10 -20.5t-20 -8.5zM38 0q-15 0 -26 10.5t-11 27.5l248 678q9 23 34 23q26 0 34 -23l248 -678q0 -18 -11 -28t-26 -10q-24 0 -34 24l-62 167h-298l-62 -167q-11 -24 -34 -24z
M162 266h242l-121 328z" />
    <glyph glyph-name="amacron" unicode="&#x101;" 
d="M149 561q-12 0 -20.5 9t-9.5 22q1 12 9.5 21t20.5 9h277q13 0 21.5 -9t9.5 -22q-1 -12 -10 -20.5t-20 -8.5zM228 0q-77 0 -120.5 40t-43.5 104q0 65 45 105t118 41q152 1 171 12q15 14 15 32q0 35 -36.5 62t-90.5 27q-41 0 -75.5 -18t-52.5 -52q-10 -21 -31 -21
q-36 0 -36 35q0 47 66 86.5t135 39.5q72 0 131 -45.5t59 -113.5v-299q0 -16 -10.5 -25.5t-24.5 -9.5t-24 10t-10 25v46q-32 -42 -82.5 -61.5t-102.5 -19.5zM242 71q76 0 123.5 35t47.5 100v47q-24 -13 -57 -16t-118 -5q-102 -2 -102 -83q0 -78 106 -78z" />
    <glyph glyph-name="Abreve" unicode="&#x102;" 
d="M282 806q-53 0 -93 34t-50 86q-3 14 5.5 25t22.5 11q11 0 20 -7t10 -17q7 -32 30.5 -52t54.5 -20q32 0 55.5 20t30.5 52q1 10 9.5 17t19.5 7q14 0 23 -11t6 -25q-10 -53 -50.5 -86.5t-93.5 -33.5zM38 0q-15 0 -26 10.5t-11 27.5l248 678q9 23 34 23q26 0 34 -23l248 -678
q0 -18 -11 -28t-26 -10q-24 0 -34 24l-62 167h-298l-62 -167q-11 -24 -34 -24zM162 266h242l-121 328z" />
    <glyph glyph-name="abreve" unicode="&#x103;" 
d="M287 560q-53 0 -93 34t-50 86q-3 14 5.5 25t22.5 11q11 0 20 -7t10 -17q7 -32 30.5 -52t54.5 -20q32 0 55.5 20t30.5 52q1 10 9.5 17t19.5 7q14 0 23 -11t6 -25q-10 -53 -50.5 -86.5t-93.5 -33.5zM228 0q-77 0 -120.5 40t-43.5 104q0 65 45 105t118 41q152 1 171 12
q15 14 15 32q0 35 -36.5 62t-90.5 27q-41 0 -75.5 -18t-52.5 -52q-10 -21 -31 -21q-36 0 -36 35q0 47 66 86.5t135 39.5q72 0 131 -45.5t59 -113.5v-299q0 -16 -10.5 -25.5t-24.5 -9.5t-24 10t-10 25v46q-32 -42 -82.5 -61.5t-102.5 -19.5zM242 71q76 0 123.5 35t47.5 100
v47q-24 -13 -57 -16t-118 -5q-102 -2 -102 -83q0 -78 106 -78z" />
    <glyph glyph-name="Aogonek" unicode="&#x104;" 
d="M576 -151q10 0 18 -7.5t8 -18.5q0 -17 -16 -24q-23 -11 -51 -11q-42 0 -66.5 24t-24.5 64q0 51 53 142l-3 6l-62 167h-298l-62 -167q-11 -24 -34 -24q-15 0 -26 10.5t-11 27.5l248 678q9 23 34 23q26 0 34 -23l248 -678q0 -26 -23 -36q-49 -77 -49 -119q0 -43 44 -43
q10 0 23.5 4.5t15.5 4.5zM162 266h242l-121 328z" />
    <glyph glyph-name="aogonek" unicode="&#x105;" 
d="M493 -154q11 0 18.5 -8t7.5 -18q0 -17 -16 -24q-23 -11 -51 -11q-42 0 -66.5 24t-24.5 64q0 54 56 146q-4 5 -4 16v46q-32 -42 -82.5 -61.5t-102.5 -19.5q-77 0 -120.5 40t-43.5 104q0 65 45 105t118 41q152 1 171 12q15 14 15 32q0 35 -36.5 62t-90.5 27
q-41 0 -75.5 -18t-52.5 -52q-10 -21 -31 -21q-36 0 -36 35q0 47 66 86.5t135 39.5q72 0 131 -45.5t59 -113.5v-299q0 -22 -21 -32q-51 -81 -51 -123q0 -43 44 -43q10 0 23.5 4.5t15.5 4.5zM413 206v47q-24 -13 -57 -16t-118 -5q-102 -2 -102 -83q0 -78 106 -78
q76 0 123.5 35t47.5 100z" />
    <glyph glyph-name="Cacute" unicode="&#x106;" 
d="M291 798q-14 0 -24.5 11t-10.5 26q0 13 10 22l89 95q10 13 25 13q14 0 25.5 -11.5t11.5 -26.5q0 -13 -10 -23l-89 -95q-11 -11 -27 -11zM293 0q-87 0 -148 64.5t-61 153.5v303q0 89 61 153.5t148 64.5t148 -64.5t61 -153.5q0 -17 -11 -27.5t-25 -10.5q-15 0 -25.5 11
t-10.5 27q0 58 -40 100t-97 42q-58 0 -97.5 -42.5t-39.5 -99.5v-303q0 -58 40 -100.5t97 -42.5q59 0 98 42.5t39 100.5q0 17 11 27t25 10q15 0 25.5 -10.5t10.5 -26.5q0 -89 -61 -153.5t-148 -64.5z" />
    <glyph glyph-name="cacute" unicode="&#x107;" 
d="M312 552q-14 0 -24.5 11t-10.5 26q0 13 10 22l89 95q10 13 25 13q14 0 25.5 -11.5t11.5 -26.5q0 -13 -10 -23l-89 -95q-11 -11 -27 -11zM313 0q-87 0 -149.5 65t-62.5 151v61q0 90 63.5 153t149.5 63q58 0 108.5 -30.5t77.5 -81.5q5 -10 5 -18q0 -14 -11 -25t-26 -11
q-11 0 -18.5 5t-18 20.5t-11.5 16.5q-40 50 -106 50q-58 0 -99 -42t-41 -100v-61q0 -59 41 -100.5t99 -41.5q73 0 116 64q13 29 39 29q14 0 25 -11.5t11 -25.5q0 -10 -5 -18q-27 -51 -78 -81.5t-109 -30.5z" />
    <glyph glyph-name="Cdotaccent" unicode="&#x10a;" 
d="M293 799q-25 0 -43 18t-18 44t17.5 44.5t43.5 18.5q27 0 43.5 -19t16.5 -44t-17.5 -43.5t-42.5 -18.5zM293 0q-87 0 -148 64.5t-61 153.5v303q0 89 61 153.5t148 64.5t148 -64.5t61 -153.5q0 -17 -11 -27.5t-25 -10.5q-15 0 -25.5 11t-10.5 27q0 58 -40 100t-97 42
q-58 0 -97.5 -42.5t-39.5 -99.5v-303q0 -58 40 -100.5t97 -42.5q59 0 98 42.5t39 100.5q0 17 11 27t25 10q15 0 25.5 -10.5t10.5 -26.5q0 -89 -61 -153.5t-148 -64.5z" />
    <glyph glyph-name="cdotaccent" unicode="&#x10b;" 
d="M314 553q-25 0 -43 18t-18 44t17.5 44.5t43.5 18.5q27 0 43.5 -19t16.5 -44t-17.5 -43.5t-42.5 -18.5zM313 0q-87 0 -149.5 65t-62.5 151v61q0 90 63.5 153t149.5 63q58 0 108.5 -30.5t77.5 -81.5q5 -10 5 -18q0 -14 -11 -25t-26 -11q-11 0 -18.5 5t-18 20.5t-11.5 16.5
q-40 50 -106 50q-58 0 -99 -42t-41 -100v-61q0 -59 41 -100.5t99 -41.5q73 0 116 64q13 29 39 29q14 0 25 -11.5t11 -25.5q0 -10 -5 -18q-27 -51 -78 -81.5t-109 -30.5z" />
    <glyph glyph-name="Ccaron" unicode="&#x10c;" 
d="M293 800q-13 0 -25 11l-101 101q-13 13 -13 25q0 13 9 22t22 9q12 0 21 -9l87 -87l87 87q9 9 21 9t21.5 -8.5t9.5 -22.5q0 -12 -13 -25l-102 -101q-12 -11 -24 -11zM293 0q-87 0 -148 64.5t-61 153.5v303q0 89 61 153.5t148 64.5t148 -64.5t61 -153.5q0 -17 -11 -27.5
t-25 -10.5q-15 0 -25.5 11t-10.5 27q0 58 -40 100t-97 42q-58 0 -97.5 -42.5t-39.5 -99.5v-303q0 -58 40 -100.5t97 -42.5q59 0 98 42.5t39 100.5q0 17 11 27t25 10q15 0 25.5 -10.5t10.5 -26.5q0 -89 -61 -153.5t-148 -64.5z" />
    <glyph glyph-name="ccaron" unicode="&#x10d;" 
d="M314 554q-13 0 -25 11l-101 101q-13 13 -13 25q0 13 9 22t22 9q12 0 21 -9l87 -87l87 87q9 9 21 9t21.5 -8.5t9.5 -22.5q0 -12 -13 -25l-102 -101q-12 -11 -24 -11zM313 0q-87 0 -149.5 65t-62.5 151v61q0 90 63.5 153t149.5 63q58 0 108.5 -30.5t77.5 -81.5q5 -10 5 -18
q0 -14 -11 -25t-26 -11q-11 0 -18.5 5t-18 20.5t-11.5 16.5q-40 50 -106 50q-58 0 -99 -42t-41 -100v-61q0 -59 41 -100.5t99 -41.5q73 0 116 64q13 29 39 29q14 0 25 -11.5t11 -25.5q0 -10 -5 -18q-27 -51 -78 -81.5t-109 -30.5z" />
    <glyph glyph-name="Dcaron" unicode="&#x10e;" 
d="M283 800q-13 0 -25 11l-101 101q-13 13 -13 25q0 13 9 22t22 9q12 0 21 -9l87 -87l87 87q9 9 21 9t21.5 -8.5t9.5 -22.5q0 -12 -13 -25l-102 -101q-12 -11 -24 -11zM122 0q-15 0 -25.5 11t-10.5 27v663q0 17 11 27.5t25 10.5h173q87 0 148 -64.5t61 -153.5v-303
q0 -89 -61 -153.5t-148 -64.5h-173zM158 75h137q56 0 96.5 43t40.5 100v303q0 59 -41 101t-96 42h-137v-589z" />
    <glyph glyph-name="dcaron" unicode="&#x10f;" 
d="M239 0q-85 0 -146.5 64.5t-61.5 155.5v52q0 93 64 157t149 64q77 0 138 -55v264q0 15 11 26t26 11q14 0 25 -10.5t11 -26.5v-664q0 -16 -10.5 -27t-25.5 -11q-16 0 -26.5 11t-10.5 27v16q-60 -54 -143 -54zM528 543q-13 0 -21.5 8.5t-8.5 21.5v136q0 13 8.5 21.5
t21.5 8.5h4q13 0 21.5 -8.5t8.5 -21.5v-136q0 -13 -8.5 -21.5t-21.5 -8.5h-4zM244 76q57 0 97.5 41t40.5 103v52q0 61 -40.5 103t-97.5 42q-58 0 -99 -41t-41 -104v-52q0 -60 41.5 -102t98.5 -42z" />
    <glyph glyph-name="Dcroat" unicode="&#x110;" 
d="M295 739q87 0 148 -64.5t61 -153.5v-303q0 -89 -61 -153.5t-148 -64.5h-173q-15 0 -25.5 11t-10.5 27v301h-49q-12 0 -21 9.5t-9 21.5t9 21t21 9h49v301q0 17 11 27.5t25 10.5h173zM432 218v303q0 59 -41 101t-96 42h-137v-264h125q12 0 20.5 -9t10.5 -22
q-1 -12 -10 -20.5t-21 -8.5l-125 -1v-264h137q56 0 96.5 43t40.5 100z" />
    <glyph glyph-name="dcroat" unicode="&#x111;" 
d="M528 651q12 0 20.5 -9t10.5 -22q-1 -12 -10 -20.5t-21 -8.5h-43v-553q0 -16 -10.5 -27t-25.5 -11q-16 0 -26.5 11t-10.5 27v16q-60 -54 -143 -54q-85 0 -146.5 64.5t-61.5 155.5v52q0 93 64 157t149 64q77 0 138 -55v153l-130 -1q-12 0 -21 9.5t-9 21.5t9 21t21 9h130v51
q0 15 11 26t26 11q14 0 25 -10.5t11 -26.5v-51h43zM412 220v52q0 61 -40.5 103t-97.5 42q-58 0 -99 -41t-41 -104v-52q0 -60 41.5 -102t98.5 -42t97.5 41t40.5 103z" />
    <glyph glyph-name="Emacron" unicode="&#x112;" 
d="M144 807q-12 0 -20.5 9t-9.5 22q1 12 9.5 21t20.5 9h277q13 0 21.5 -9t9.5 -22q-1 -12 -10 -20.5t-20 -8.5zM115 0q-14 0 -24.5 11t-10.5 27v663q0 15 10 26.5t25 11.5h366q14 0 24.5 -11.5t10.5 -27.5t-10.5 -26.5t-24.5 -10.5h-330v-256h256q15 0 25.5 -11t10.5 -27
t-11 -26.5t-25 -10.5h-256v-257h330q14 0 24.5 -11t10.5 -27t-11 -26.5t-24 -10.5h-366z" />
    <glyph glyph-name="emacron" unicode="&#x113;" 
d="M157 561q-12 0 -20.5 9t-9.5 22q1 12 9.5 21t20.5 9h277q13 0 21.5 -9t9.5 -22q-1 -12 -10 -20.5t-20 -8.5zM292 0q-87 0 -150 64t-63 152v61q0 89 63 152.5t154 63.5q95 0 153 -68.5t58 -169.5q0 -21 -10.5 -31.5t-26.5 -10.5h-317q0 -59 42.5 -99t101.5 -40
q42 0 67.5 19t51.5 55q13 19 31 19q14 0 26 -10t12 -23q0 -10 -5 -22q-17 -43 -71.5 -77.5t-116.5 -34.5zM153 287h278q-9 64 -45.5 98t-90.5 34q-59 0 -99 -38.5t-43 -93.5z" />
    <glyph glyph-name="Edotaccent" unicode="&#x116;" 
d="M283 799q-25 0 -43 18t-18 44t17.5 44.5t43.5 18.5q27 0 43.5 -19t16.5 -44t-17.5 -43.5t-42.5 -18.5zM115 0q-14 0 -24.5 11t-10.5 27v663q0 15 10 26.5t25 11.5h366q14 0 24.5 -11.5t10.5 -27.5t-10.5 -26.5t-24.5 -10.5h-330v-256h256q15 0 25.5 -11t10.5 -27
t-11 -26.5t-25 -10.5h-256v-257h330q14 0 24.5 -11t10.5 -27t-11 -26.5t-24 -10.5h-366z" />
    <glyph glyph-name="edotaccent" unicode="&#x117;" 
d="M296 553q-25 0 -43 18t-18 44t17.5 44.5t43.5 18.5q27 0 43.5 -19t16.5 -44t-17.5 -43.5t-42.5 -18.5zM292 0q-87 0 -150 64t-63 152v61q0 89 63 152.5t154 63.5q95 0 153 -68.5t58 -169.5q0 -21 -10.5 -31.5t-26.5 -10.5h-317q0 -59 42.5 -99t101.5 -40q42 0 67.5 19
t51.5 55q13 19 31 19q14 0 26 -10t12 -23q0 -10 -5 -22q-17 -43 -71.5 -77.5t-116.5 -34.5zM153 287h278q-9 64 -45.5 98t-90.5 34q-59 0 -99 -38.5t-43 -93.5z" />
    <glyph glyph-name="Eogonek" unicode="&#x118;" 
d="M492 -189q10 0 18 -7.5t8 -18.5q0 -17 -16 -24q-23 -11 -51 -11q-42 0 -66.5 24t-24.5 64q0 58 66 162h-311q-14 0 -24.5 11t-10.5 27v663q0 15 10 26.5t25 11.5h366q14 0 24.5 -11.5t10.5 -27.5t-10.5 -26.5t-24.5 -10.5h-330v-256h256q15 0 25.5 -11t10.5 -27
t-11 -26.5t-25 -10.5h-256v-257h330q14 0 24.5 -11t10.5 -27t-11 -26.5t-24 -10.5q-72 -104 -72 -155q0 -43 44 -43q10 0 23.5 4.5t15.5 4.5z" />
    <glyph glyph-name="eogonek" unicode="&#x119;" 
d="M507 255q0 -21 -10.5 -31.5t-26.5 -10.5h-317q0 -59 42.5 -99t101.5 -40q42 0 67.5 19t51.5 55q13 19 31 19q14 0 26 -10t12 -23q0 -10 -5 -22q-11 -27 -37.5 -51.5t-62.5 -40.5q-64 -96 -64 -144q0 -43 44 -43q10 0 23.5 4.5t15.5 4.5q11 0 18.5 -8t7.5 -18
q0 -17 -16 -24q-23 -11 -51 -11q-42 0 -66.5 24t-24.5 64q0 53 48 132q-8 -1 -23 -1q-87 0 -150 64t-63 152v61q0 89 63 152.5t154 63.5q95 0 153 -68.5t58 -169.5zM153 287h278q-9 64 -45.5 98t-90.5 34q-59 0 -99 -38.5t-43 -93.5z" />
    <glyph glyph-name="Ecaron" unicode="&#x11a;" 
d="M283 800q-13 0 -25 11l-101 101q-13 13 -13 25q0 13 9 22t22 9q12 0 21 -9l87 -87l87 87q9 9 21 9t21.5 -8.5t9.5 -22.5q0 -12 -13 -25l-102 -101q-12 -11 -24 -11zM115 0q-14 0 -24.5 11t-10.5 27v663q0 15 10 26.5t25 11.5h366q14 0 24.5 -11.5t10.5 -27.5t-10.5 -26.5
t-24.5 -10.5h-330v-256h256q15 0 25.5 -11t10.5 -27t-11 -26.5t-25 -10.5h-256v-257h330q14 0 24.5 -11t10.5 -27t-11 -26.5t-24 -10.5h-366z" />
    <glyph glyph-name="ecaron" unicode="&#x11b;" 
d="M296 554q-13 0 -25 11l-101 101q-13 13 -13 25q0 13 9 22t22 9q12 0 21 -9l87 -87l87 87q9 9 21 9t21.5 -8.5t9.5 -22.5q0 -12 -13 -25l-102 -101q-12 -11 -24 -11zM292 0q-87 0 -150 64t-63 152v61q0 89 63 152.5t154 63.5q95 0 153 -68.5t58 -169.5q0 -21 -10.5 -31.5
t-26.5 -10.5h-317q0 -59 42.5 -99t101.5 -40q42 0 67.5 19t51.5 55q13 19 31 19q14 0 26 -10t12 -23q0 -10 -5 -22q-17 -43 -71.5 -77.5t-116.5 -34.5zM153 287h278q-9 64 -45.5 98t-90.5 34q-59 0 -99 -38.5t-43 -93.5z" />
    <glyph glyph-name="Gbreve" unicode="&#x11e;" 
d="M282 806q-53 0 -93 34t-50 86q-3 14 5.5 25t22.5 11q11 0 20 -7t10 -17q7 -32 30.5 -52t54.5 -20q32 0 55.5 20t30.5 52q1 10 9.5 17t19.5 7q14 0 23 -11t6 -25q-10 -53 -50.5 -86.5t-93.5 -33.5zM283 0q-87 0 -148 64.5t-61 153.5v303q0 91 62 154.5t147 63.5
q88 0 148.5 -59.5t60.5 -148.5q0 -17 -11 -27.5t-25 -10.5q-15 0 -25.5 11t-10.5 27q0 56 -39.5 94t-97.5 38t-97.5 -42.5t-39.5 -99.5v-303q0 -58 40 -100.5t97 -42.5t97 42t40 101v74h-117q-14 0 -25 11t-11 26q0 17 11 27.5t25 10.5h153q15 0 25.5 -11t10.5 -27v-111
q0 -89 -61 -153.5t-148 -64.5z" />
    <glyph glyph-name="gbreve" unicode="&#x11f;" 
d="M286 561q-53 0 -93 34t-50 86q-3 14 5.5 25t22.5 11q11 0 20 -7t10 -17q7 -32 30.5 -52t54.5 -20q32 0 55.5 20t30.5 52q1 10 9.5 17t19.5 7q14 0 23 -11t6 -25q-10 -53 -50.5 -86.5t-93.5 -33.5zM177 -208q-49 0 -79.5 34t-30.5 81q0 54 43 88l15 12q-58 37 -58 109
t54 126q-13 29 -13 68q0 76 52 130t127 54q74 0 125 -55l75 68q9 8 24 5q14 -3 22 -13t8 -21q0 -16 -17 -31l-74 -68q13 -29 13 -68q0 -83 -50.5 -133t-127.5 -50q-30 0 -65.5 14t-59.5 39q-24 -30 -24 -60q0 -59 49 -59h204q51 0 80.5 -34.5t29.5 -83.5q0 -60 -45 -106
t-106 -46h-171zM285 199q49 0 79 32.5t30 79.5q0 49 -32 80t-77 31q-48 0 -78 -33t-30 -78q0 -48 32 -80t76 -32zM177 -137h171q54 0 76 51q12 32 1.5 54t-36.5 22h-173l-64 -51q-16 -13 -16 -32t12 -31.5t29 -12.5z" />
    <glyph glyph-name="Gdotaccent" unicode="&#x120;" 
d="M283 799q-25 0 -43 18t-18 44t17.5 44.5t43.5 18.5q27 0 43.5 -19t16.5 -44t-17.5 -43.5t-42.5 -18.5zM283 0q-87 0 -148 64.5t-61 153.5v303q0 91 62 154.5t147 63.5q88 0 148.5 -59.5t60.5 -148.5q0 -17 -11 -27.5t-25 -10.5q-15 0 -25.5 11t-10.5 27q0 56 -39.5 94
t-97.5 38t-97.5 -42.5t-39.5 -99.5v-303q0 -58 40 -100.5t97 -42.5t97 42t40 101v74h-117q-14 0 -25 11t-11 26q0 17 11 27.5t25 10.5h153q15 0 25.5 -11t10.5 -27v-111q0 -89 -61 -153.5t-148 -64.5z" />
    <glyph glyph-name="gdotaccent" unicode="&#x121;" 
d="M287 554q-25 0 -43 18t-18 44t17.5 44.5t43.5 18.5q27 0 43.5 -19t16.5 -44t-17.5 -43.5t-42.5 -18.5zM177 -208q-49 0 -79.5 34t-30.5 81q0 54 43 88l15 12q-58 37 -58 109t54 126q-13 29 -13 68q0 76 52 130t127 54q74 0 125 -55l75 68q9 8 24 5q14 -3 22 -13t8 -21
q0 -16 -17 -31l-74 -68q13 -29 13 -68q0 -83 -50.5 -133t-127.5 -50q-30 0 -65.5 14t-59.5 39q-24 -30 -24 -60q0 -59 49 -59h204q51 0 80.5 -34.5t29.5 -83.5q0 -60 -45 -106t-106 -46h-171zM285 199q49 0 79 32.5t30 79.5q0 49 -32 80t-77 31q-48 0 -78 -33t-30 -78
q0 -48 32 -80t76 -32zM177 -137h171q54 0 76 51q12 32 1.5 54t-36.5 22h-173l-64 -51q-16 -13 -16 -32t12 -31.5t29 -12.5z" />
    <glyph glyph-name="Gcommaaccent" unicode="&#x122;" 
d="M283 0q-87 0 -148 64.5t-61 153.5v303q0 91 62 154.5t147 63.5q88 0 148.5 -59.5t60.5 -148.5q0 -17 -11 -27.5t-25 -10.5q-15 0 -25.5 11t-10.5 27q0 56 -39.5 94t-97.5 38t-97.5 -42.5t-39.5 -99.5v-303q0 -58 40 -100.5t97 -42.5t97 42t40 101v74h-117q-14 0 -25 11
t-11 26q0 17 11 27.5t25 10.5h153q15 0 25.5 -11t10.5 -27v-111q0 -89 -61 -153.5t-148 -64.5zM240 -424l-39 19l86 184q-31 2 -52.5 24.5t-21.5 54.5q0 33 23.5 56t52.5 23q31 0 53 -23.5t22 -55.5v-79z" />
    <glyph glyph-name="gcommaaccent" unicode="&#x123;" 
d="M280 582q-31 0 -53 23.5t-22 55.5v79l124 203l39 -19l-86 -184q31 -2 52.5 -24.5t21.5 -54.5q0 -33 -23.5 -56t-52.5 -23zM177 -208q-49 0 -79.5 34t-30.5 81q0 54 43 88l15 12q-58 37 -58 109t54 126q-13 29 -13 68q0 76 52 130t127 54q74 0 125 -55l75 68q9 8 24 5
q14 -3 22 -13t8 -21q0 -16 -17 -31l-74 -68q13 -29 13 -68q0 -83 -50.5 -133t-127.5 -50q-30 0 -65.5 14t-59.5 39q-24 -30 -24 -60q0 -59 49 -59h204q51 0 80.5 -34.5t29.5 -83.5q0 -60 -45 -106t-106 -46h-171zM285 199q49 0 79 32.5t30 79.5q0 49 -32 80t-77 31
q-48 0 -78 -33t-30 -78q0 -48 32 -80t76 -32zM177 -137h171q54 0 76 51q12 32 1.5 54t-36.5 22h-173l-64 -51q-16 -13 -16 -32t12 -31.5t29 -12.5z" />
    <glyph glyph-name="Hbar" unicode="&#x126;" 
d="M509 553q12 0 20.5 -9t10.5 -22q-1 -12 -10 -20.5t-21 -8.5h-23v-455q0 -17 -11 -27.5t-25 -10.5q-15 0 -25.5 11.5t-10.5 26.5v294h-262v-294q0 -16 -11 -27t-25 -11q-15 0 -25.5 11t-10.5 27v454h-25q-12 0 -21 9.5t-9 21.5t9 21t21 9h25v148q0 15 10.5 26.5t25.5 11.5
q14 0 25 -11.5t11 -26.5v-148h262v148q0 15 11 26.5t25 11.5q15 0 25.5 -11.5t10.5 -26.5v-148h23zM414 407v86l-262 -1v-85h262z" />
    <glyph glyph-name="hbar" unicode="&#x127;" 
d="M293 494q88 0 150.5 -65.5t62.5 -156.5v-234q0 -16 -11 -27t-25 -11q-16 0 -26.5 11t-10.5 27v234q0 60 -42 103t-98 43q-57 0 -98.5 -43.5t-41.5 -102.5v-234q0 -16 -10.5 -27t-26.5 -11q-15 0 -25.5 11.5t-10.5 26.5v539h-53q-12 0 -21 9.5t-9 21.5t9 21t21 9h53v63
q0 15 11 26.5t25 11.5q16 0 26.5 -12t10.5 -26v-63h120q12 0 20.5 -9t10.5 -22q-1 -12 -10 -20.5t-21 -8.5h-120v-159q65 75 140 75z" />
    <glyph glyph-name="Itilde" unicode="&#x128;" 
d="M384 872q8 15 26 15q12 0 21 -8.5t9 -21.5q0 -8 -5 -15q-29 -50 -79 -50q-30 0 -74.5 25t-51.5 25q-33 0 -49 -28q-8 -15 -26 -15q-12 0 -21 8.5t-9 21.5q0 7 4 15q34 58 101 58q23 0 67 -25t59 -25t28 20zM126 0q-15 0 -25.5 11t-10.5 27q0 17 11 27t25 10h121v589h-121
q-15 0 -25.5 11t-10.5 27q0 17 11 27t25 10h314q15 0 25.5 -10.5t10.5 -26.5q0 -17 -11 -27.5t-25 -10.5h-121v-589h121q15 0 25.5 -10.5t10.5 -26.5t-10 -27t-26 -11h-314z" />
    <glyph glyph-name="itilde" unicode="&#x129;" 
d="M404 626q8 15 26 15q12 0 21 -8.5t9 -21.5q0 -8 -5 -15q-29 -50 -79 -50q-30 0 -74.5 25t-51.5 25q-33 0 -49 -28q-8 -15 -26 -15q-12 0 -21 8.5t-9 21.5q0 7 4 15q34 58 101 58q23 0 67 -25t59 -25t28 20zM96 0q-16 0 -26.5 11t-10.5 27q0 14 11 26t26 12h170v341h-170
q-16 0 -26.5 11t-10.5 27q0 14 11 26t26 12h207q15 0 26 -11.5t11 -26.5v-379h140q15 0 26 -11.5t11 -26.5q0 -16 -10.5 -27t-26.5 -11h-384z" />
    <glyph glyph-name="Imacron" unicode="&#x12a;" 
d="M144 807q-12 0 -20.5 9t-9.5 22q1 12 9.5 21t20.5 9h277q13 0 21.5 -9t9.5 -22q-1 -12 -10 -20.5t-20 -8.5zM126 0q-15 0 -25.5 11t-10.5 27q0 17 11 27t25 10h121v589h-121q-15 0 -25.5 11t-10.5 27q0 17 11 27t25 10h314q15 0 25.5 -10.5t10.5 -26.5q0 -17 -11 -27.5
t-25 -10.5h-121v-589h121q15 0 25.5 -10.5t10.5 -26.5t-10 -27t-26 -11h-314z" />
    <glyph glyph-name="imacron" unicode="&#x12b;" 
d="M164 561q-12 0 -20.5 9t-9.5 22q1 12 9.5 21t20.5 9h277q13 0 21.5 -9t9.5 -22q-1 -12 -10 -20.5t-20 -8.5zM96 0q-16 0 -26.5 11t-10.5 27q0 14 11 26t26 12h170v341h-170q-16 0 -26.5 11t-10.5 27q0 14 11 26t26 12h207q15 0 26 -11.5t11 -26.5v-379h140q15 0 26 -11.5
t11 -26.5q0 -16 -10.5 -27t-26.5 -11h-384z" />
    <glyph glyph-name="Iogonek" unicode="&#x12e;" 
d="M471 -189q11 0 18.5 -7.5t7.5 -18.5q0 -17 -16 -24q-23 -11 -51 -11q-42 0 -66.5 24t-24.5 64q0 58 66 162h-279q-15 0 -25.5 11t-10.5 27q0 17 11 27t25 10h121v589h-121q-15 0 -25.5 11t-10.5 27q0 17 11 27t25 10h314q15 0 25.5 -10.5t10.5 -26.5q0 -17 -11 -27.5
t-25 -10.5h-121v-589h121q15 0 25.5 -10.5t10.5 -26.5t-10 -27t-26 -11h20q-72 -104 -72 -155q0 -43 44 -43q10 0 23.5 4.5t15.5 4.5z" />
    <glyph glyph-name="iogonek" unicode="&#x12f;" 
d="M302 573q-26 0 -43 19t-17 43q0 26 17.5 44.5t42.5 18.5q28 0 44.5 -18.5t16.5 -44.5q0 -27 -17 -44.5t-44 -17.5zM515 -177q11 0 18.5 -7.5t7.5 -18.5q0 -17 -16 -24q-23 -11 -51 -11q-42 0 -66.5 24t-24.5 64q0 57 59 150h-336q-16 0 -26.5 11t-10.5 27q0 14 11 26
t26 12h170v341h-170q-16 0 -26.5 11t-10.5 27q0 14 11 26t26 12h207q15 0 26 -11.5t11 -26.5v-379h140q15 0 26 -11.5t11 -26.5q0 -14 -9 -25t-22 -13q-64 -94 -64 -143q0 -43 44 -43q10 0 23.5 4.5t15.5 4.5z" />
    <glyph glyph-name="Idotaccent" unicode="&#x130;" 
d="M283 799q-25 0 -43 18t-18 44t17.5 44.5t43.5 18.5q27 0 43.5 -19t16.5 -44t-17.5 -43.5t-42.5 -18.5zM126 0q-15 0 -25.5 11t-10.5 27q0 17 11 27t25 10h121v589h-121q-15 0 -25.5 11t-10.5 27q0 17 11 27t25 10h314q15 0 25.5 -10.5t10.5 -26.5q0 -17 -11 -27.5
t-25 -10.5h-121v-589h121q15 0 25.5 -10.5t10.5 -26.5t-10 -27t-26 -11h-314z" />
    <glyph glyph-name="dotlessi" unicode="&#x131;" 
d="M96 0q-16 0 -26.5 11t-10.5 27q0 14 11 26t26 12h170v341h-170q-16 0 -26.5 11t-10.5 27q0 14 11 26t26 12h207q15 0 26 -11.5t11 -26.5v-379h140q15 0 26 -11.5t11 -26.5q0 -16 -10.5 -27t-26.5 -11h-384z" />
    <glyph glyph-name="Kcommaaccent" unicode="&#x136;" 
d="M125 0q-15 0 -25.5 11t-10.5 27v664q0 16 11 26.5t25 10.5q15 0 26 -11t11 -26v-362l236 382q11 17 31 17q15 0 25.5 -11.5t10.5 -26.5q0 -10 -6 -19l-151 -245l224 -380q5 -12 5 -21q0 -15 -10.5 -25.5t-25.5 -10.5q-21 0 -31 18l-206 348l-102 -166v-162
q0 -16 -10.5 -27t-26.5 -11zM240 -424l-39 19l86 184q-31 2 -52.5 24.5t-21.5 54.5q0 33 23.5 56t52.5 23q31 0 53 -23.5t22 -55.5v-79z" />
    <glyph glyph-name="kcommaaccent" unicode="&#x137;" 
d="M144 0q-15 0 -25.5 11t-10.5 27v663q0 15 10.5 26.5t25.5 11.5t25.5 -11.5t10.5 -26.5v-471l266 253q11 10 25 10q15 0 25.5 -11t10.5 -27q0 -17 -11 -28l-157 -149l171 -216q8 -11 8 -24q0 -17 -11 -27.5t-25 -10.5q-17 0 -28 14l-169 213l-105 -100v-89
q0 -17 -11 -27.5t-25 -10.5zM240 -424l-39 19l86 184q-31 2 -52.5 24.5t-21.5 54.5q0 33 23.5 56t52.5 23q31 0 53 -23.5t22 -55.5v-79z" />
    <glyph glyph-name="Lacute" unicode="&#x139;" 
d="M129 798q-14 0 -24.5 11t-10.5 26q0 13 10 22l89 95q10 13 25 13q14 0 25.5 -11.5t11.5 -26.5q0 -13 -10 -23l-89 -95q-11 -11 -27 -11zM131 0q-14 0 -25 11t-11 27v664q0 15 11 26t25 11q15 0 26 -11t11 -26v-627h327q14 0 25 -11t11 -26q0 -16 -11 -27t-25 -11h-364z
" />
    <glyph glyph-name="lacute" unicode="&#x13a;" 
d="M212 798q-14 0 -24.5 11t-10.5 26q0 13 10 22l89 95q10 13 25 13q14 0 25.5 -11.5t11.5 -26.5q0 -13 -10 -23l-89 -95q-11 -11 -27 -11zM349 -1q-70 0 -121 52t-51 124v488h-115q-15 0 -26 10.5t-11 27.5q0 18 11 28t26 10h152q15 0 26 -10.5t11 -27.5v-526
q0 -43 29.5 -71.5t68.5 -28.5q40 0 69 29.5t29 70.5q0 16 10.5 27t26.5 11q15 0 26 -10.5t11 -27.5q0 -72 -50.5 -124t-121.5 -52z" />
    <glyph glyph-name="Lcommaaccent" unicode="&#x13b;" 
d="M131 0q-14 0 -25 11t-11 27v664q0 15 11 26t25 11q15 0 26 -11t11 -26v-627h327q14 0 25 -11t11 -26q0 -16 -11 -27t-25 -11h-364zM240 -424l-39 19l86 184q-31 2 -52.5 24.5t-21.5 54.5q0 33 23.5 56t52.5 23q31 0 53 -23.5t22 -55.5v-79z" />
    <glyph glyph-name="lcommaaccent" unicode="&#x13c;" 
d="M349 -1q-70 0 -121 52t-51 124v488h-115q-15 0 -26 10.5t-11 27.5q0 18 11 28t26 10h152q15 0 26 -10.5t11 -27.5v-526q0 -43 29.5 -71.5t68.5 -28.5q40 0 69 29.5t29 70.5q0 16 10.5 27t26.5 11q15 0 26 -10.5t11 -27.5q0 -72 -50.5 -124t-121.5 -52zM230 -425l-39 19
l86 184q-31 2 -52.5 24.5t-21.5 54.5q0 33 23.5 56t52.5 23q31 0 53 -23.5t22 -55.5v-79z" />
    <glyph glyph-name="Lcaron" unicode="&#x13d;" 
d="M131 0q-14 0 -25 11t-11 27v664q0 15 11 26t25 11q15 0 26 -11t11 -26v-627h327q14 0 25 -11t11 -26q0 -16 -11 -27t-25 -11h-364zM386 543q-13 0 -21.5 8.5t-8.5 21.5v136q0 13 8.5 21.5t21.5 8.5h4q13 0 21.5 -8.5t8.5 -21.5v-136q0 -13 -8.5 -21.5t-21.5 -8.5h-4z" />
    <glyph glyph-name="lcaron" unicode="&#x13e;" 
d="M495 563q-13 0 -21.5 8.5t-8.5 21.5v136q0 13 8.5 21.5t21.5 8.5h4q13 0 21.5 -8.5t8.5 -21.5v-136q0 -13 -8.5 -21.5t-21.5 -8.5h-4zM349 -1q-70 0 -121 52t-51 124v488h-115q-15 0 -26 10.5t-11 27.5q0 18 11 28t26 10h152q15 0 26 -10.5t11 -27.5v-526
q0 -43 29.5 -71.5t68.5 -28.5q40 0 69 29.5t29 70.5q0 16 10.5 27t26.5 11q15 0 26 -10.5t11 -27.5q0 -72 -50.5 -124t-121.5 -52z" />
    <glyph glyph-name="Lslash" unicode="&#x141;" 
d="M520 64q11 -11 11 -26q0 -16 -11 -27t-25 -11h-364q-14 0 -25 11t-11 27v181l-42 -42q-9 -9 -21.5 -8.5t-21.5 8.5q-8 9 -8 21.5t8 21.5l85 85v397q0 15 11 26t25 11q15 0 26 -11t11 -26v-324l186 186q20 20 44 0q8 -9 7.5 -21.5t-8.5 -20.5l-229 -230v-217h327
q14 0 25 -11z" />
    <glyph glyph-name="lslash" unicode="&#x142;" 
d="M484 213q15 0 26 -10.5t11 -27.5q0 -72 -50.5 -124t-121.5 -52q-70 0 -121 52t-51 124v136l-114 -114q-9 -9 -21.5 -8.5t-21.5 8.5q-8 9 -8 21.5t8 21.5l157 157v266h-115q-15 0 -26 10.5t-11 27.5q0 18 11 28t26 10h152q15 0 26 -10.5t11 -27.5v-230l113 113q20 20 44 0
q8 -9 7.5 -21.5t-8.5 -20.5l-156 -156v-211q0 -43 29.5 -71.5t68.5 -28.5q40 0 69 29.5t29 70.5q0 16 10.5 27t26.5 11z" />
    <glyph glyph-name="Nacute" unicode="&#x143;" 
d="M281 798q-14 0 -24.5 11t-10.5 26q0 13 10 22l89 95q10 13 25 13q14 0 25.5 -11.5t11.5 -26.5q0 -13 -10 -23l-89 -95q-11 -11 -27 -11zM101 0q-15 0 -25.5 11t-10.5 27v664q0 16 11 26.5t25 10.5q21 0 31 -19l297 -540v522q0 16 11 26.5t25 10.5t25 -11t11 -26v-664
q0 -17 -11 -27.5t-25 -10.5q-22 0 -31 19l-297 540v-521q0 -17 -11 -27.5t-25 -10.5z" />
    <glyph glyph-name="nacute" unicode="&#x144;" 
d="M291 552q-14 0 -24.5 11t-10.5 26q0 13 10 22l89 95q10 13 25 13q14 0 25.5 -11.5t11.5 -26.5q0 -13 -10 -23l-89 -95q-11 -11 -27 -11zM116 0q-15 0 -26 11t-11 26v419q0 15 10.5 26t26.5 11t26.5 -11t10.5 -26v-52q29 46 65 67.5t93 21.5q94 0 145 -54.5t51 -161.5
v-240q0 -15 -11 -26t-26 -11t-26 11t-11 26v240q0 70 -35 106t-97 36q-71 0 -109.5 -42.5t-38.5 -99.5v-240q0 -15 -11 -26t-26 -11z" />
    <glyph glyph-name="Ncommaaccent" unicode="&#x145;" 
d="M101 0q-15 0 -25.5 11t-10.5 27v664q0 16 11 26.5t25 10.5q21 0 31 -19l297 -540v522q0 16 11 26.5t25 10.5t25 -11t11 -26v-664q0 -17 -11 -27.5t-25 -10.5q-22 0 -31 19l-297 540v-521q0 -17 -11 -27.5t-25 -10.5zM240 -424l-39 19l86 184q-31 2 -52.5 24.5t-21.5 54.5
q0 33 23.5 56t52.5 23q31 0 53 -23.5t22 -55.5v-79z" />
    <glyph glyph-name="ncommaaccent" unicode="&#x146;" 
d="M116 0q-15 0 -26 11t-11 26v419q0 15 10.5 26t26.5 11t26.5 -11t10.5 -26v-52q29 46 65 67.5t93 21.5q94 0 145 -54.5t51 -161.5v-240q0 -15 -11 -26t-26 -11t-26 11t-11 26v240q0 70 -35 106t-97 36q-71 0 -109.5 -42.5t-38.5 -99.5v-240q0 -15 -11 -26t-26 -11z
M250 -424l-39 19l86 184q-31 2 -52.5 24.5t-21.5 54.5q0 33 23.5 56t52.5 23q31 0 53 -23.5t22 -55.5v-79z" />
    <glyph glyph-name="Ncaron" unicode="&#x147;" 
d="M283 800q-13 0 -25 11l-101 101q-13 13 -13 25q0 13 9 22t22 9q12 0 21 -9l87 -87l87 87q9 9 21 9t21.5 -8.5t9.5 -22.5q0 -12 -13 -25l-102 -101q-12 -11 -24 -11zM101 0q-15 0 -25.5 11t-10.5 27v664q0 16 11 26.5t25 10.5q21 0 31 -19l297 -540v522q0 16 11 26.5
t25 10.5t25 -11t11 -26v-664q0 -17 -11 -27.5t-25 -10.5q-22 0 -31 19l-297 540v-521q0 -17 -11 -27.5t-25 -10.5z" />
    <glyph glyph-name="ncaron" unicode="&#x148;" 
d="M293 554q-13 0 -25 11l-101 101q-13 13 -13 25q0 13 9 22t22 9q12 0 21 -9l87 -87l87 87q9 9 21 9t21.5 -8.5t9.5 -22.5q0 -12 -13 -25l-102 -101q-12 -11 -24 -11zM116 0q-15 0 -26 11t-11 26v419q0 15 10.5 26t26.5 11t26.5 -11t10.5 -26v-52q29 46 65 67.5t93 21.5
q94 0 145 -54.5t51 -161.5v-240q0 -15 -11 -26t-26 -11t-26 11t-11 26v240q0 70 -35 106t-97 36q-71 0 -109.5 -42.5t-38.5 -99.5v-240q0 -15 -11 -26t-26 -11z" />
    <glyph glyph-name="Eng" unicode="&#x14a;" 
d="M501 702v-664q0 -6 -1 -9v-83q0 -34 -20 -59t-55 -36q-16 -5 -30.5 5.5t-14.5 27.5q0 27 25 34t25 28v80l-293 533v-521q0 -17 -11 -27.5t-25 -10.5q-15 0 -25.5 11t-10.5 27v664q0 16 11 26.5t25 10.5q21 0 31 -19l297 -540v522q0 16 11 26.5t25 10.5t25 -11t11 -26z
" />
    <glyph glyph-name="eng" unicode="&#x14b;" 
d="M311 493q94 0 145 -54.5t51 -161.5v-240v-91q0 -35 -20 -60.5t-56 -36.5q-18 -5 -33 6t-15 29q0 29 26 36q24 6 24 26v133v198q0 70 -35 106t-97 36q-71 0 -109.5 -42.5t-38.5 -99.5v-240q0 -15 -11 -26t-26 -11t-26 11t-11 26v419q0 15 10.5 26t26.5 11t26.5 -11
t10.5 -26v-52q29 46 65 67.5t93 21.5z" />
    <glyph glyph-name="Omacron" unicode="&#x14c;" 
d="M144 807q-12 0 -20.5 9t-9.5 22q1 12 9.5 21t20.5 9h277q13 0 21.5 -9t9.5 -22q-1 -12 -10 -20.5t-20 -8.5zM283 -3q-88 0 -149 64t-61 154v306q0 91 61.5 154.5t148.5 63.5t148.5 -64t61.5 -154v-306q0 -90 -61.5 -154t-148.5 -64zM283 72q58 0 97.5 43.5t39.5 99.5v306
q0 58 -40 100t-97 42q-58 0 -97.5 -42.5t-39.5 -99.5v-306q0 -59 41 -101t96 -42z" />
    <glyph glyph-name="omacron" unicode="&#x14d;" 
d="M144 561q-12 0 -20.5 9t-9.5 22q1 12 9.5 21t20.5 9h277q13 0 21.5 -9t9.5 -22q-1 -12 -10 -20.5t-20 -8.5zM283 0q-90 0 -152 64t-62 152v61q0 88 62.5 152t151.5 64q91 0 152.5 -64t61.5 -152v-61q0 -90 -63.5 -153t-150.5 -63zM283 74q58 0 99 42t41 100v61
q0 59 -41 100.5t-99 41.5q-60 0 -100 -42t-40 -100v-61q0 -59 42 -100.5t98 -41.5z" />
    <glyph glyph-name="Ohungarumlaut" unicode="&#x150;" 
d="M204 797q-14 0 -24.5 11t-10.5 26q0 13 10 22l89 95q10 13 25 13q14 0 25.5 -11.5t11.5 -26.5q0 -13 -10 -23l-89 -95q-11 -11 -27 -11zM361 797q-14 0 -24.5 11t-10.5 26q0 13 10 22l89 95q10 13 25 13q14 0 25.5 -11.5t11.5 -26.5q0 -13 -10 -23l-89 -95
q-11 -11 -27 -11zM283 -3q-88 0 -149 64t-61 154v306q0 91 61.5 154.5t148.5 63.5t148.5 -64t61.5 -154v-306q0 -90 -61.5 -154t-148.5 -64zM283 72q58 0 97.5 43.5t39.5 99.5v306q0 58 -40 100t-97 42q-58 0 -97.5 -42.5t-39.5 -99.5v-306q0 -59 41 -101t96 -42z" />
    <glyph glyph-name="ohungarumlaut" unicode="&#x151;" 
d="M204 551q-14 0 -24.5 11t-10.5 26q0 13 10 22l89 95q10 13 25 13q14 0 25.5 -11.5t11.5 -26.5q0 -13 -10 -23l-89 -95q-11 -11 -27 -11zM361 551q-14 0 -24.5 11t-10.5 26q0 13 10 22l89 95q10 13 25 13q14 0 25.5 -11.5t11.5 -26.5q0 -13 -10 -23l-89 -95
q-11 -11 -27 -11zM283 0q-90 0 -152 64t-62 152v61q0 88 62.5 152t151.5 64q91 0 152.5 -64t61.5 -152v-61q0 -90 -63.5 -153t-150.5 -63zM283 74q58 0 99 42t41 100v61q0 59 -41 100.5t-99 41.5q-60 0 -100 -42t-40 -100v-61q0 -59 42 -100.5t98 -41.5z" />
    <glyph glyph-name="OE" unicode="&#x152;" 
d="M504 75q14 0 24.5 -11t10.5 -27t-11 -26.5t-24 -10.5h-196q-27 0 -34 28q-39 -28 -88 -28q-66 0 -111 48t-45 115v413q0 68 45.5 115.5t110.5 47.5q49 0 88 -28q7 28 34 28h196q14 0 24.5 -11.5t10.5 -27.5t-10.5 -26.5t-24.5 -10.5h-160v-256h146q15 0 25.5 -11
t10.5 -27t-11 -26.5t-25 -10.5h-146v-257h160zM271 162v415q0 36 -25 62t-60 26t-59.5 -26.5t-24.5 -61.5v-415q0 -36 25.5 -62.5t58.5 -26.5q36 0 60.5 27t24.5 62z" />
    <glyph glyph-name="oe" unicode="&#x153;" 
d="M181 0q-55 0 -96 40t-41 97v219q0 57 41 97t96 40q68 0 108 -40q37 40 96 40q56 0 96.5 -40t40.5 -97v-81q0 -15 -9.5 -25t-25.5 -10h-169v-103q0 -28 19.5 -47.5t47.5 -19.5q39 0 59 35q7 12 21 17q6 2 10 2q23 0 33 -26q2 -8 2 -11q0 -30 -42 -58.5t-83 -28.5
q-59 0 -102 46q-43 -46 -102 -46zM181 70q28 0 47.5 19.5t19.5 47.5v237q0 17 -20 33t-47 16q-28 0 -47.5 -19.5t-19.5 -47.5v-219q0 -28 19.5 -47.5t47.5 -19.5zM318 310h134v46q0 28 -19 47.5t-48 19.5q-28 0 -47.5 -19.5t-19.5 -47.5v-46z" />
    <glyph glyph-name="Racute" unicode="&#x154;" 
d="M277 798q-14 0 -24.5 11t-10.5 26q0 13 10 22l89 95q10 13 25 13q14 0 25.5 -11.5t11.5 -26.5q0 -13 -10 -23l-89 -95q-11 -11 -27 -11zM118 0q-15 0 -25.5 11.5t-10.5 26.5v663q0 15 11 26.5t25 11.5h161q91 0 155 -67t64 -160q0 -73 -40.5 -131t-105.5 -83l165 -239
q7 -11 7 -21q0 -16 -11 -27t-25 -11q-20 0 -30 16l-187 269h-116v-247q0 -16 -10.5 -27t-26.5 -11zM155 361h124q59 0 102.5 44.5t43.5 106.5q0 61 -43 106t-103 45h-124v-302z" />
    <glyph glyph-name="racute" unicode="&#x155;" 
d="M261 552q-14 0 -24.5 11t-10.5 26q0 13 10 22l89 95q10 13 25 13q14 0 25.5 -11.5t11.5 -26.5q0 -13 -10 -23l-89 -95q-11 -11 -27 -11zM102 0q-14 0 -24.5 10.5t-10.5 24.5t10.5 24.5t24.5 10.5h60v388q0 16 10.5 25.5t23.5 9.5q14 0 24.5 -10t10.5 -25v-49
q68 84 144 84q75 0 125 -40q12 -10 14 -23q2 -14 -5.5 -26t-22.5 -14t-27 6q-36 27 -78 27q-64 0 -107 -42t-43 -103v-208h140q14 0 24.5 -10.5t10.5 -24.5t-10.5 -24.5t-24.5 -10.5h-269z" />
    <glyph glyph-name="Rcommaaccent" unicode="&#x156;" 
d="M118 0q-15 0 -25.5 11.5t-10.5 26.5v663q0 15 11 26.5t25 11.5h161q91 0 155 -67t64 -160q0 -73 -40.5 -131t-105.5 -83l165 -239q7 -11 7 -21q0 -16 -11 -27t-25 -11q-20 0 -30 16l-187 269h-116v-247q0 -16 -10.5 -27t-26.5 -11zM155 361h124q59 0 102.5 44.5
t43.5 106.5q0 61 -43 106t-103 45h-124v-302zM240 -424l-39 19l86 184q-31 2 -52.5 24.5t-21.5 54.5q0 33 23.5 56t52.5 23q31 0 53 -23.5t22 -55.5v-79z" />
    <glyph glyph-name="rcommaaccent" unicode="&#x157;" 
d="M102 0q-14 0 -24.5 10.5t-10.5 24.5t10.5 24.5t24.5 10.5h60v388q0 16 10.5 25.5t23.5 9.5q14 0 24.5 -10t10.5 -25v-49q68 84 144 84q75 0 125 -40q12 -10 14 -23q2 -14 -5.5 -26t-22.5 -14t-27 6q-36 27 -78 27q-64 0 -107 -42t-43 -103v-208h140q14 0 24.5 -10.5
t10.5 -24.5t-10.5 -24.5t-24.5 -10.5h-269zM220 -424l-39 19l86 184q-31 2 -52.5 24.5t-21.5 54.5q0 33 23.5 56t52.5 23q31 0 53 -23.5t22 -55.5v-79z" />
    <glyph glyph-name="Rcaron" unicode="&#x158;" 
d="M279 800q-13 0 -25 11l-101 101q-13 13 -13 25q0 13 9 22t22 9q12 0 21 -9l87 -87l87 87q9 9 21 9t21.5 -8.5t9.5 -22.5q0 -12 -13 -25l-102 -101q-12 -11 -24 -11zM118 0q-15 0 -25.5 11.5t-10.5 26.5v663q0 15 11 26.5t25 11.5h161q91 0 155 -67t64 -160
q0 -73 -40.5 -131t-105.5 -83l165 -239q7 -11 7 -21q0 -16 -11 -27t-25 -11q-20 0 -30 16l-187 269h-116v-247q0 -16 -10.5 -27t-26.5 -11zM155 361h124q59 0 102.5 44.5t43.5 106.5q0 61 -43 106t-103 45h-124v-302z" />
    <glyph glyph-name="rcaron" unicode="&#x159;" 
d="M263 554q-13 0 -25 11l-101 101q-13 13 -13 25q0 13 9 22t22 9q12 0 21 -9l87 -87l87 87q9 9 21 9t21.5 -8.5t9.5 -22.5q0 -12 -13 -25l-102 -101q-12 -11 -24 -11zM102 0q-14 0 -24.5 10.5t-10.5 24.5t10.5 24.5t24.5 10.5h60v388q0 16 10.5 25.5t23.5 9.5
q14 0 24.5 -10t10.5 -25v-49q68 84 144 84q75 0 125 -40q12 -10 14 -23q2 -14 -5.5 -26t-22.5 -14t-27 6q-36 27 -78 27q-64 0 -107 -42t-43 -103v-208h140q14 0 24.5 -10.5t10.5 -24.5t-10.5 -24.5t-24.5 -10.5h-269z" />
    <glyph glyph-name="Sacute" unicode="&#x15a;" 
d="M290 798q-14 0 -24.5 11t-10.5 26q0 13 10 22l89 95q10 13 25 13q14 0 25.5 -11.5t11.5 -26.5q0 -13 -10 -23l-89 -95q-11 -11 -27 -11zM292 0q-90 0 -151.5 66.5t-61.5 155.5q0 15 11 26.5t26 11.5q14 0 25 -11.5t11 -26.5q0 -62 41.5 -104t98.5 -42q50 0 83 27.5
t36 71.5q0 49 -32 75l-199 161q-65 52 -65 143q0 76 50.5 130.5t126.5 54.5q91 0 160 -74q35 -42 35 -68q0 -15 -11 -27t-25 -12q-20 0 -33 23q-45 82 -126 82q-46 0 -75.5 -33.5t-29.5 -77.5q0 -51 39 -82l199 -161q58 -48 58 -136q-3 -77 -58.5 -125t-132.5 -48z" />
    <glyph glyph-name="sacute" unicode="&#x15b;" 
d="M281 552q-14 0 -24.5 11t-10.5 26q0 13 10 22l89 95q10 13 25 13q14 0 25.5 -11.5t11.5 -26.5q0 -13 -10 -23l-89 -95q-11 -11 -27 -11zM299 0q-26 0 -58 4t-81 24.5t-77 54.5q-21 26 -2 52q27 27 56 0q36 -37 72 -52.5t82 -15.5q54 0 91.5 19t37.5 58q0 17 -8 29t-19 19
t-31 11.5t-34 6t-39 3.5q-38 3 -59.5 6t-53 11.5t-48 21.5t-29.5 37.5t-13 57.5q0 70 49 108t134 38q119 0 185 -66q13 -13 12 -26q-1 -14 -12 -25t-25 -11q-12 0 -26 12q-58 47 -135 47q-108 0 -108 -68q0 -35 30.5 -50t94.5 -20q31 -2 51 -4.5t53.5 -11.5t53.5 -22.5
t35.5 -39t15.5 -60.5q0 -71 -55 -109t-140 -39z" />
    <glyph glyph-name="Scedilla" unicode="&#x15e;" 
d="M425 309q58 -48 58 -136q-3 -70 -50 -116.5t-116 -55.5l-44 -84q37 0 54 -19.5t17 -50.5q0 -93 -138 -93h-31q-28 0 -28 28t28 28h35q78 0 78 37q0 16 -13 24.5t-25 10t-31 2.5q-12 0 -12 8q0 4 3 10l50 100q-79 13 -130 76t-51 144q0 15 11 26.5t26 11.5q14 0 25 -11.5
t11 -26.5q0 -62 41.5 -104t98.5 -42q50 0 83 27.5t36 71.5q0 49 -32 75l-199 161q-65 52 -65 143q0 76 50.5 130.5t126.5 54.5q91 0 160 -74q35 -42 35 -68q0 -15 -11 -27t-25 -12q-20 0 -33 23q-45 82 -126 82q-46 0 -75.5 -33.5t-29.5 -77.5q0 -51 39 -82z" />
    <glyph glyph-name="scedilla" unicode="&#x15f;" 
d="M494 148q0 -68 -52 -106.5t-134 -41.5l-44 -83q37 0 54 -19.5t17 -50.5q0 -93 -138 -93h-31q-28 0 -28 28t28 28h35q78 0 78 37q0 16 -13 24.5t-25 10t-31 2.5q-12 0 -12 8q0 4 3 10l51 101q-117 16 -169 80q-21 26 -2 52q27 27 56 0q36 -37 72 -52.5t82 -15.5
q54 0 91.5 19t37.5 58q0 17 -8 29t-19 19t-31 11.5t-34 6t-39 3.5q-38 3 -59.5 6t-53 11.5t-48 21.5t-29.5 37.5t-13 57.5q0 70 49 108t134 38q119 0 185 -66q13 -13 12 -26q-1 -14 -12 -25t-25 -11q-12 0 -26 12q-58 47 -135 47q-108 0 -108 -68q0 -35 30.5 -50t94.5 -20
q31 -2 51 -4.5t53.5 -11.5t53.5 -22.5t35.5 -39t15.5 -60.5z" />
    <glyph glyph-name="Scaron" unicode="&#x160;" 
d="M292 799q-13 0 -25 11q-9 6 -29 24q-10 10 -28 30q-5 5 -11.5 12.5t-8.5 9.5q-6 8 -12 12q-8 6 -12 13q-3 3 -9 11q-4 7 -4 14q0 13 9 22q11 9 22 9q12 0 21 -9l87 -87l87 87q9 9 21 9t22 -9q9 -9 9 -22q0 -7 -4 -14q-6 -8 -9 -11q-4 -7 -12 -13q-6 -4 -12 -12
q-4 -4 -20 -22q-18 -20 -28 -30q-20 -18 -30 -24q-12 -11 -24 -11zM292 0q-45 0 -84 18q-37 17 -68 48q-31 36 -44 71q-17 38 -17 85q0 16 11 26q9 12 26 12q14 0 26 -12q10 -12 10 -26q0 -26 10 -56q14 -30 30 -46q20 -20 44 -32q27 -12 56 -12q22 0 43 6q25 9 37 20
q15 12 28 32q10 19 11 41q0 18 -7 41q-10 22 -25 34l-199 161q-24 19 -38 42q-14 25 -20 51q-7 22 -7 50t10 60q18 56 63 91q43 34 104 34q30 0 59 -9q30 -10 55 -26q23 -14 46 -39q21 -25 31 -51q6 -15 2 -28q-5 -16 -19 -23q-14 -8 -27 -2t-21 20q-21 38 -51 59
q-29 23 -75 23q-35 0 -61 -20q-27 -20 -37 -53q-7 -23 -7 -38q0 -14 3 -27q9 -34 36 -55l199 -161q30 -24 45 -61q13 -32 13 -66v-9q-2 -40 -17 -71q-18 -33 -42 -54q-27 -23 -61 -36q-35 -12 -71 -12z" />
    <glyph glyph-name="scaron" unicode="&#x161;" 
d="M283 554q-13 0 -25 11l-101 101q-13 13 -13 25q0 13 9 22t22 9q12 0 21 -9l87 -87l87 87q9 9 21 9t21.5 -8.5t9.5 -22.5q0 -12 -13 -25l-102 -101q-12 -11 -24 -11zM299 0q-26 0 -58 4t-81 24.5t-77 54.5q-21 26 -2 52q27 27 56 0q36 -37 72 -52.5t82 -15.5q54 0 91.5 19
t37.5 58q0 17 -8 29t-19 19t-31 11.5t-34 6t-39 3.5q-38 3 -59.5 6t-53 11.5t-48 21.5t-29.5 37.5t-13 57.5q0 70 49 108t134 38q119 0 185 -66q13 -13 12 -26q-1 -14 -12 -25t-25 -11q-12 0 -26 12q-58 47 -135 47q-108 0 -108 -68q0 -35 30.5 -50t94.5 -20q31 -2 51 -4.5
t53.5 -11.5t53.5 -22.5t35.5 -39t15.5 -60.5q0 -71 -55 -109t-140 -39z" />
    <glyph glyph-name="uni0162" unicode="&#x162;" 
d="M525 739q16 0 26.5 -11t10.5 -27t-10.5 -27t-26.5 -11h-205v-625q0 -8 -3 -16l-50 -95q37 0 54 -19.5t17 -50.5q0 -93 -138 -93h-31q-28 0 -28 28t28 28h35q78 0 78 37q0 16 -13 24.5t-25 10t-31 2.5q-12 0 -12 8q0 4 3 10l51 101q-9 10 -9 25v625h-205q-16 0 -26.5 11
t-10.5 27t10.5 27t26.5 11h484z" />
    <glyph glyph-name="uni0163" unicode="&#x163;" 
d="M523 185q0 -69 -44.5 -121t-110.5 -62l-45 -85q37 0 54 -19.5t17 -50.5q0 -93 -138 -93h-31q-28 0 -28 28t28 28h35q78 0 78 37q0 16 -13 24.5t-25 10t-31 2.5q-12 0 -12 8q0 4 3 10l50 101q-64 11 -106.5 62.5t-42.5 119.5v243h-91q-17 0 -26.5 9.5t-9.5 23.5t10 23
t26 9h91v139q0 16 10.5 27t26.5 11t26.5 -11t10.5 -27v-139h251q17 0 26.5 -9.5t9.5 -22.5q0 -15 -10 -24t-26 -9h-251v-243q0 -45 31 -77.5t76 -32.5t76 32.5t31 77.5q0 16 11 26.5t26 10.5t26 -11t11 -26z" />
    <glyph glyph-name="Tcaron" unicode="&#x164;" 
d="M283 800q-13 0 -25 11l-101 101q-13 13 -13 25q0 13 9 22t22 9q12 0 21 -9l87 -87l87 87q9 9 21 9t21.5 -8.5t9.5 -22.5q0 -12 -13 -25l-102 -101q-12 -11 -24 -11zM283 0q-16 0 -26.5 11t-10.5 27v625h-205q-16 0 -26.5 11t-10.5 27t10.5 27t26.5 11h484q16 0 26.5 -11
t10.5 -27t-10.5 -27t-26.5 -11h-205v-625q0 -16 -10.5 -27t-26.5 -11z" />
    <glyph glyph-name="tcaron" unicode="&#x165;" 
d="M480 563q-13 0 -21.5 8.5t-8.5 21.5v136q0 13 8.5 21.5t21.5 8.5h4q13 0 21.5 -8.5t8.5 -21.5v-136q0 -13 -8.5 -21.5t-21.5 -8.5h-4zM342 0q-76 0 -128.5 54t-52.5 131v243h-91q-17 0 -26.5 9.5t-9.5 23.5t10 23t26 9h91v139q0 16 10.5 27t26.5 11t26.5 -11t10.5 -27
v-139h251q17 0 26.5 -9.5t9.5 -22.5q0 -15 -10 -24t-26 -9h-251v-243q0 -45 31 -77.5t76 -32.5t76 32.5t31 77.5q0 16 11 26.5t26 10.5t26 -11t11 -26q0 -76 -53 -130.5t-128 -54.5z" />
    <glyph glyph-name="Tbar" unicode="&#x166;" 
d="M525 739q16 0 26.5 -11t10.5 -27t-10.5 -27t-26.5 -11h-205v-263h85q12 0 20.5 -9t10.5 -22q-1 -12 -10 -20.5t-21 -8.5h-85v-302q0 -16 -10.5 -27t-26.5 -11t-26.5 11t-10.5 27v301h-87q-12 0 -21 9.5t-9 21.5t9 21t21 9h87v263h-205q-16 0 -26.5 11t-10.5 27t10.5 27
t26.5 11h484z" />
    <glyph glyph-name="tbar" unicode="&#x167;" 
d="M486 222q15 0 26 -11t11 -26q0 -76 -53 -130.5t-128 -54.5q-76 0 -128.5 54t-52.5 131v31h-81q-12 0 -21 9.5t-9 21.5t9 21t21 9h81v151h-91q-17 0 -26.5 9.5t-9.5 23.5t10 23t26 9h91v139q0 16 10.5 27t26.5 11t26.5 -11t10.5 -27v-139h251q17 0 26.5 -9.5t9.5 -22.5
q0 -15 -10 -24t-26 -9h-251v-151h91q12 0 20.5 -9t10.5 -22q-1 -12 -10 -20.5t-21 -8.5h-91v-32q0 -45 31 -77.5t76 -32.5t76 32.5t31 77.5q0 16 11 26.5t26 10.5z" />
    <glyph glyph-name="Utilde" unicode="&#x168;" 
d="M384 872q8 15 26 15q12 0 21 -8.5t9 -21.5q0 -8 -5 -15q-29 -50 -79 -50q-30 0 -74.5 25t-51.5 25q-33 0 -49 -28q-8 -15 -26 -15q-12 0 -21 8.5t-9 21.5q0 7 4 15q34 58 101 58q23 0 67 -25t59 -25t28 20zM283 0q-89 0 -149.5 65t-60.5 154v482q0 15 10.5 26.5
t25.5 11.5t25.5 -11.5t10.5 -26.5v-482q0 -59 40 -101.5t98 -42.5t98 43.5t40 100.5v482q0 15 10.5 26.5t25.5 11.5t25.5 -11.5t10.5 -26.5v-482q0 -92 -61.5 -155.5t-148.5 -63.5z" />
    <glyph glyph-name="utilde" unicode="&#x169;" 
d="M384 626q8 15 26 15q12 0 21 -8.5t9 -21.5q0 -8 -5 -15q-29 -50 -79 -50q-30 0 -74.5 25t-51.5 25q-33 0 -49 -28q-8 -15 -26 -15q-12 0 -21 8.5t-9 21.5q0 7 4 15q34 58 101 58q23 0 67 -25t59 -25t28 20zM258 0q-92 0 -140.5 55t-48.5 161v240q0 15 11 26t26 11t26 -11
t11 -26v-240q0 -70 34.5 -106t99.5 -36t105 42q41 43 41 100v240q0 15 11 26t26 11t26 -11t11 -26v-419q0 -16 -10.5 -26.5t-26.5 -10.5t-26.5 10.5t-10.5 26.5v56q-31 -49 -70 -71t-95 -22z" />
    <glyph glyph-name="Umacron" unicode="&#x16a;" 
d="M144 807q-12 0 -20.5 9t-9.5 22q1 12 9.5 21t20.5 9h277q13 0 21.5 -9t9.5 -22q-1 -12 -10 -20.5t-20 -8.5zM283 0q-89 0 -149.5 65t-60.5 154v482q0 15 10.5 26.5t25.5 11.5t25.5 -11.5t10.5 -26.5v-482q0 -59 40 -101.5t98 -42.5t98 43.5t40 100.5v482q0 15 10.5 26.5
t25.5 11.5t25.5 -11.5t10.5 -26.5v-482q0 -92 -61.5 -155.5t-148.5 -63.5z" />
    <glyph glyph-name="umacron" unicode="&#x16b;" 
d="M144 561q-12 0 -20.5 9t-9.5 22q1 12 9.5 21t20.5 9h277q13 0 21.5 -9t9.5 -22q-1 -12 -10 -20.5t-20 -8.5zM258 0q-92 0 -140.5 55t-48.5 161v240q0 15 11 26t26 11t26 -11t11 -26v-240q0 -70 34.5 -106t99.5 -36t105 42q41 43 41 100v240q0 15 11 26t26 11t26 -11
t11 -26v-419q0 -16 -10.5 -26.5t-26.5 -10.5t-26.5 10.5t-10.5 26.5v56q-31 -49 -70 -71t-95 -22z" />
    <glyph glyph-name="Uring" unicode="&#x16e;" 
d="M283 800q-38 0 -65.5 27t-27.5 66q0 38 27 65.5t66 27.5q38 0 65.5 -27t27.5 -66q0 -38 -27 -65.5t-66 -27.5zM283 846q20 0 33.5 13.5t13.5 33.5t-13.5 33.5t-33.5 13.5t-33.5 -13.5t-13.5 -33.5t13.5 -33.5t33.5 -13.5zM283 0q-89 0 -149.5 65t-60.5 154v482
q0 15 10.5 26.5t25.5 11.5t25.5 -11.5t10.5 -26.5v-482q0 -59 40 -101.5t98 -42.5t98 43.5t40 100.5v482q0 15 10.5 26.5t25.5 11.5t25.5 -11.5t10.5 -26.5v-482q0 -92 -61.5 -155.5t-148.5 -63.5z" />
    <glyph glyph-name="uring" unicode="&#x16f;" 
d="M283 554q-38 0 -65.5 27t-27.5 66q0 38 27 65.5t66 27.5q38 0 65.5 -27t27.5 -66q0 -38 -27 -65.5t-66 -27.5zM283 600q20 0 33.5 13.5t13.5 33.5t-13.5 33.5t-33.5 13.5t-33.5 -13.5t-13.5 -33.5t13.5 -33.5t33.5 -13.5zM258 0q-92 0 -140.5 55t-48.5 161v240
q0 15 11 26t26 11t26 -11t11 -26v-240q0 -70 34.5 -106t99.5 -36t105 42q41 43 41 100v240q0 15 11 26t26 11t26 -11t11 -26v-419q0 -16 -10.5 -26.5t-26.5 -10.5t-26.5 10.5t-10.5 26.5v56q-31 -49 -70 -71t-95 -22z" />
    <glyph glyph-name="Uhungarumlaut" unicode="&#x170;" 
d="M204 797q-14 0 -24.5 11t-10.5 26q0 13 10 22l89 95q10 13 25 13q14 0 25.5 -11.5t11.5 -26.5q0 -13 -10 -23l-89 -95q-11 -11 -27 -11zM361 797q-14 0 -24.5 11t-10.5 26q0 13 10 22l89 95q10 13 25 13q14 0 25.5 -11.5t11.5 -26.5q0 -13 -10 -23l-89 -95
q-11 -11 -27 -11zM283 0q-89 0 -149.5 65t-60.5 154v482q0 15 10.5 26.5t25.5 11.5t25.5 -11.5t10.5 -26.5v-482q0 -59 40 -101.5t98 -42.5t98 43.5t40 100.5v482q0 15 10.5 26.5t25.5 11.5t25.5 -11.5t10.5 -26.5v-482q0 -92 -61.5 -155.5t-148.5 -63.5z" />
    <glyph glyph-name="uhungarumlaut" unicode="&#x171;" 
d="M204 551q-14 0 -24.5 11t-10.5 26q0 13 10 22l89 95q10 13 25 13q14 0 25.5 -11.5t11.5 -26.5q0 -13 -10 -23l-89 -95q-11 -11 -27 -11zM361 551q-14 0 -24.5 11t-10.5 26q0 13 10 22l89 95q10 13 25 13q14 0 25.5 -11.5t11.5 -26.5q0 -13 -10 -23l-89 -95
q-11 -11 -27 -11zM258 0q-92 0 -140.5 55t-48.5 161v240q0 15 11 26t26 11t26 -11t11 -26v-240q0 -70 34.5 -106t99.5 -36t105 42q41 43 41 100v240q0 15 11 26t26 11t26 -11t11 -26v-419q0 -16 -10.5 -26.5t-26.5 -10.5t-26.5 10.5t-10.5 26.5v56q-31 -49 -70 -71t-95 -22z
" />
    <glyph glyph-name="Uogonek" unicode="&#x172;" 
d="M493 219q0 -60 -28.5 -111t-76.5 -79q-62 -92 -62 -140q0 -43 44 -43q10 0 23.5 4.5t15.5 4.5q11 0 18.5 -7.5t7.5 -18.5q0 -17 -16 -24q-23 -11 -51 -11q-42 0 -66.5 24t-24.5 64q0 46 41 121q-16 -3 -35 -3q-89 0 -149.5 65t-60.5 154v482q0 15 10.5 26.5t25.5 11.5
t25.5 -11.5t10.5 -26.5v-482q0 -59 40 -101.5t98 -42.5t98 43.5t40 100.5v482q0 15 10.5 26.5t25.5 11.5t25.5 -11.5t10.5 -26.5v-482z" />
    <glyph glyph-name="uogonek" unicode="&#x173;" 
d="M508 -152q10 0 18 -8t8 -18q0 -17 -16 -24q-23 -11 -51 -11q-42 0 -66.5 24t-24.5 64q0 52 53 141q-6 9 -6 21v56q-31 -49 -70 -71t-95 -22q-92 0 -140.5 55t-48.5 161v240q0 15 11 26t26 11t26 -11t11 -26v-240q0 -70 34.5 -106t99.5 -36t105 42q41 43 41 100v240
q0 15 11 26t26 11t26 -11t11 -26v-419q0 -26 -23 -34q-49 -79 -49 -121q0 -43 44 -43q10 0 23.5 4.5t15.5 4.5z" />
    <glyph glyph-name="Wcircumflex" unicode="&#x174;" 
d="M175 790q-13 0 -22 9t-9 22q0 12 13 25l101 101q12 11 25 11q12 0 24 -11l102 -101q13 -13 13 -25q0 -14 -9.5 -22.5t-21.5 -8.5t-21 9l-87 87l-87 -87q-9 -9 -21 -9zM78 0q-16 0 -26.5 11t-10.5 27v663q0 15 11 26.5t26 11.5t25.5 -11.5t10.5 -26.5v-499l136 287
q10 22 33 22t33 -22l136 -287v499q0 15 10.5 26.5t25.5 11.5q16 0 26.5 -12t10.5 -26v-663q0 -16 -10.5 -27t-26.5 -11q-22 0 -33 21l-172 366l-172 -366q-11 -21 -33 -21z" />
    <glyph glyph-name="wcircumflex" unicode="&#x175;" 
d="M175 544q-13 0 -22 9t-9 22q0 12 13 25l101 101q12 11 25 11q12 0 24 -11l102 -101q13 -13 13 -25q0 -14 -9.5 -22.5t-21.5 -8.5t-21 9l-87 87l-87 -87q-9 -9 -21 -9zM149 0q-13 0 -24.5 8t-13.5 21l-70 424q-2 14 6.5 26.5t22.5 13.5q14 2 26.5 -6.5t13.5 -22.5l53 -341
l89 187q9 18 31 18t31 -18l89 -187l53 341q1 13 13.5 22t26.5 7q13 -1 22 -13.5t7 -26.5l-70 -424q-1 -14 -11.5 -21.5t-24.5 -7.5q-21 0 -30 19l-106 200l-106 -200q-10 -19 -28 -19z" />
    <glyph glyph-name="Ycircumflex" unicode="&#x176;" 
d="M175 790q-13 0 -22 9t-9 22q0 12 13 25l101 101q12 11 25 11q12 0 24 -11l102 -101q13 -13 13 -25q0 -14 -9.5 -22.5t-21.5 -8.5t-21 9l-87 87l-87 -87q-9 -9 -21 -9zM283 0q-15 0 -25.5 11t-10.5 27v322l-163 323q-5 12 -5 18q0 15 11 26.5t25 11.5q21 0 32 -21
l136 -268l136 268q11 21 32 21q14 0 25 -11.5t11 -26.5q0 -6 -5 -18l-163 -323v-322q0 -17 -11 -27.5t-25 -10.5z" />
    <glyph glyph-name="ycircumflex" unicode="&#x177;" 
d="M195 544q-13 0 -22 9t-9 22q0 12 13 25l101 101q12 11 25 11q12 0 24 -11l102 -101q13 -13 13 -25q0 -14 -9.5 -22.5t-21.5 -8.5t-21 9l-87 87l-87 -87q-9 -9 -21 -9zM213 -230q-15 0 -26 10.5t-11 26.5q0 7 3 15l84 204l-171 415q-3 8 -3 14q0 16 12.5 27.5t25.5 11.5
q24 0 33 -24l143 -348l143 348q9 24 33 24q15 0 26.5 -12t11.5 -27q0 -6 -3 -14l-267 -648q-10 -23 -34 -23z" />
    <glyph glyph-name="Ydieresis" unicode="&#x178;" 
d="M184 800q-26 0 -43 19t-17 43q0 26 17.5 44.5t42.5 18.5q27 0 44 -19t17 -44q0 -26 -18 -44t-43 -18zM382 800q-25 0 -43 18t-18 44t17.5 44.5t43.5 18.5q27 0 43.5 -19t16.5 -44t-17.5 -43.5t-42.5 -18.5zM283 0q-15 0 -25.5 11t-10.5 27v322l-163 323q-5 12 -5 18
q0 15 11 26.5t25 11.5q21 0 32 -21l136 -268l136 268q11 21 32 21q14 0 25 -11.5t11 -26.5q0 -6 -5 -18l-163 -323v-322q0 -17 -11 -27.5t-25 -10.5z" />
    <glyph glyph-name="Zacute" unicode="&#x179;" 
d="M281 798q-14 0 -24.5 11t-10.5 26q0 13 10 22l89 95q10 13 25 13q14 0 25.5 -11.5t11.5 -26.5q0 -13 -10 -23l-89 -95q-11 -11 -27 -11zM90 0q-15 0 -25.5 11.5t-10.5 26.5q0 7 5 19l352 606h-281q-16 0 -26.5 11t-10.5 27q0 15 11 26.5t26 11.5h346q14 0 25 -11.5
t11 -26.5q0 -8 -5 -20l-352 -606h321q14 0 25 -11t11 -26q0 -16 -11 -27t-25 -11h-386z" />
    <glyph glyph-name="zacute" unicode="&#x17a;" 
d="M282 552q-14 0 -24.5 11t-10.5 26q0 13 10 22l89 95q10 13 25 13q14 0 25.5 -11.5t11.5 -26.5q0 -13 -10 -23l-89 -95q-11 -11 -27 -11zM106 0q-15 0 -26 11t-11 25q0 16 9 25l304 358h-276q-15 0 -26 11t-11 26t10.5 26t26.5 11h356q16 0 26.5 -11t10.5 -26
q0 -14 -9 -24l-304 -358h304q15 0 26 -11t11 -26t-11 -26t-26 -11h-384z" />
    <glyph glyph-name="Zdotaccent" unicode="&#x17b;" 
d="M283 799q-25 0 -43 18t-18 44t17.5 44.5t43.5 18.5q27 0 43.5 -19t16.5 -44t-17.5 -43.5t-42.5 -18.5zM90 0q-15 0 -25.5 11.5t-10.5 26.5q0 7 5 19l352 606h-281q-16 0 -26.5 11t-10.5 27q0 15 11 26.5t26 11.5h346q14 0 25 -11.5t11 -26.5q0 -8 -5 -20l-352 -606h321
q14 0 25 -11t11 -26q0 -16 -11 -27t-25 -11h-386z" />
    <glyph glyph-name="zdotaccent" unicode="&#x17c;" 
d="M284 553q-25 0 -43 18t-18 44t17.5 44.5t43.5 18.5q27 0 43.5 -19t16.5 -44t-17.5 -43.5t-42.5 -18.5zM106 0q-15 0 -26 11t-11 25q0 16 9 25l304 358h-276q-15 0 -26 11t-11 26t10.5 26t26.5 11h356q16 0 26.5 -11t10.5 -26q0 -14 -9 -24l-304 -358h304q15 0 26 -11
t11 -26t-11 -26t-26 -11h-384z" />
    <glyph glyph-name="Zcaron" unicode="&#x17d;" 
d="M283 800q-13 0 -25 11l-101 101q-13 13 -13 25q0 13 9 22t22 9q12 0 21 -9l87 -87l87 87q9 9 21 9t21.5 -8.5t9.5 -22.5q0 -12 -13 -25l-102 -101q-12 -11 -24 -11zM90 0q-15 0 -25.5 11.5t-10.5 26.5q0 7 5 19l352 606h-281q-16 0 -26.5 11t-10.5 27q0 15 11 26.5
t26 11.5h346q14 0 25 -11.5t11 -26.5q0 -8 -5 -20l-352 -606h321q14 0 25 -11t11 -26q0 -16 -11 -27t-25 -11h-386z" />
    <glyph glyph-name="zcaron" unicode="&#x17e;" 
d="M284 554q-13 0 -25 11l-101 101q-13 13 -13 25q0 13 9 22t22 9q12 0 21 -9l87 -87l87 87q9 9 21 9t21.5 -8.5t9.5 -22.5q0 -12 -13 -25l-102 -101q-12 -11 -24 -11zM106 0q-15 0 -26 11t-11 25q0 16 9 25l304 358h-276q-15 0 -26 11t-11 26t10.5 26t26.5 11h356
q16 0 26.5 -11t10.5 -26q0 -14 -9 -24l-304 -358h304q15 0 26 -11t11 -26t-11 -26t-26 -11h-384z" />
    <glyph glyph-name="florin" unicode="&#x192;" 
d="M63 -155q-17 0 -29 13q-13 12 -13 29q0 18 13 31q12 12 29 12q29 0 53 10q24 9 45 26q20 17 34 40q15 25 19 51l37 208h-10q-18 0 -30 13q-12 12 -12 30q0 16 12 30q12 12 30 12h26l14 76q5 29 19 50q12 24 33 40q18 16 45 26q24 10 52 10h73q17 0 29 -12q13 -13 13 -30
q0 -18 -13 -30q-12 -13 -29 -13h-73q-25 0 -44 -16q-19 -17 -23 -40l-11 -61h101q17 0 29 -12q13 -13 13 -30q0 -18 -13 -30q-12 -13 -29 -13h-116l-41 -223q-7 -43 -30 -79q-22 -37 -52 -63q-34 -28 -70 -40q-38 -15 -81 -15z" />
    <glyph glyph-name="Ohorn" unicode="&#x1a0;" 
d="M510 796q13 0 22 -9.5t8 -22.5q-8 -105 -74 -137q27 -49 27 -106v-306q0 -90 -61.5 -154t-148.5 -64q-88 0 -149 64t-61 154v306q0 91 61.5 154.5t148.5 63.5q94 0 156 -73q37 22 42 101q1 12 9 20.5t20 8.5zM420 215v306q0 58 -40 100t-97 42q-58 0 -97.5 -42.5
t-39.5 -99.5v-306q0 -59 41 -101t96 -42q58 0 97.5 43.5t39.5 99.5z" />
    <glyph glyph-name="ohorn" unicode="&#x1a1;" 
d="M526 535q-6 -100 -68 -134q39 -55 39 -124v-61q0 -90 -63.5 -153t-150.5 -63q-90 0 -152 64t-62 152v61q0 88 62.5 152t151.5 64q83 0 143 -55q36 22 41 100q1 12 9 20.5t20 8.5q13 0 22 -9.5t8 -22.5zM423 216v61q0 59 -41 100.5t-99 41.5q-60 0 -100 -42t-40 -100v-61
q0 -59 42 -100.5t98 -41.5q58 0 99 42t41 100z" />
    <glyph glyph-name="Uhorn" unicode="&#x1af;" 
d="M559 741q13 0 22 -9.5t8 -22.5q-7 -115 -90 -143q-2 -1 -6 -1v-346q0 -92 -61.5 -155.5t-148.5 -63.5q-89 0 -149.5 65t-60.5 154v482q0 15 10.5 26.5t25.5 11.5t25.5 -11.5t10.5 -26.5v-482q0 -59 40 -101.5t98 -42.5t98 43.5t40 100.5v482q0 15 10.5 26.5t25.5 11.5
t25.5 -11.5t10.5 -26.5v-87q32 24 37 98q1 12 9 20.5t20 8.5z" />
    <glyph glyph-name="uhorn" unicode="&#x1b0;" 
d="M568 544q13 0 22 -9.5t8 -22.5q-7 -115 -90 -143q-8 -2 -11 -1v-331q0 -16 -10.5 -26.5t-26.5 -10.5t-26.5 10.5t-10.5 26.5v56q-31 -49 -70 -71t-95 -22q-92 0 -140.5 55t-48.5 161v240q0 15 11 26t26 11t26 -11t11 -26v-240q0 -70 34.5 -106t99.5 -36t105 42
q41 43 41 100v240q0 15 11 26t26 11t26 -11t11 -26v-42q37 22 42 101q1 12 9 20.5t20 8.5z" />
    <glyph glyph-name="uni01CD" unicode="&#x1cd;" 
d="M283 800q-13 0 -25 11l-101 101q-13 13 -13 25q0 13 9 22t22 9q12 0 21 -9l87 -87l87 87q9 9 21 9t21.5 -8.5t9.5 -22.5q0 -12 -13 -25l-102 -101q-12 -11 -24 -11zM38 0q-15 0 -26 10.5t-11 27.5l248 678q9 23 34 23q26 0 34 -23l248 -678q0 -18 -11 -28t-26 -10
q-24 0 -34 24l-62 167h-298l-62 -167q-11 -24 -34 -24zM162 266h242l-121 328z" />
    <glyph glyph-name="uni01CE" unicode="&#x1ce;" 
d="M288 554q-13 0 -25 11l-101 101q-13 13 -13 25q0 13 9 22t22 9q12 0 21 -9l87 -87l87 87q9 9 21 9t21.5 -8.5t9.5 -22.5q0 -12 -13 -25l-102 -101q-12 -11 -24 -11zM228 0q-77 0 -120.5 40t-43.5 104q0 65 45 105t118 41q152 1 171 12q15 14 15 32q0 35 -36.5 62
t-90.5 27q-41 0 -75.5 -18t-52.5 -52q-10 -21 -31 -21q-36 0 -36 35q0 47 66 86.5t135 39.5q72 0 131 -45.5t59 -113.5v-299q0 -16 -10.5 -25.5t-24.5 -9.5t-24 10t-10 25v46q-32 -42 -82.5 -61.5t-102.5 -19.5zM242 71q76 0 123.5 35t47.5 100v47q-24 -13 -57 -16t-118 -5
q-102 -2 -102 -83q0 -78 106 -78z" />
    <glyph glyph-name="uni01CF" unicode="&#x1cf;" 
d="M283 800q-13 0 -25 11l-101 101q-13 13 -13 25q0 13 9 22t22 9q12 0 21 -9l87 -87l87 87q9 9 21 9t21.5 -8.5t9.5 -22.5q0 -12 -13 -25l-102 -101q-12 -11 -24 -11zM126 0q-15 0 -25.5 11t-10.5 27q0 17 11 27t25 10h121v589h-121q-15 0 -25.5 11t-10.5 27q0 17 11 27
t25 10h314q15 0 25.5 -10.5t10.5 -26.5q0 -17 -11 -27.5t-25 -10.5h-121v-589h121q15 0 25.5 -10.5t10.5 -26.5t-10 -27t-26 -11h-314z" />
    <glyph glyph-name="uni01D0" unicode="&#x1d0;" 
d="M303 554q-13 0 -25 11l-101 101q-13 13 -13 25q0 13 9 22t22 9q12 0 21 -9l87 -87l87 87q9 9 21 9t21.5 -8.5t9.5 -22.5q0 -12 -13 -25l-102 -101q-12 -11 -24 -11zM96 0q-16 0 -26.5 11t-10.5 27q0 14 11 26t26 12h170v341h-170q-16 0 -26.5 11t-10.5 27q0 14 11 26
t26 12h207q15 0 26 -11.5t11 -26.5v-379h140q15 0 26 -11.5t11 -26.5q0 -16 -10.5 -27t-26.5 -11h-384z" />
    <glyph glyph-name="uni01D1" unicode="&#x1d1;" 
d="M283 800q-13 0 -25 11l-101 101q-13 13 -13 25q0 13 9 22t22 9q12 0 21 -9l87 -87l87 87q9 9 21 9t21.5 -8.5t9.5 -22.5q0 -12 -13 -25l-102 -101q-12 -11 -24 -11zM283 -3q-88 0 -149 64t-61 154v306q0 91 61.5 154.5t148.5 63.5t148.5 -64t61.5 -154v-306
q0 -90 -61.5 -154t-148.5 -64zM283 72q58 0 97.5 43.5t39.5 99.5v306q0 58 -40 100t-97 42q-58 0 -97.5 -42.5t-39.5 -99.5v-306q0 -59 41 -101t96 -42z" />
    <glyph glyph-name="uni01D2" unicode="&#x1d2;" 
d="M283 554q-13 0 -25 11l-101 101q-13 13 -13 25q0 13 9 22t22 9q12 0 21 -9l87 -87l87 87q9 9 21 9t21.5 -8.5t9.5 -22.5q0 -12 -13 -25l-102 -101q-12 -11 -24 -11zM283 0q-90 0 -152 64t-62 152v61q0 88 62.5 152t151.5 64q91 0 152.5 -64t61.5 -152v-61
q0 -90 -63.5 -153t-150.5 -63zM283 74q58 0 99 42t41 100v61q0 59 -41 100.5t-99 41.5q-60 0 -100 -42t-40 -100v-61q0 -59 42 -100.5t98 -41.5z" />
    <glyph glyph-name="uni01D3" unicode="&#x1d3;" 
d="M283 800q-13 0 -25 11l-101 101q-13 13 -13 25q0 13 9 22t22 9q12 0 21 -9l87 -87l87 87q9 9 21 9t21.5 -8.5t9.5 -22.5q0 -12 -13 -25l-102 -101q-12 -11 -24 -11zM283 0q-89 0 -149.5 65t-60.5 154v482q0 15 10.5 26.5t25.5 11.5t25.5 -11.5t10.5 -26.5v-482
q0 -59 40 -101.5t98 -42.5t98 43.5t40 100.5v482q0 15 10.5 26.5t25.5 11.5t25.5 -11.5t10.5 -26.5v-482q0 -92 -61.5 -155.5t-148.5 -63.5z" />
    <glyph glyph-name="uni01D4" unicode="&#x1d4;" 
d="M283 554q-13 0 -25 11l-101 101q-13 13 -13 25q0 13 9 22t22 9q12 0 21 -9l87 -87l87 87q9 9 21 9t21.5 -8.5t9.5 -22.5q0 -12 -13 -25l-102 -101q-12 -11 -24 -11zM258 0q-92 0 -140.5 55t-48.5 161v240q0 15 11 26t26 11t26 -11t11 -26v-240q0 -70 34.5 -106t99.5 -36
t105 42q41 43 41 100v240q0 15 11 26t26 11t26 -11t11 -26v-419q0 -16 -10.5 -26.5t-26.5 -10.5t-26.5 10.5t-10.5 26.5v56q-31 -49 -70 -71t-95 -22z" />
    <glyph glyph-name="uni01D5" unicode="&#x1d5;" 
d="M144 993q-12 0 -20.5 9t-9.5 22q1 12 9.5 21t20.5 9h277q13 0 21.5 -9t9.5 -22q-1 -12 -10 -20.5t-20 -8.5zM184 800q-26 0 -43 19t-17 43q0 26 17.5 44.5t42.5 18.5q27 0 44 -19t17 -44q0 -26 -18 -44t-43 -18zM382 800q-25 0 -43 18t-18 44t17.5 44.5t43.5 18.5
q27 0 43.5 -19t16.5 -44t-17.5 -43.5t-42.5 -18.5zM283 0q-89 0 -149.5 65t-60.5 154v482q0 15 10.5 26.5t25.5 11.5t25.5 -11.5t10.5 -26.5v-482q0 -59 40 -101.5t98 -42.5t98 43.5t40 100.5v482q0 15 10.5 26.5t25.5 11.5t25.5 -11.5t10.5 -26.5v-482q0 -92 -61.5 -155.5
t-148.5 -63.5z" />
    <glyph glyph-name="uni01D6" unicode="&#x1d6;" 
d="M144 747q-12 0 -20.5 9t-9.5 22q1 12 9.5 21t20.5 9h277q13 0 21.5 -9t9.5 -22q-1 -12 -10 -20.5t-20 -8.5zM184 554q-26 0 -43 19t-17 43q0 26 17.5 44.5t42.5 18.5q27 0 44 -19t17 -44q0 -26 -18 -44t-43 -18zM382 554q-25 0 -43 18t-18 44t17.5 44.5t43.5 18.5
q27 0 43.5 -19t16.5 -44t-17.5 -43.5t-42.5 -18.5zM258 0q-92 0 -140.5 55t-48.5 161v240q0 15 11 26t26 11t26 -11t11 -26v-240q0 -70 34.5 -106t99.5 -36t105 42q41 43 41 100v240q0 15 11 26t26 11t26 -11t11 -26v-419q0 -16 -10.5 -26.5t-26.5 -10.5t-26.5 10.5
t-10.5 26.5v56q-31 -49 -70 -71t-95 -22z" />
    <glyph glyph-name="uni01D7" unicode="&#x1d7;" 
d="M281 984q-14 0 -24.5 11t-10.5 26q0 13 10 22l89 95q10 13 25 13q14 0 25.5 -11.5t11.5 -26.5q0 -13 -10 -23l-89 -95q-11 -11 -27 -11zM184 800q-26 0 -43 19t-17 43q0 26 17.5 44.5t42.5 18.5q27 0 44 -19t17 -44q0 -26 -18 -44t-43 -18zM382 800q-25 0 -43 18t-18 44
t17.5 44.5t43.5 18.5q27 0 43.5 -19t16.5 -44t-17.5 -43.5t-42.5 -18.5zM283 0q-89 0 -149.5 65t-60.5 154v482q0 15 10.5 26.5t25.5 11.5t25.5 -11.5t10.5 -26.5v-482q0 -59 40 -101.5t98 -42.5t98 43.5t40 100.5v482q0 15 10.5 26.5t25.5 11.5t25.5 -11.5t10.5 -26.5v-482
q0 -92 -61.5 -155.5t-148.5 -63.5z" />
    <glyph glyph-name="uni01D8" unicode="&#x1d8;" 
d="M281 738q-14 0 -24.5 11t-10.5 26q0 13 10 22l89 95q10 13 25 13q14 0 25.5 -11.5t11.5 -26.5q0 -13 -10 -23l-89 -95q-11 -11 -27 -11zM184 554q-26 0 -43 19t-17 43q0 26 17.5 44.5t42.5 18.5q27 0 44 -19t17 -44q0 -26 -18 -44t-43 -18zM382 554q-25 0 -43 18t-18 44
t17.5 44.5t43.5 18.5q27 0 43.5 -19t16.5 -44t-17.5 -43.5t-42.5 -18.5zM258 0q-92 0 -140.5 55t-48.5 161v240q0 15 11 26t26 11t26 -11t11 -26v-240q0 -70 34.5 -106t99.5 -36t105 42q41 43 41 100v240q0 15 11 26t26 11t26 -11t11 -26v-419q0 -16 -10.5 -26.5
t-26.5 -10.5t-26.5 10.5t-10.5 26.5v56q-31 -49 -70 -71t-95 -22z" />
    <glyph glyph-name="uni01D9" unicode="&#x1d9;" 
d="M283 986q-13 0 -25 11l-101 101q-13 13 -13 25q0 13 9 22t22 9q12 0 21 -9l87 -87l87 87q9 9 21 9t21.5 -8.5t9.5 -22.5q0 -12 -13 -25l-102 -101q-12 -11 -24 -11zM184 800q-26 0 -43 19t-17 43q0 26 17.5 44.5t42.5 18.5q27 0 44 -19t17 -44q0 -26 -18 -44t-43 -18z
M382 800q-25 0 -43 18t-18 44t17.5 44.5t43.5 18.5q27 0 43.5 -19t16.5 -44t-17.5 -43.5t-42.5 -18.5zM283 0q-89 0 -149.5 65t-60.5 154v482q0 15 10.5 26.5t25.5 11.5t25.5 -11.5t10.5 -26.5v-482q0 -59 40 -101.5t98 -42.5t98 43.5t40 100.5v482q0 15 10.5 26.5
t25.5 11.5t25.5 -11.5t10.5 -26.5v-482q0 -92 -61.5 -155.5t-148.5 -63.5z" />
    <glyph glyph-name="uni01DA" unicode="&#x1da;" 
d="M283 740q-13 0 -25 11l-101 101q-13 13 -13 25q0 13 9 22t22 9q12 0 21 -9l87 -87l87 87q9 9 21 9t21.5 -8.5t9.5 -22.5q0 -12 -13 -25l-102 -101q-12 -11 -24 -11zM184 554q-26 0 -43 19t-17 43q0 26 17.5 44.5t42.5 18.5q27 0 44 -19t17 -44q0 -26 -18 -44t-43 -18z
M382 554q-25 0 -43 18t-18 44t17.5 44.5t43.5 18.5q27 0 43.5 -19t16.5 -44t-17.5 -43.5t-42.5 -18.5zM258 0q-92 0 -140.5 55t-48.5 161v240q0 15 11 26t26 11t26 -11t11 -26v-240q0 -70 34.5 -106t99.5 -36t105 42q41 43 41 100v240q0 15 11 26t26 11t26 -11t11 -26v-419
q0 -16 -10.5 -26.5t-26.5 -10.5t-26.5 10.5t-10.5 26.5v56q-31 -49 -70 -71t-95 -22z" />
    <glyph glyph-name="uni01DB" unicode="&#x1db;" 
d="M283 984q-16 0 -27 11l-89 95q-10 10 -10 23q0 15 11.5 26.5t25.5 11.5q15 0 25 -13l89 -95q10 -9 10 -22q0 -15 -10.5 -26t-24.5 -11zM184 800q-26 0 -43 19t-17 43q0 26 17.5 44.5t42.5 18.5q27 0 44 -19t17 -44q0 -26 -18 -44t-43 -18zM382 800q-25 0 -43 18t-18 44
t17.5 44.5t43.5 18.5q27 0 43.5 -19t16.5 -44t-17.5 -43.5t-42.5 -18.5zM283 0q-89 0 -149.5 65t-60.5 154v482q0 15 10.5 26.5t25.5 11.5t25.5 -11.5t10.5 -26.5v-482q0 -59 40 -101.5t98 -42.5t98 43.5t40 100.5v482q0 15 10.5 26.5t25.5 11.5t25.5 -11.5t10.5 -26.5v-482
q0 -92 -61.5 -155.5t-148.5 -63.5z" />
    <glyph glyph-name="uni01DC" unicode="&#x1dc;" 
d="M283 738q-16 0 -27 11l-89 95q-10 10 -10 23q0 15 11.5 26.5t25.5 11.5q15 0 25 -13l89 -95q10 -9 10 -22q0 -15 -10.5 -26t-24.5 -11zM184 554q-26 0 -43 19t-17 43q0 26 17.5 44.5t42.5 18.5q27 0 44 -19t17 -44q0 -26 -18 -44t-43 -18zM382 554q-25 0 -43 18t-18 44
t17.5 44.5t43.5 18.5q27 0 43.5 -19t16.5 -44t-17.5 -43.5t-42.5 -18.5zM258 0q-92 0 -140.5 55t-48.5 161v240q0 15 11 26t26 11t26 -11t11 -26v-240q0 -70 34.5 -106t99.5 -36t105 42q41 43 41 100v240q0 15 11 26t26 11t26 -11t11 -26v-419q0 -16 -10.5 -26.5
t-26.5 -10.5t-26.5 10.5t-10.5 26.5v56q-31 -49 -70 -71t-95 -22z" />
    <glyph glyph-name="uni01DE" unicode="&#x1de;" 
d="M144 993q-12 0 -20.5 9t-9.5 22q1 12 9.5 21t20.5 9h277q13 0 21.5 -9t9.5 -22q-1 -12 -10 -20.5t-20 -8.5zM184 800q-26 0 -43 19t-17 43q0 26 17.5 44.5t42.5 18.5q27 0 44 -19t17 -44q0 -26 -18 -44t-43 -18zM382 800q-25 0 -43 18t-18 44t17.5 44.5t43.5 18.5
q27 0 43.5 -19t16.5 -44t-17.5 -43.5t-42.5 -18.5zM38 0q-15 0 -26 10.5t-11 27.5l248 678q9 23 34 23q26 0 34 -23l248 -678q0 -18 -11 -28t-26 -10q-24 0 -34 24l-62 167h-298l-62 -167q-11 -24 -34 -24zM162 266h242l-121 328z" />
    <glyph glyph-name="uni01DF" unicode="&#x1df;" 
d="M149 747q-12 0 -20.5 9t-9.5 22q1 12 9.5 21t20.5 9h277q13 0 21.5 -9t9.5 -22q-1 -12 -10 -20.5t-20 -8.5zM189 554q-26 0 -43 19t-17 43q0 26 17.5 44.5t42.5 18.5q27 0 44 -19t17 -44q0 -26 -18 -44t-43 -18zM387 554q-25 0 -43 18t-18 44t17.5 44.5t43.5 18.5
q27 0 43.5 -19t16.5 -44t-17.5 -43.5t-42.5 -18.5zM228 0q-77 0 -120.5 40t-43.5 104q0 65 45 105t118 41q152 1 171 12q15 14 15 32q0 35 -36.5 62t-90.5 27q-41 0 -75.5 -18t-52.5 -52q-10 -21 -31 -21q-36 0 -36 35q0 47 66 86.5t135 39.5q72 0 131 -45.5t59 -113.5v-299
q0 -16 -10.5 -25.5t-24.5 -9.5t-24 10t-10 25v46q-32 -42 -82.5 -61.5t-102.5 -19.5zM242 71q76 0 123.5 35t47.5 100v47q-24 -13 -57 -16t-118 -5q-102 -2 -102 -83q0 -78 106 -78z" />
    <glyph glyph-name="Gcaron" unicode="&#x1e6;" 
d="M283 800q-13 0 -25 11l-101 101q-13 13 -13 25q0 13 9 22t22 9q12 0 21 -9l87 -87l87 87q9 9 21 9t21.5 -8.5t9.5 -22.5q0 -12 -13 -25l-102 -101q-12 -11 -24 -11zM283 0q-87 0 -148 64.5t-61 153.5v303q0 91 62 154.5t147 63.5q88 0 148.5 -59.5t60.5 -148.5
q0 -17 -11 -27.5t-25 -10.5q-15 0 -25.5 11t-10.5 27q0 56 -39.5 94t-97.5 38t-97.5 -42.5t-39.5 -99.5v-303q0 -58 40 -100.5t97 -42.5t97 42t40 101v74h-117q-14 0 -25 11t-11 26q0 17 11 27.5t25 10.5h153q15 0 25.5 -11t10.5 -27v-111q0 -89 -61 -153.5t-148 -64.5z" />
    <glyph glyph-name="gcaron" unicode="&#x1e7;" 
d="M287 555q-13 0 -25 11l-101 101q-13 13 -13 25q0 13 9 22t22 9q12 0 21 -9l87 -87l87 87q9 9 21 9t21.5 -8.5t9.5 -22.5q0 -12 -13 -25l-102 -101q-12 -11 -24 -11zM177 -208q-49 0 -79.5 34t-30.5 81q0 54 43 88l15 12q-58 37 -58 109t54 126q-13 29 -13 68q0 76 52 130
t127 54q74 0 125 -55l75 68q9 8 24 5q14 -3 22 -13t8 -21q0 -16 -17 -31l-74 -68q13 -29 13 -68q0 -83 -50.5 -133t-127.5 -50q-30 0 -65.5 14t-59.5 39q-24 -30 -24 -60q0 -59 49 -59h204q51 0 80.5 -34.5t29.5 -83.5q0 -60 -45 -106t-106 -46h-171zM285 199q49 0 79 32.5
t30 79.5q0 49 -32 80t-77 31q-48 0 -78 -33t-30 -78q0 -48 32 -80t76 -32zM177 -137h171q54 0 76 51q12 32 1.5 54t-36.5 22h-173l-64 -51q-16 -13 -16 -32t12 -31.5t29 -12.5z" />
    <glyph glyph-name="Oslashacute" unicode="&#x1fe;" 
d="M281 798q-14 0 -24.5 11t-10.5 26q0 13 10 22l89 95q10 13 25 13q14 0 25.5 -11.5t11.5 -26.5q0 -13 -10 -23l-89 -95q-11 -11 -27 -11zM466 627q27 -49 27 -106v-306q0 -90 -61.5 -154t-148.5 -64q-85 0 -145 60l-8 -13q-6 -11 -18.5 -14t-22.5 3t-13.5 18.5t2.5 22.5
l21 36q-26 47 -26 105v306q0 91 61.5 154.5t148.5 63.5q83 0 144 -59l9 15q15 25 42 11q11 -6 14 -18t-4 -23zM146 215q0 -4 0.5 -10.5t0.5 -9.5l241 417q-41 51 -105 51q-58 0 -97.5 -42.5t-39.5 -99.5v-306zM420 215v306q0 7 -2 23l-241 -418q43 -54 106 -54
q58 0 97.5 43.5t39.5 99.5z" />
    <glyph glyph-name="oslashacute" unicode="&#x1ff;" 
d="M281 552q-14 0 -24.5 11t-10.5 26q0 13 10 22l89 95q10 13 25 13q14 0 25.5 -11.5t11.5 -26.5q0 -13 -10 -23l-89 -95q-11 -11 -27 -11zM423 441q74 -66 74 -164v-61q0 -90 -63.5 -153t-150.5 -63q-53 0 -100 25l-25 -44q-5 -9 -15 -11.5t-19 2.5q-20 13 -9 33l28 48
q-74 64 -74 163v61q0 88 62.5 152t151.5 64q53 0 100 -25l25 44q5 9 15 11.5t19 -2.5q8 -5 10.5 -15t-2.5 -18zM143 216q0 -55 38 -96l165 284q-28 15 -63 15q-60 0 -100 -42t-40 -100v-61zM423 216v61q0 57 -38 98l-164 -285q30 -16 62 -16q58 0 99 42t41 100z" />
    <glyph glyph-name="Scommaaccent" unicode="&#x218;" 
d="M292 0q-90 0 -151.5 66.5t-61.5 155.5q0 15 11 26.5t26 11.5q14 0 25 -11.5t11 -26.5q0 -62 41.5 -104t98.5 -42q50 0 83 27.5t36 71.5q0 49 -32 75l-199 161q-65 52 -65 143q0 76 50.5 130.5t126.5 54.5q91 0 160 -74q35 -42 35 -68q0 -15 -11 -27t-25 -12q-20 0 -33 23
q-45 82 -126 82q-46 0 -75.5 -33.5t-29.5 -77.5q0 -51 39 -82l199 -161q58 -48 58 -136q-3 -77 -58.5 -125t-132.5 -48zM249 -424l-39 19l86 184q-31 2 -52.5 24.5t-21.5 54.5q0 33 23.5 56t52.5 23q31 0 53 -23.5t22 -55.5v-79z" />
    <glyph glyph-name="scommaaccent" unicode="&#x219;" 
d="M299 0q-26 0 -58 4t-81 24.5t-77 54.5q-21 26 -2 52q27 27 56 0q36 -37 72 -52.5t82 -15.5q54 0 91.5 19t37.5 58q0 17 -8 29t-19 19t-31 11.5t-34 6t-39 3.5q-38 3 -59.5 6t-53 11.5t-48 21.5t-29.5 37.5t-13 57.5q0 70 49 108t134 38q119 0 185 -66q13 -13 12 -26
q-1 -14 -12 -25t-25 -11q-12 0 -26 12q-58 47 -135 47q-108 0 -108 -68q0 -35 30.5 -50t94.5 -20q31 -2 51 -4.5t53.5 -11.5t53.5 -22.5t35.5 -39t15.5 -60.5q0 -71 -55 -109t-140 -39zM240 -424l-39 19l86 184q-31 2 -52.5 24.5t-21.5 54.5q0 33 23.5 56t52.5 23
q31 0 53 -23.5t22 -55.5v-79z" />
    <glyph glyph-name="uni021A" unicode="&#x21a;" 
d="M283 0q-16 0 -26.5 11t-10.5 27v625h-205q-16 0 -26.5 11t-10.5 27t10.5 27t26.5 11h484q16 0 26.5 -11t10.5 -27t-10.5 -27t-26.5 -11h-205v-625q0 -16 -10.5 -27t-26.5 -11zM243 -414l-39 19l86 184q-31 2 -52.5 24.5t-21.5 54.5q0 33 23.5 56t52.5 23q31 0 53 -23.5
t22 -55.5v-79z" />
    <glyph glyph-name="uni021B" unicode="&#x21b;" 
d="M342 0q-76 0 -128.5 54t-52.5 131v243h-91q-17 0 -26.5 9.5t-9.5 23.5t10 23t26 9h91v139q0 16 10.5 27t26.5 11t26.5 -11t10.5 -27v-139h251q17 0 26.5 -9.5t9.5 -22.5q0 -15 -10 -24t-26 -9h-251v-243q0 -45 31 -77.5t76 -32.5t76 32.5t31 77.5q0 16 11 26.5t26 10.5
t26 -11t11 -26q0 -76 -53 -130.5t-128 -54.5zM299 -424l-39 19l86 184q-31 2 -52.5 24.5t-21.5 54.5q0 33 23.5 56t52.5 23q31 0 53 -23.5t22 -55.5v-79z" />
    <glyph glyph-name="uni0228" unicode="&#x228;" 
d="M481 75q14 0 24.5 -11t10.5 -27t-11 -26.5t-24 -10.5h-173l-44 -83q37 0 54 -19.5t17 -50.5q0 -93 -138 -93h-31q-28 0 -28 28t28 28h35q78 0 78 37q0 16 -13 24.5t-25 10t-31 2.5q-12 0 -12 8q0 4 3 10l49 98h-135q-14 0 -24.5 11t-10.5 27v663q0 15 10 26.5t25 11.5
h366q14 0 24.5 -11.5t10.5 -27.5t-10.5 -26.5t-24.5 -10.5h-330v-256h256q15 0 25.5 -11t10.5 -27t-11 -26.5t-25 -10.5h-256v-257h330z" />
    <glyph glyph-name="uni0229" unicode="&#x229;" 
d="M507 255q0 -21 -10.5 -31.5t-26.5 -10.5h-317q0 -59 42.5 -99t101.5 -40q42 0 67.5 19t51.5 55q13 19 31 19q14 0 26 -10t12 -23q0 -10 -5 -22q-16 -38 -61.5 -70.5t-100.5 -39.5l-45 -85q37 0 54 -19.5t17 -50.5q0 -93 -138 -93h-31q-28 0 -28 28t28 28h35q78 0 78 37
q0 16 -13 24.5t-25 10t-31 2.5q-12 0 -12 8q0 4 3 10l50 100q-76 12 -128.5 73t-52.5 141v61q0 89 63 152.5t154 63.5q95 0 153 -68.5t58 -169.5zM153 287h278q-9 64 -45.5 98t-90.5 34q-59 0 -99 -38.5t-43 -93.5z" />
    <glyph glyph-name="uni022A" unicode="&#x22a;" 
d="M144 993q-12 0 -20.5 9t-9.5 22q1 12 9.5 21t20.5 9h277q13 0 21.5 -9t9.5 -22q-1 -12 -10 -20.5t-20 -8.5zM184 800q-26 0 -43 19t-17 43q0 26 17.5 44.5t42.5 18.5q27 0 44 -19t17 -44q0 -26 -18 -44t-43 -18zM382 800q-25 0 -43 18t-18 44t17.5 44.5t43.5 18.5
q27 0 43.5 -19t16.5 -44t-17.5 -43.5t-42.5 -18.5zM283 -3q-88 0 -149 64t-61 154v306q0 91 61.5 154.5t148.5 63.5t148.5 -64t61.5 -154v-306q0 -90 -61.5 -154t-148.5 -64zM283 72q58 0 97.5 43.5t39.5 99.5v306q0 58 -40 100t-97 42q-58 0 -97.5 -42.5t-39.5 -99.5v-306
q0 -59 41 -101t96 -42z" />
    <glyph glyph-name="uni022B" unicode="&#x22b;" 
d="M144 747q-12 0 -20.5 9t-9.5 22q1 12 9.5 21t20.5 9h277q13 0 21.5 -9t9.5 -22q-1 -12 -10 -20.5t-20 -8.5zM184 554q-26 0 -43 19t-17 43q0 26 17.5 44.5t42.5 18.5q27 0 44 -19t17 -44q0 -26 -18 -44t-43 -18zM382 554q-25 0 -43 18t-18 44t17.5 44.5t43.5 18.5
q27 0 43.5 -19t16.5 -44t-17.5 -43.5t-42.5 -18.5zM283 0q-90 0 -152 64t-62 152v61q0 88 62.5 152t151.5 64q91 0 152.5 -64t61.5 -152v-61q0 -90 -63.5 -153t-150.5 -63zM283 74q58 0 99 42t41 100v61q0 59 -41 100.5t-99 41.5q-60 0 -100 -42t-40 -100v-61
q0 -59 42 -100.5t98 -41.5z" />
    <glyph glyph-name="circumflex" unicode="&#x2c6;" 
d="M175 576q-12 0 -21 9q-10 9 -10 22q0 8 4 13q4 8 9 12q4 7 11 12q7 6 13 13q3 3 9.5 10.5l10.5 12.5q3 3 8.5 9t10.5 10.5t9 8.5q2 2 29 26q15 10 25 10q8 0 25 -10q27 -24 29 -26q11 -9 27 -28q18 -20 21 -23q6 -7 13 -13q7 -5 11 -12q5 -4 9 -12q4 -5 4 -13
q0 -13 -10 -22q-9 -9 -21 -9t-21 9l-87 87l-87 -87q-9 -9 -21 -9z" />
    <glyph glyph-name="caron" unicode="&#x2c7;" 
d="M283 576q-10 0 -25 10q-27 24 -29 26l-28 28l-10.5 12.5t-9.5 10.5q-6 7 -13 13q-7 5 -11 12q-5 4 -9 12q-4 5 -4 13q0 13 10 22q9 9 21 9t21 -9l87 -87l87 87q9 9 21 9t21 -9q10 -9 10 -22q0 -8 -4 -13q-4 -8 -9 -12q-4 -7 -11 -12q-7 -6 -13 -13q-3 -3 -21 -23
q-16 -18 -27 -28q-2 -2 -29 -26q-17 -10 -25 -10z" />
    <glyph glyph-name="ring" unicode="&#x2da;" 
d="M283 523q-17 0 -36 7q-20 11 -29 20q-14 14 -20 30q-8 15 -8 36t8 36q6 16 20 30q9 9 29 20q19 7 36 7t36 -7q20 -11 29 -20q14 -14 20 -30q8 -15 8 -36t-8 -36q-6 -16 -20 -30q-9 -9 -29 -20q-19 -7 -36 -7zM283 569q20 0 33 13q14 14 14 34t-14 34q-13 13 -33 13
t-33 -13q-14 -14 -14 -34t14 -34q13 -13 33 -13z" />
    <glyph glyph-name="tilde" unicode="&#x2dc;" 
d="M158 562q-16 0 -26 12q-12 10 -12 25q0 10 4 17q12 26 34 50q22 22 54 22q20 0 38 -7q22 -8 37 -16q12 -6 34 -16q15 -7 30 -7q11 0 19 6q8 8 12 14l13 14q7 6 21 6t22 -9q8 -10 8 -23q0 -14 -6 -26q-4 -10 -16 -26q-15 -13 -24 -18q-13 -7 -28 -7q-19 0 -36 7
q-22 8 -37 16l-35 15q-17 7 -34 7q-18 0 -26 -9q-9 -9 -14 -19q-4 -8 -12 -20q-8 -8 -20 -8z" />
    <glyph glyph-name="gravecomb" unicode="&#x300;" horiz-adv-x="0" 
d="M-440 551q-16 0 -27 11l-89 95q-10 10 -10 23q0 15 11.5 26.5t25.5 11.5q15 0 25 -13l89 -95q10 -9 10 -22q0 -15 -10.5 -26t-24.5 -11z" />
    <glyph glyph-name="acutecomb" unicode="&#x301;" horiz-adv-x="0" 
d="M-531 551q-14 0 -24.5 11t-10.5 26q0 13 10 22l89 95q10 13 25 13q14 0 25.5 -11.5t11.5 -26.5q0 -13 -10 -23l-89 -95q-11 -11 -27 -11z" />
    <glyph glyph-name="uni0302" unicode="&#x302;" horiz-adv-x="0" 
d="M-525 543q-13 0 -22 9t-9 22q0 12 13 25l101 101q12 11 25 11q12 0 24 -11l102 -101q13 -13 13 -25q0 -14 -9.5 -22.5t-21.5 -8.5t-21 9l-87 87l-87 -87q-9 -9 -21 -9z" />
    <glyph glyph-name="tildecomb" unicode="&#x303;" horiz-adv-x="0" 
d="M-297 626q8 15 26 15q12 0 21 -8.5t9 -21.5q0 -8 -5 -15q-29 -50 -79 -50q-30 0 -74.5 25t-51.5 25q-33 0 -49 -28q-8 -15 -26 -15q-12 0 -21 8.5t-9 21.5q0 7 4 15q34 58 101 58q23 0 67 -25t59 -25t28 20z" />
    <glyph glyph-name="uni0304" unicode="&#x304;" horiz-adv-x="0" 
d="M-506 561q-12 0 -20.5 9t-9.5 22q1 12 9.5 21t20.5 9h277q13 0 21.5 -9t9.5 -22q-1 -12 -10 -20.5t-20 -8.5z" />
    <glyph glyph-name="uni0306" unicode="&#x306;" horiz-adv-x="0" 
d="M-412 560q-53 0 -93 34t-50 86q-3 14 5.5 25t22.5 11q11 0 20 -7t10 -17q7 -32 30.5 -52t54.5 -20q32 0 55.5 20t30.5 52q1 10 9.5 17t19.5 7q14 0 23 -11t6 -25q-10 -53 -50.5 -86.5t-93.5 -33.5z" />
    <glyph glyph-name="uni0307" unicode="&#x307;" horiz-adv-x="0" 
d="M-495 553q-25 0 -43 18t-18 44t17.5 44.5t43.5 18.5q27 0 43.5 -19t16.5 -44t-17.5 -43.5t-42.5 -18.5z" />
    <glyph glyph-name="uni0308" unicode="&#x308;" horiz-adv-x="0" 
d="M-506 553q-26 0 -43 19t-17 43q0 26 17.5 44.5t42.5 18.5q27 0 44 -19t17 -44q0 -26 -18 -44t-43 -18zM-308 553q-25 0 -43 18t-18 44t17.5 44.5t43.5 18.5q27 0 43.5 -19t16.5 -44t-17.5 -43.5t-42.5 -18.5z" />
    <glyph glyph-name="hookabovecomb" unicode="&#x309;" horiz-adv-x="0" 
d="M-334 548q-14 0 -23 11t-7 25q6 32 24 49.5t35.5 21t32 13.5t14.5 30q0 14 -16 23t-43 9q-17 0 -27 -2q-13 -2 -23.5 7t-10.5 23q0 11 7.5 19.5t18.5 10.5t32 2q54 0 88 -25t34 -67q0 -37 -14.5 -57t-32.5 -24.5t-36 -15t-23 -30.5q-2 -10 -11 -16.5t-19 -6.5z" />
    <glyph glyph-name="uni030A" unicode="&#x30a;" horiz-adv-x="0" 
d="M-278 553q-38 0 -65.5 27t-27.5 66q0 38 27 65.5t66 27.5q38 0 65.5 -27t27.5 -66q0 -38 -27 -65.5t-66 -27.5zM-278 599q20 0 33.5 13.5t13.5 33.5t-13.5 33.5t-33.5 13.5t-33.5 -13.5t-13.5 -33.5t13.5 -33.5t33.5 -13.5z" />
    <glyph glyph-name="uni030B" unicode="&#x30b;" horiz-adv-x="0" 
d="M-391 551q-14 0 -24.5 11t-10.5 26q0 13 10 22l89 95q10 13 25 13q14 0 25.5 -11.5t11.5 -26.5q0 -13 -10 -23l-89 -95q-11 -11 -27 -11zM-234 551q-14 0 -24.5 11t-10.5 26q0 13 10 22l89 95q10 13 25 13q14 0 25.5 -11.5t11.5 -26.5q0 -13 -10 -23l-89 -95
q-11 -11 -27 -11z" />
    <glyph glyph-name="uni030C" unicode="&#x30c;" horiz-adv-x="0" 
d="M-417 553q-13 0 -25 11l-101 101q-13 13 -13 25q0 13 9 22t22 9q12 0 21 -9l87 -87l87 87q9 9 21 9t21.5 -8.5t9.5 -22.5q0 -12 -13 -25l-102 -101q-12 -11 -24 -11z" />
    <glyph glyph-name="uni0312" unicode="&#x312;" horiz-adv-x="0" 
d="M-481 581q-31 0 -53 23.5t-22 55.5v79l124 203l39 -19l-86 -184q31 -2 52.5 -24.5t21.5 -54.5q0 -33 -23.5 -56t-52.5 -23z" />
    <glyph glyph-name="uni031B" unicode="&#x31b;" horiz-adv-x="0" 
d="M-351 520q-11 -4 -20.5 2.5t-9.5 18.5q0 15 13 21q43 20 48 104q1 12 9 20.5t20 8.5q13 0 22 -9.5t8 -22.5q-7 -115 -90 -143z" />
    <glyph glyph-name="dotbelowcomb" unicode="&#x323;" horiz-adv-x="0" 
d="M-495 -218q-25 0 -43 18t-18 44t17.5 44.5t43.5 18.5q27 0 43.5 -19t16.5 -44t-17.5 -43.5t-42.5 -18.5z" />
    <glyph glyph-name="uni0326" unicode="&#x326;" horiz-adv-x="0" 
d="M-517 -203l-39 19l86 184q-31 2 -52.5 24.5t-21.5 54.5q0 33 23.5 56t52.5 23q31 0 53 -23.5t22 -55.5v-79z" />
    <glyph glyph-name="uni0327" unicode="&#x327;" horiz-adv-x="0" 
d="M-528 -246q-28 0 -28 28t28 28h35q78 0 78 37q0 16 -13 24.5t-25 10t-31 2.5q-12 0 -12 8q0 4 3 10l55 110h58l-50 -95q37 0 54 -19.5t17 -50.5q0 -93 -138 -93h-31z" />
    <glyph glyph-name="uni0328" unicode="&#x328;" horiz-adv-x="0" 
d="M-415 -238q-42 0 -66.5 24t-24.5 64q0 58 66 162h55q-72 -104 -72 -155q0 -43 44 -43q10 0 23.5 4.5t15.5 4.5q10 0 18 -7.5t8 -18.5q0 -17 -16 -24q-23 -11 -51 -11z" />
    <glyph glyph-name="uni0335" unicode="&#x335;" horiz-adv-x="0" 
d="M-486 285q-12 0 -21 9.5t-9 21.5t9 21t21 9h246q12 0 20.5 -9t10.5 -22q-1 -12 -10 -20.5t-21 -8.5z" />
    <glyph glyph-name="uni0336" unicode="&#x336;" horiz-adv-x="0" 
d="M-526 285q-12 0 -21 9.5t-9 21.5t9 21t21 9h454q12 0 20.5 -9t10.5 -22q-1 -12 -10 -20.5t-21 -8.5z" />
    <glyph glyph-name="uni0337" unicode="&#x337;" horiz-adv-x="0" 
d="M-468 54q-8 9 -8 21.5t8 21.5l344 344q20 20 44 0q8 -9 7.5 -21.5t-8.5 -20.5l-344 -345q-9 -9 -21.5 -8.5t-21.5 8.5z" />
    <glyph glyph-name="uni0338" unicode="&#x338;" horiz-adv-x="0" 
d="M-541 11q-10 6 -13.5 18.5t2.5 22.5l358 621q15 25 42 11q11 -6 14 -18t-4 -23l-358 -621q-6 -11 -18.5 -14t-22.5 3z" />
    <glyph glyph-name="pi" unicode="&#x3c0;" 
d="M166 0q-16 0 -27 10.5t-11 26.5v381h-61q-18 0 -28 11t-10 26q0 16 11 27t27 11h432q16 0 27 -11t11 -27q0 -15 -10.5 -26t-27.5 -11h-65v-279q0 -26 19 -45t45 -19q16 0 27 -11t11 -27t-10.5 -26.5t-26.5 -10.5q-58 0 -99 40.5t-41 98.5v279h-156v-381q0 -16 -11 -26.5
t-26 -10.5z" />
    <glyph glyph-name="uni1E04" unicode="&#x1e04;" 
d="M106 0q-15 0 -25.5 11.5t-10.5 26.5v663q0 15 11 26.5t25 11.5h191q74 0 126 -54.5t52 -130.5q0 -92 -99 -138q150 -54 150 -194q0 -92 -63.5 -157t-150.5 -65h-206zM143 444h154q46 0 76 33t30 77t-31 76.5t-75 32.5h-154v-219zM143 75h169q60 0 100.5 44t40.5 103
q0 60 -41 103.5t-100 43.5h-169v-294zM283 -218q-25 0 -43 18t-18 44t17.5 44.5t43.5 18.5q27 0 43.5 -19t16.5 -44t-17.5 -43.5t-42.5 -18.5z" />
    <glyph glyph-name="uni1E05" unicode="&#x1e05;" 
d="M127 0q-15 0 -25.5 11t-10.5 27v664q0 16 11 26.5t25 10.5q15 0 26 -11t11 -26v-263q61 55 122 55q102 0 165.5 -62.5t63.5 -158.5v-53q0 -91 -61.5 -155.5t-146.5 -64.5q-83 0 -143 54v-16q0 -16 -10.5 -27t-26.5 -11zM302 76q57 0 98.5 42t41.5 102v53q0 63 -41 104
t-99 41q-57 0 -97.5 -42t-40.5 -103v-53q0 -62 40.5 -103t97.5 -41zM283 -218q-25 0 -43 18t-18 44t17.5 44.5t43.5 18.5q27 0 43.5 -19t16.5 -44t-17.5 -43.5t-42.5 -18.5z" />
    <glyph glyph-name="uni1E0C" unicode="&#x1e0c;" 
d="M122 0q-15 0 -25.5 11t-10.5 27v663q0 17 11 27.5t25 10.5h173q87 0 148 -64.5t61 -153.5v-303q0 -89 -61 -153.5t-148 -64.5h-173zM158 75h137q56 0 96.5 43t40.5 100v303q0 59 -41 101t-96 42h-137v-589zM283 -218q-25 0 -43 18t-18 44t17.5 44.5t43.5 18.5
q27 0 43.5 -19t16.5 -44t-17.5 -43.5t-42.5 -18.5z" />
    <glyph glyph-name="uni1E0D" unicode="&#x1e0d;" 
d="M269 0q-85 0 -146.5 64.5t-61.5 155.5v52q0 93 64 157t149 64q77 0 138 -55v264q0 15 11 26t26 11q14 0 25 -10.5t11 -26.5v-664q0 -16 -10.5 -27t-25.5 -11q-16 0 -26.5 11t-10.5 27v16q-60 -54 -143 -54zM274 76q57 0 97.5 41t40.5 103v52q0 61 -40.5 103t-97.5 42
q-58 0 -99 -41t-41 -104v-52q0 -60 41.5 -102t98.5 -42zM269 -218q-25 0 -43 18t-18 44t17.5 44.5t43.5 18.5q27 0 43.5 -19t16.5 -44t-17.5 -43.5t-42.5 -18.5z" />
    <glyph glyph-name="uni1E2E" unicode="&#x1e2e;" 
d="M281 984q-14 0 -24.5 11t-10.5 26q0 13 10 22l89 95q10 13 25 13q14 0 25.5 -11.5t11.5 -26.5q0 -13 -10 -23l-89 -95q-11 -11 -27 -11zM184 800q-26 0 -43 19t-17 43q0 26 17.5 44.5t42.5 18.5q27 0 44 -19t17 -44q0 -26 -18 -44t-43 -18zM382 800q-25 0 -43 18t-18 44
t17.5 44.5t43.5 18.5q27 0 43.5 -19t16.5 -44t-17.5 -43.5t-42.5 -18.5zM126 0q-15 0 -25.5 11t-10.5 27q0 17 11 27t25 10h121v589h-121q-15 0 -25.5 11t-10.5 27q0 17 11 27t25 10h314q15 0 25.5 -10.5t10.5 -26.5q0 -17 -11 -27.5t-25 -10.5h-121v-589h121
q15 0 25.5 -10.5t10.5 -26.5t-10 -27t-26 -11h-314z" />
    <glyph glyph-name="uni1E2F" unicode="&#x1e2f;" 
d="M301 738q-14 0 -24.5 11t-10.5 26q0 13 10 22l89 95q10 13 25 13q14 0 25.5 -11.5t11.5 -26.5q0 -13 -10 -23l-89 -95q-11 -11 -27 -11zM204 554q-26 0 -43 19t-17 43q0 26 17.5 44.5t42.5 18.5q27 0 44 -19t17 -44q0 -26 -18 -44t-43 -18zM402 554q-25 0 -43 18t-18 44
t17.5 44.5t43.5 18.5q27 0 43.5 -19t16.5 -44t-17.5 -43.5t-42.5 -18.5zM96 0q-16 0 -26.5 11t-10.5 27q0 14 11 26t26 12h170v341h-170q-16 0 -26.5 11t-10.5 27q0 14 11 26t26 12h207q15 0 26 -11.5t11 -26.5v-379h140q15 0 26 -11.5t11 -26.5q0 -16 -10.5 -27t-26.5 -11
h-384z" />
    <glyph glyph-name="uni1E36" unicode="&#x1e36;" 
d="M131 0q-14 0 -25 11t-11 27v664q0 15 11 26t25 11q15 0 26 -11t11 -26v-627h327q14 0 25 -11t11 -26q0 -16 -11 -27t-25 -11h-364zM283 -218q-25 0 -43 18t-18 44t17.5 44.5t43.5 18.5q27 0 43.5 -19t16.5 -44t-17.5 -43.5t-42.5 -18.5z" />
    <glyph glyph-name="uni1E37" unicode="&#x1e37;" 
d="M349 -1q-70 0 -121 52t-51 124v488h-115q-15 0 -26 10.5t-11 27.5q0 18 11 28t26 10h152q15 0 26 -10.5t11 -27.5v-526q0 -43 29.5 -71.5t68.5 -28.5q40 0 69 29.5t29 70.5q0 16 10.5 27t26.5 11q15 0 26 -10.5t11 -27.5q0 -72 -50.5 -124t-121.5 -52zM273 -219
q-25 0 -43 18t-18 44t17.5 44.5t43.5 18.5q27 0 43.5 -19t16.5 -44t-17.5 -43.5t-42.5 -18.5z" />
    <glyph glyph-name="uni1E3E" unicode="&#x1e3e;" 
d="M281 798q-14 0 -24.5 11t-10.5 26q0 13 10 22l89 95q10 13 25 13q14 0 25.5 -11.5t11.5 -26.5q0 -13 -10 -23l-89 -95q-11 -11 -27 -11zM78 0q-15 0 -25.5 11t-10.5 27v664q0 16 11.5 26.5t24.5 10.5q22 0 33 -21l172 -364l172 364q11 21 33 21q14 0 25 -11t11 -26v-664
q0 -17 -11 -27.5t-25 -10.5q-16 0 -26.5 11t-10.5 27v500l-135 -286q-10 -21 -33 -21t-33 21l-135 286v-500q0 -16 -10.5 -27t-26.5 -11z" />
    <glyph glyph-name="uni1E3F" unicode="&#x1e3f;" 
d="M35 551q-14 0 -24.5 11t-10.5 26q0 13 10 22l89 95q10 13 25 13q14 0 25.5 -11.5t11.5 -26.5q0 -13 -10 -23l-89 -95q-11 -11 -27 -11zM109 0q-15 0 -26 11t-11 26v419q0 15 10.5 26t26.5 11q21 0 29 -14q30 14 58 14q51 0 87 -36q36 36 87 36t87.5 -37t36.5 -88v-331
q0 -15 -11 -26t-26 -11q-14 0 -25 11t-11 26v331q0 21 -15 36t-36 15q-22 0 -36 -14.5t-14 -36.5v-331q0 -15 -11 -26t-26 -11t-26 11t-11 26v331q0 21 -14.5 36t-35.5 15t-36 -15t-15 -36v-331q0 -16 -11 -26.5t-25 -10.5z" />
    <glyph glyph-name="uni1E44" unicode="&#x1e44;" 
d="M283 799q-25 0 -43 18t-18 44t17.5 44.5t43.5 18.5q27 0 43.5 -19t16.5 -44t-17.5 -43.5t-42.5 -18.5zM101 0q-15 0 -25.5 11t-10.5 27v664q0 16 11 26.5t25 10.5q21 0 31 -19l297 -540v522q0 16 11 26.5t25 10.5t25 -11t11 -26v-664q0 -17 -11 -27.5t-25 -10.5
q-22 0 -31 19l-297 540v-521q0 -17 -11 -27.5t-25 -10.5z" />
    <glyph glyph-name="uni1E45" unicode="&#x1e45;" 
d="M293 553q-25 0 -43 18t-18 44t17.5 44.5t43.5 18.5q27 0 43.5 -19t16.5 -44t-17.5 -43.5t-42.5 -18.5zM116 0q-15 0 -26 11t-11 26v419q0 15 10.5 26t26.5 11t26.5 -11t10.5 -26v-52q29 46 65 67.5t93 21.5q94 0 145 -54.5t51 -161.5v-240q0 -15 -11 -26t-26 -11t-26 11
t-11 26v240q0 70 -35 106t-97 36q-71 0 -109.5 -42.5t-38.5 -99.5v-240q0 -15 -11 -26t-26 -11z" />
    <glyph glyph-name="uni1E46" unicode="&#x1e46;" 
d="M101 0q-15 0 -25.5 11t-10.5 27v664q0 16 11 26.5t25 10.5q21 0 31 -19l297 -540v522q0 16 11 26.5t25 10.5t25 -11t11 -26v-664q0 -17 -11 -27.5t-25 -10.5q-22 0 -31 19l-297 540v-521q0 -17 -11 -27.5t-25 -10.5zM283 -218q-25 0 -43 18t-18 44t17.5 44.5t43.5 18.5
q27 0 43.5 -19t16.5 -44t-17.5 -43.5t-42.5 -18.5z" />
    <glyph glyph-name="uni1E47" unicode="&#x1e47;" 
d="M116 0q-15 0 -26 11t-11 26v419q0 15 10.5 26t26.5 11t26.5 -11t10.5 -26v-52q29 46 65 67.5t93 21.5q94 0 145 -54.5t51 -161.5v-240q0 -15 -11 -26t-26 -11t-26 11t-11 26v240q0 70 -35 106t-97 36q-71 0 -109.5 -42.5t-38.5 -99.5v-240q0 -15 -11 -26t-26 -11z
M293 -218q-25 0 -43 18t-18 44t17.5 44.5t43.5 18.5q27 0 43.5 -19t16.5 -44t-17.5 -43.5t-42.5 -18.5z" />
    <glyph glyph-name="uni1E4C" unicode="&#x1e4c;" 
d="M281 961q-14 0 -24.5 11t-10.5 26q0 13 10 22l89 95q10 13 25 13q14 0 25.5 -11.5t11.5 -26.5q0 -13 -10 -23l-89 -95q-11 -11 -27 -11zM384 872q8 15 26 15q12 0 21 -8.5t9 -21.5q0 -8 -5 -15q-29 -50 -79 -50q-30 0 -74.5 25t-51.5 25q-33 0 -49 -28q-8 -15 -26 -15
q-12 0 -21 8.5t-9 21.5q0 7 4 15q34 58 101 58q23 0 67 -25t59 -25t28 20zM283 -3q-88 0 -149 64t-61 154v306q0 91 61.5 154.5t148.5 63.5t148.5 -64t61.5 -154v-306q0 -90 -61.5 -154t-148.5 -64zM283 72q58 0 97.5 43.5t39.5 99.5v306q0 58 -40 100t-97 42
q-58 0 -97.5 -42.5t-39.5 -99.5v-306q0 -59 41 -101t96 -42z" />
    <glyph glyph-name="uni1E4D" unicode="&#x1e4d;" 
d="M281 715q-14 0 -24.5 11t-10.5 26q0 13 10 22l89 95q10 13 25 13q14 0 25.5 -11.5t11.5 -26.5q0 -13 -10 -23l-89 -95q-11 -11 -27 -11zM384 626q8 15 26 15q12 0 21 -8.5t9 -21.5q0 -8 -5 -15q-29 -50 -79 -50q-30 0 -74.5 25t-51.5 25q-33 0 -49 -28q-8 -15 -26 -15
q-12 0 -21 8.5t-9 21.5q0 7 4 15q34 58 101 58q23 0 67 -25t59 -25t28 20zM283 0q-90 0 -152 64t-62 152v61q0 88 62.5 152t151.5 64q91 0 152.5 -64t61.5 -152v-61q0 -90 -63.5 -153t-150.5 -63zM283 74q58 0 99 42t41 100v61q0 59 -41 100.5t-99 41.5q-60 0 -100 -42
t-40 -100v-61q0 -59 42 -100.5t98 -41.5z" />
    <glyph glyph-name="uni1E50" unicode="&#x1e50;" 
d="M283 927q-16 0 -27 11l-89 95q-10 10 -10 23q0 15 11.5 26.5t25.5 11.5q15 0 25 -13l89 -95q10 -9 10 -22q0 -15 -10.5 -26t-24.5 -11zM144 807q-12 0 -20.5 9t-9.5 22q1 12 9.5 21t20.5 9h277q13 0 21.5 -9t9.5 -22q-1 -12 -10 -20.5t-20 -8.5zM283 -3q-88 0 -149 64
t-61 154v306q0 91 61.5 154.5t148.5 63.5t148.5 -64t61.5 -154v-306q0 -90 -61.5 -154t-148.5 -64zM283 72q58 0 97.5 43.5t39.5 99.5v306q0 58 -40 100t-97 42q-58 0 -97.5 -42.5t-39.5 -99.5v-306q0 -59 41 -101t96 -42z" />
    <glyph glyph-name="uni1E51" unicode="&#x1e51;" 
d="M283 681q-16 0 -27 11l-89 95q-10 10 -10 23q0 15 11.5 26.5t25.5 11.5q15 0 25 -13l89 -95q10 -9 10 -22q0 -15 -10.5 -26t-24.5 -11zM144 561q-12 0 -20.5 9t-9.5 22q1 12 9.5 21t20.5 9h277q13 0 21.5 -9t9.5 -22q-1 -12 -10 -20.5t-20 -8.5zM283 0q-90 0 -152 64
t-62 152v61q0 88 62.5 152t151.5 64q91 0 152.5 -64t61.5 -152v-61q0 -90 -63.5 -153t-150.5 -63zM283 74q58 0 99 42t41 100v61q0 59 -41 100.5t-99 41.5q-60 0 -100 -42t-40 -100v-61q0 -59 42 -100.5t98 -41.5z" />
    <glyph glyph-name="uni1E52" unicode="&#x1e52;" 
d="M281 927q-14 0 -24.5 11t-10.5 26q0 13 10 22l89 95q10 13 25 13q14 0 25.5 -11.5t11.5 -26.5q0 -13 -10 -23l-89 -95q-11 -11 -27 -11zM144 807q-12 0 -20.5 9t-9.5 22q1 12 9.5 21t20.5 9h277q13 0 21.5 -9t9.5 -22q-1 -12 -10 -20.5t-20 -8.5zM283 -3q-88 0 -149 64
t-61 154v306q0 91 61.5 154.5t148.5 63.5t148.5 -64t61.5 -154v-306q0 -90 -61.5 -154t-148.5 -64zM283 72q58 0 97.5 43.5t39.5 99.5v306q0 58 -40 100t-97 42q-58 0 -97.5 -42.5t-39.5 -99.5v-306q0 -59 41 -101t96 -42z" />
    <glyph glyph-name="uni1E53" unicode="&#x1e53;" 
d="M281 681q-14 0 -24.5 11t-10.5 26q0 13 10 22l89 95q10 13 25 13q14 0 25.5 -11.5t11.5 -26.5q0 -13 -10 -23l-89 -95q-11 -11 -27 -11zM144 561q-12 0 -20.5 9t-9.5 22q1 12 9.5 21t20.5 9h277q13 0 21.5 -9t9.5 -22q-1 -12 -10 -20.5t-20 -8.5zM283 0q-90 0 -152 64
t-62 152v61q0 88 62.5 152t151.5 64q91 0 152.5 -64t61.5 -152v-61q0 -90 -63.5 -153t-150.5 -63zM283 74q58 0 99 42t41 100v61q0 59 -41 100.5t-99 41.5q-60 0 -100 -42t-40 -100v-61q0 -59 42 -100.5t98 -41.5z" />
    <glyph glyph-name="uni1E62" unicode="&#x1e62;" 
d="M292 0q-90 0 -151.5 66.5t-61.5 155.5q0 15 11 26.5t26 11.5q14 0 25 -11.5t11 -26.5q0 -62 41.5 -104t98.5 -42q50 0 83 27.5t36 71.5q0 49 -32 75l-199 161q-65 52 -65 143q0 76 50.5 130.5t126.5 54.5q91 0 160 -74q35 -42 35 -68q0 -15 -11 -27t-25 -12q-20 0 -33 23
q-45 82 -126 82q-46 0 -75.5 -33.5t-29.5 -77.5q0 -51 39 -82l199 -161q58 -48 58 -136q-3 -77 -58.5 -125t-132.5 -48zM292 -218q-25 0 -43 18t-18 44t17.5 44.5t43.5 18.5q27 0 43.5 -19t16.5 -44t-17.5 -43.5t-42.5 -18.5z" />
    <glyph glyph-name="uni1E63" unicode="&#x1e63;" 
d="M299 0q-26 0 -58 4t-81 24.5t-77 54.5q-21 26 -2 52q27 27 56 0q36 -37 72 -52.5t82 -15.5q54 0 91.5 19t37.5 58q0 17 -8 29t-19 19t-31 11.5t-34 6t-39 3.5q-38 3 -59.5 6t-53 11.5t-48 21.5t-29.5 37.5t-13 57.5q0 70 49 108t134 38q119 0 185 -66q13 -13 12 -26
q-1 -14 -12 -25t-25 -11q-12 0 -26 12q-58 47 -135 47q-108 0 -108 -68q0 -35 30.5 -50t94.5 -20q31 -2 51 -4.5t53.5 -11.5t53.5 -22.5t35.5 -39t15.5 -60.5q0 -71 -55 -109t-140 -39zM283 -218q-25 0 -43 18t-18 44t17.5 44.5t43.5 18.5q27 0 43.5 -19t16.5 -44
t-17.5 -43.5t-42.5 -18.5z" />
    <glyph glyph-name="uni1E6C" unicode="&#x1e6c;" 
d="M283 0q-16 0 -26.5 11t-10.5 27v625h-205q-16 0 -26.5 11t-10.5 27t10.5 27t26.5 11h484q16 0 26.5 -11t10.5 -27t-10.5 -27t-26.5 -11h-205v-625q0 -16 -10.5 -27t-26.5 -11zM286 -208q-25 0 -43 18t-18 44t17.5 44.5t43.5 18.5q27 0 43.5 -19t16.5 -44t-17.5 -43.5
t-42.5 -18.5z" />
    <glyph glyph-name="uni1E6D" unicode="&#x1e6d;" 
d="M342 0q-76 0 -128.5 54t-52.5 131v243h-91q-17 0 -26.5 9.5t-9.5 23.5t10 23t26 9h91v139q0 16 10.5 27t26.5 11t26.5 -11t10.5 -27v-139h251q17 0 26.5 -9.5t9.5 -22.5q0 -15 -10 -24t-26 -9h-251v-243q0 -45 31 -77.5t76 -32.5t76 32.5t31 77.5q0 16 11 26.5t26 10.5
t26 -11t11 -26q0 -76 -53 -130.5t-128 -54.5zM342 -218q-25 0 -43 18t-18 44t17.5 44.5t43.5 18.5q27 0 43.5 -19t16.5 -44t-17.5 -43.5t-42.5 -18.5z" />
    <glyph glyph-name="Wgrave" unicode="&#x1e80;" 
d="M283 798q-16 0 -27 11l-89 95q-10 10 -10 23q0 15 11.5 26.5t25.5 11.5q15 0 25 -13l89 -95q10 -9 10 -22q0 -15 -10.5 -26t-24.5 -11zM78 0q-16 0 -26.5 11t-10.5 27v663q0 15 11 26.5t26 11.5t25.5 -11.5t10.5 -26.5v-499l136 287q10 22 33 22t33 -22l136 -287v499
q0 15 10.5 26.5t25.5 11.5q16 0 26.5 -12t10.5 -26v-663q0 -16 -10.5 -27t-26.5 -11q-22 0 -33 21l-172 366l-172 -366q-11 -21 -33 -21z" />
    <glyph glyph-name="wgrave" unicode="&#x1e81;" 
d="M283 552q-16 0 -27 11l-89 95q-10 10 -10 23q0 15 11.5 26.5t25.5 11.5q15 0 25 -13l89 -95q10 -9 10 -22q0 -15 -10.5 -26t-24.5 -11zM149 0q-13 0 -24.5 8t-13.5 21l-70 424q-2 14 6.5 26.5t22.5 13.5q14 2 26.5 -6.5t13.5 -22.5l53 -341l89 187q9 18 31 18t31 -18
l89 -187l53 341q1 13 13.5 22t26.5 7q13 -1 22 -13.5t7 -26.5l-70 -424q-1 -14 -11.5 -21.5t-24.5 -7.5q-21 0 -30 19l-106 200l-106 -200q-10 -19 -28 -19z" />
    <glyph glyph-name="Wacute" unicode="&#x1e82;" 
d="M281 798q-14 0 -24.5 11t-10.5 26q0 13 10 22l89 95q10 13 25 13q14 0 25.5 -11.5t11.5 -26.5q0 -13 -10 -23l-89 -95q-11 -11 -27 -11zM78 0q-16 0 -26.5 11t-10.5 27v663q0 15 11 26.5t26 11.5t25.5 -11.5t10.5 -26.5v-499l136 287q10 22 33 22t33 -22l136 -287v499
q0 15 10.5 26.5t25.5 11.5q16 0 26.5 -12t10.5 -26v-663q0 -16 -10.5 -27t-26.5 -11q-22 0 -33 21l-172 366l-172 -366q-11 -21 -33 -21z" />
    <glyph glyph-name="wacute" unicode="&#x1e83;" 
d="M281 552q-14 0 -24.5 11t-10.5 26q0 13 10 22l89 95q10 13 25 13q14 0 25.5 -11.5t11.5 -26.5q0 -13 -10 -23l-89 -95q-11 -11 -27 -11zM149 0q-13 0 -24.5 8t-13.5 21l-70 424q-2 14 6.5 26.5t22.5 13.5q14 2 26.5 -6.5t13.5 -22.5l53 -341l89 187q9 18 31 18t31 -18
l89 -187l53 341q1 13 13.5 22t26.5 7q13 -1 22 -13.5t7 -26.5l-70 -424q-1 -14 -11.5 -21.5t-24.5 -7.5q-21 0 -30 19l-106 200l-106 -200q-10 -19 -28 -19z" />
    <glyph glyph-name="Wdieresis" unicode="&#x1e84;" 
d="M184 800q-26 0 -43 19t-17 43q0 26 17.5 44.5t42.5 18.5q27 0 44 -19t17 -44q0 -26 -18 -44t-43 -18zM382 800q-25 0 -43 18t-18 44t17.5 44.5t43.5 18.5q27 0 43.5 -19t16.5 -44t-17.5 -43.5t-42.5 -18.5zM78 0q-16 0 -26.5 11t-10.5 27v663q0 15 11 26.5t26 11.5
t25.5 -11.5t10.5 -26.5v-499l136 287q10 22 33 22t33 -22l136 -287v499q0 15 10.5 26.5t25.5 11.5q16 0 26.5 -12t10.5 -26v-663q0 -16 -10.5 -27t-26.5 -11q-22 0 -33 21l-172 366l-172 -366q-11 -21 -33 -21z" />
    <glyph glyph-name="wdieresis" unicode="&#x1e85;" 
d="M184 554q-26 0 -43 19t-17 43q0 26 17.5 44.5t42.5 18.5q27 0 44 -19t17 -44q0 -26 -18 -44t-43 -18zM382 554q-25 0 -43 18t-18 44t17.5 44.5t43.5 18.5q27 0 43.5 -19t16.5 -44t-17.5 -43.5t-42.5 -18.5zM149 0q-13 0 -24.5 8t-13.5 21l-70 424q-2 14 6.5 26.5
t22.5 13.5q14 2 26.5 -6.5t13.5 -22.5l53 -341l89 187q9 18 31 18t31 -18l89 -187l53 341q1 13 13.5 22t26.5 7q13 -1 22 -13.5t7 -26.5l-70 -424q-1 -14 -11.5 -21.5t-24.5 -7.5q-21 0 -30 19l-106 200l-106 -200q-10 -19 -28 -19z" />
    <glyph glyph-name="uni1E92" unicode="&#x1e92;" 
d="M90 0q-15 0 -25.5 11.5t-10.5 26.5q0 7 5 19l352 606h-281q-16 0 -26.5 11t-10.5 27q0 15 11 26.5t26 11.5h346q14 0 25 -11.5t11 -26.5q0 -8 -5 -20l-352 -606h321q14 0 25 -11t11 -26q0 -16 -11 -27t-25 -11h-386zM283 -218q-25 0 -43 18t-18 44t17.5 44.5t43.5 18.5
q27 0 43.5 -19t16.5 -44t-17.5 -43.5t-42.5 -18.5z" />
    <glyph glyph-name="uni1E93" unicode="&#x1e93;" 
d="M106 0q-15 0 -26 11t-11 25q0 16 9 25l304 358h-276q-15 0 -26 11t-11 26t10.5 26t26.5 11h356q16 0 26.5 -11t10.5 -26q0 -14 -9 -24l-304 -358h304q15 0 26 -11t11 -26t-11 -26t-26 -11h-384zM298 -218q-25 0 -43 18t-18 44t17.5 44.5t43.5 18.5q27 0 43.5 -19
t16.5 -44t-17.5 -43.5t-42.5 -18.5z" />
    <glyph glyph-name="uni1EA0" unicode="&#x1ea0;" 
d="M38 0q-15 0 -26 10.5t-11 27.5l248 678q9 23 34 23q26 0 34 -23l248 -678q0 -18 -11 -28t-26 -10q-24 0 -34 24l-62 167h-298l-62 -167q-11 -24 -34 -24zM162 266h242l-121 328zM283 -218q-25 0 -43 18t-18 44t17.5 44.5t43.5 18.5q27 0 43.5 -19t16.5 -44t-17.5 -43.5
t-42.5 -18.5z" />
    <glyph glyph-name="uni1EA1" unicode="&#x1ea1;" 
d="M228 0q-77 0 -120.5 40t-43.5 104q0 65 45 105t118 41q152 1 171 12q15 14 15 32q0 35 -36.5 62t-90.5 27q-41 0 -75.5 -18t-52.5 -52q-10 -21 -31 -21q-36 0 -36 35q0 47 66 86.5t135 39.5q72 0 131 -45.5t59 -113.5v-299q0 -16 -10.5 -25.5t-24.5 -9.5t-24 10t-10 25
v46q-32 -42 -82.5 -61.5t-102.5 -19.5zM242 71q76 0 123.5 35t47.5 100v47q-24 -13 -57 -16t-118 -5q-102 -2 -102 -83q0 -78 106 -78zM283 -218q-25 0 -43 18t-18 44t17.5 44.5t43.5 18.5q27 0 43.5 -19t16.5 -44t-17.5 -43.5t-42.5 -18.5z" />
    <glyph glyph-name="uni1EA2" unicode="&#x1ea2;" 
d="M283 794q-14 0 -23 11t-7 25q6 32 24 49.5t35.5 21t32 13.5t14.5 30q0 14 -16 23t-43 9q-17 0 -27 -2q-13 -2 -23.5 7t-10.5 23q0 11 7.5 19.5t18.5 10.5t32 2q54 0 88 -25t34 -67q0 -37 -14.5 -57t-32.5 -24.5t-36 -15t-23 -30.5q-2 -10 -11 -16.5t-19 -6.5zM38 0
q-15 0 -26 10.5t-11 27.5l248 678q9 23 34 23q26 0 34 -23l248 -678q0 -18 -11 -28t-26 -10q-24 0 -34 24l-62 167h-298l-62 -167q-11 -24 -34 -24zM162 266h242l-121 328z" />
    <glyph glyph-name="uni1EA3" unicode="&#x1ea3;" 
d="M288 548q-14 0 -23 11t-7 25q6 32 24 49.5t35.5 21t32 13.5t14.5 30q0 14 -16 23t-43 9q-17 0 -27 -2q-13 -2 -23.5 7t-10.5 23q0 11 7.5 19.5t18.5 10.5t32 2q54 0 88 -25t34 -67q0 -37 -14.5 -57t-32.5 -24.5t-36 -15t-23 -30.5q-2 -10 -11 -16.5t-19 -6.5zM228 0
q-77 0 -120.5 40t-43.5 104q0 65 45 105t118 41q152 1 171 12q15 14 15 32q0 35 -36.5 62t-90.5 27q-41 0 -75.5 -18t-52.5 -52q-10 -21 -31 -21q-36 0 -36 35q0 47 66 86.5t135 39.5q72 0 131 -45.5t59 -113.5v-299q0 -16 -10.5 -25.5t-24.5 -9.5t-24 10t-10 25v46
q-32 -42 -82.5 -61.5t-102.5 -19.5zM242 71q76 0 123.5 35t47.5 100v47q-24 -13 -57 -16t-118 -5q-102 -2 -102 -83q0 -78 106 -78z" />
    <glyph glyph-name="uni1EA4" unicode="&#x1ea4;" 
d="M281 1007q-14 0 -24.5 11t-10.5 26q0 13 10 22l89 95q10 13 25 13q14 0 25.5 -11.5t11.5 -26.5q0 -13 -10 -23l-89 -95q-11 -11 -27 -11zM175 790q-13 0 -22 9t-9 22q0 12 13 25l101 101q12 11 25 11q12 0 24 -11l102 -101q13 -13 13 -25q0 -14 -9.5 -22.5t-21.5 -8.5
t-21 9l-87 87l-87 -87q-9 -9 -21 -9zM38 0q-15 0 -26 10.5t-11 27.5l248 678q9 23 34 23q26 0 34 -23l248 -678q0 -18 -11 -28t-26 -10q-24 0 -34 24l-62 167h-298l-62 -167q-11 -24 -34 -24zM162 266h242l-121 328z" />
    <glyph glyph-name="uni1EA5" unicode="&#x1ea5;" 
d="M286 761q-14 0 -24.5 11t-10.5 26q0 13 10 22l89 95q10 13 25 13q14 0 25.5 -11.5t11.5 -26.5q0 -13 -10 -23l-89 -95q-11 -11 -27 -11zM180 544q-13 0 -22 9t-9 22q0 12 13 25l101 101q12 11 25 11q12 0 24 -11l102 -101q13 -13 13 -25q0 -14 -9.5 -22.5t-21.5 -8.5
t-21 9l-87 87l-87 -87q-9 -9 -21 -9zM228 0q-77 0 -120.5 40t-43.5 104q0 65 45 105t118 41q152 1 171 12q15 14 15 32q0 35 -36.5 62t-90.5 27q-41 0 -75.5 -18t-52.5 -52q-10 -21 -31 -21q-36 0 -36 35q0 47 66 86.5t135 39.5q72 0 131 -45.5t59 -113.5v-299
q0 -16 -10.5 -25.5t-24.5 -9.5t-24 10t-10 25v46q-32 -42 -82.5 -61.5t-102.5 -19.5zM242 71q76 0 123.5 35t47.5 100v47q-24 -13 -57 -16t-118 -5q-102 -2 -102 -83q0 -78 106 -78z" />
    <glyph glyph-name="uni1EA6" unicode="&#x1ea6;" 
d="M283 1007q-16 0 -27 11l-89 95q-10 10 -10 23q0 15 11.5 26.5t25.5 11.5q15 0 25 -13l89 -95q10 -9 10 -22q0 -15 -10.5 -26t-24.5 -11zM175 790q-13 0 -22 9t-9 22q0 12 13 25l101 101q12 11 25 11q12 0 24 -11l102 -101q13 -13 13 -25q0 -14 -9.5 -22.5t-21.5 -8.5
t-21 9l-87 87l-87 -87q-9 -9 -21 -9zM38 0q-15 0 -26 10.5t-11 27.5l248 678q9 23 34 23q26 0 34 -23l248 -678q0 -18 -11 -28t-26 -10q-24 0 -34 24l-62 167h-298l-62 -167q-11 -24 -34 -24zM162 266h242l-121 328z" />
    <glyph glyph-name="uni1EA7" unicode="&#x1ea7;" 
d="M288 761q-16 0 -27 11l-89 95q-10 10 -10 23q0 15 11.5 26.5t25.5 11.5q15 0 25 -13l89 -95q10 -9 10 -22q0 -15 -10.5 -26t-24.5 -11zM180 544q-13 0 -22 9t-9 22q0 12 13 25l101 101q12 11 25 11q12 0 24 -11l102 -101q13 -13 13 -25q0 -14 -9.5 -22.5t-21.5 -8.5
t-21 9l-87 87l-87 -87q-9 -9 -21 -9zM228 0q-77 0 -120.5 40t-43.5 104q0 65 45 105t118 41q152 1 171 12q15 14 15 32q0 35 -36.5 62t-90.5 27q-41 0 -75.5 -18t-52.5 -52q-10 -21 -31 -21q-36 0 -36 35q0 47 66 86.5t135 39.5q72 0 131 -45.5t59 -113.5v-299
q0 -16 -10.5 -25.5t-24.5 -9.5t-24 10t-10 25v46q-32 -42 -82.5 -61.5t-102.5 -19.5zM242 71q76 0 123.5 35t47.5 100v47q-24 -13 -57 -16t-118 -5q-102 -2 -102 -83q0 -78 106 -78z" />
    <glyph glyph-name="uni1EA8" unicode="&#x1ea8;" 
d="M283 1003q-14 0 -23 11t-7 25q6 32 24 49.5t35.5 21t32 13.5t14.5 30q0 14 -16 23t-43 9q-17 0 -27 -2q-13 -2 -23.5 7.5t-10.5 22.5q0 11 7.5 19.5t18.5 10.5t32 2q54 0 88 -25t34 -67q0 -37 -14.5 -57t-32.5 -24.5t-36 -15t-23 -30.5q-2 -10 -11 -16.5t-19 -6.5z
M175 790q-13 0 -22 9t-9 22q0 12 13 25l101 101q12 11 25 11q12 0 24 -11l102 -101q13 -13 13 -25q0 -14 -9.5 -22.5t-21.5 -8.5t-21 9l-87 87l-87 -87q-9 -9 -21 -9zM38 0q-15 0 -26 10.5t-11 27.5l248 678q9 23 34 23q26 0 34 -23l248 -678q0 -18 -11 -28t-26 -10
q-24 0 -34 24l-62 167h-298l-62 -167q-11 -24 -34 -24zM162 266h242l-121 328z" />
    <glyph glyph-name="uni1EA9" unicode="&#x1ea9;" 
d="M288 757q-14 0 -23 11t-7 25q6 32 24 49.5t35.5 21t32 13.5t14.5 30q0 14 -16 23t-43 9q-17 0 -27 -2q-13 -2 -23.5 7.5t-10.5 22.5q0 11 7.5 19.5t18.5 10.5t32 2q54 0 88 -25t34 -67q0 -37 -14.5 -57t-32.5 -24.5t-36 -15t-23 -30.5q-2 -10 -11 -16.5t-19 -6.5z
M180 544q-13 0 -22 9t-9 22q0 12 13 25l101 101q12 11 25 11q12 0 24 -11l102 -101q13 -13 13 -25q0 -14 -9.5 -22.5t-21.5 -8.5t-21 9l-87 87l-87 -87q-9 -9 -21 -9zM228 0q-77 0 -120.5 40t-43.5 104q0 65 45 105t118 41q152 1 171 12q15 14 15 32q0 35 -36.5 62t-90.5 27
q-41 0 -75.5 -18t-52.5 -52q-10 -21 -31 -21q-36 0 -36 35q0 47 66 86.5t135 39.5q72 0 131 -45.5t59 -113.5v-299q0 -16 -10.5 -25.5t-24.5 -9.5t-24 10t-10 25v46q-32 -42 -82.5 -61.5t-102.5 -19.5zM242 71q76 0 123.5 35t47.5 100v47q-24 -13 -57 -16t-118 -5
q-102 -2 -102 -83q0 -78 106 -78z" />
    <glyph glyph-name="uni1EAA" unicode="&#x1eaa;" 
d="M384 1081q8 15 26 15q12 0 21 -8.5t9 -21.5q0 -8 -5 -15q-29 -50 -79 -50q-30 0 -74.5 25t-51.5 25q-33 0 -49 -28q-8 -15 -26 -15q-12 0 -21 8.5t-9 21.5q0 7 4 15q34 58 101 58q23 0 67 -25t59 -25t28 20zM175 790q-13 0 -22 9t-9 22q0 12 13 25l101 101q12 11 25 11
q12 0 24 -11l102 -101q13 -13 13 -25q0 -14 -9.5 -22.5t-21.5 -8.5t-21 9l-87 87l-87 -87q-9 -9 -21 -9zM38 0q-15 0 -26 10.5t-11 27.5l248 678q9 23 34 23q26 0 34 -23l248 -678q0 -18 -11 -28t-26 -10q-24 0 -34 24l-62 167h-298l-62 -167q-11 -24 -34 -24zM162 266h242
l-121 328z" />
    <glyph glyph-name="uni1EAB" unicode="&#x1eab;" 
d="M389 835q8 15 26 15q12 0 21 -8.5t9 -21.5q0 -8 -5 -15q-29 -50 -79 -50q-30 0 -74.5 25t-51.5 25q-33 0 -49 -28q-8 -15 -26 -15q-12 0 -21 8.5t-9 21.5q0 7 4 15q34 58 101 58q23 0 67 -25t59 -25t28 20zM180 544q-13 0 -22 9t-9 22q0 12 13 25l101 101q12 11 25 11
q12 0 24 -11l102 -101q13 -13 13 -25q0 -14 -9.5 -22.5t-21.5 -8.5t-21 9l-87 87l-87 -87q-9 -9 -21 -9zM228 0q-77 0 -120.5 40t-43.5 104q0 65 45 105t118 41q152 1 171 12q15 14 15 32q0 35 -36.5 62t-90.5 27q-41 0 -75.5 -18t-52.5 -52q-10 -21 -31 -21q-36 0 -36 35
q0 47 66 86.5t135 39.5q72 0 131 -45.5t59 -113.5v-299q0 -16 -10.5 -25.5t-24.5 -9.5t-24 10t-10 25v46q-32 -42 -82.5 -61.5t-102.5 -19.5zM242 71q76 0 123.5 35t47.5 100v47q-24 -13 -57 -16t-118 -5q-102 -2 -102 -83q0 -78 106 -78z" />
    <glyph glyph-name="uni1EAC" unicode="&#x1eac;" 
d="M175 790q-13 0 -22 9t-9 22q0 12 13 25l101 101q12 11 25 11q12 0 24 -11l102 -101q13 -13 13 -25q0 -14 -9.5 -22.5t-21.5 -8.5t-21 9l-87 87l-87 -87q-9 -9 -21 -9zM38 0q-15 0 -26 10.5t-11 27.5l248 678q9 23 34 23q26 0 34 -23l248 -678q0 -18 -11 -28t-26 -10
q-24 0 -34 24l-62 167h-298l-62 -167q-11 -24 -34 -24zM162 266h242l-121 328zM283 -218q-25 0 -43 18t-18 44t17.5 44.5t43.5 18.5q27 0 43.5 -19t16.5 -44t-17.5 -43.5t-42.5 -18.5z" />
    <glyph glyph-name="uni1EAD" unicode="&#x1ead;" 
d="M180 544q-13 0 -22 9t-9 22q0 12 13 25l101 101q12 11 25 11q12 0 24 -11l102 -101q13 -13 13 -25q0 -14 -9.5 -22.5t-21.5 -8.5t-21 9l-87 87l-87 -87q-9 -9 -21 -9zM228 0q-77 0 -120.5 40t-43.5 104q0 65 45 105t118 41q152 1 171 12q15 14 15 32q0 35 -36.5 62
t-90.5 27q-41 0 -75.5 -18t-52.5 -52q-10 -21 -31 -21q-36 0 -36 35q0 47 66 86.5t135 39.5q72 0 131 -45.5t59 -113.5v-299q0 -16 -10.5 -25.5t-24.5 -9.5t-24 10t-10 25v46q-32 -42 -82.5 -61.5t-102.5 -19.5zM242 71q76 0 123.5 35t47.5 100v47q-24 -13 -57 -16t-118 -5
q-102 -2 -102 -83q0 -78 106 -78zM283 -218q-25 0 -43 18t-18 44t17.5 44.5t43.5 18.5q27 0 43.5 -19t16.5 -44t-17.5 -43.5t-42.5 -18.5z" />
    <glyph glyph-name="uni1EAE" unicode="&#x1eae;" 
d="M280 1016q-14 0 -24.5 11t-10.5 26q0 13 10 22l89 95q10 13 25 13q14 0 25.5 -11.5t11.5 -26.5q0 -13 -10 -23l-89 -95q-11 -11 -27 -11zM282 806q-53 0 -93 34t-50 86q-3 14 5.5 25t22.5 11q11 0 20 -7t10 -17q7 -32 30.5 -52t54.5 -20q32 0 55.5 20t30.5 52
q1 10 9.5 17t19.5 7q14 0 23 -11t6 -25q-10 -53 -50.5 -86.5t-93.5 -33.5zM38 0q-15 0 -26 10.5t-11 27.5l248 678q9 23 34 23q26 0 34 -23l248 -678q0 -18 -11 -28t-26 -10q-24 0 -34 24l-62 167h-298l-62 -167q-11 -24 -34 -24zM162 266h242l-121 328z" />
    <glyph glyph-name="uni1EAF" unicode="&#x1eaf;" 
d="M285 770q-14 0 -24.5 11t-10.5 26q0 13 10 22l89 95q10 13 25 13q14 0 25.5 -11.5t11.5 -26.5q0 -13 -10 -23l-89 -95q-11 -11 -27 -11zM287 560q-53 0 -93 34t-50 86q-3 14 5.5 25t22.5 11q11 0 20 -7t10 -17q7 -32 30.5 -52t54.5 -20q32 0 55.5 20t30.5 52q1 10 9.5 17
t19.5 7q14 0 23 -11t6 -25q-10 -53 -50.5 -86.5t-93.5 -33.5zM228 0q-77 0 -120.5 40t-43.5 104q0 65 45 105t118 41q152 1 171 12q15 14 15 32q0 35 -36.5 62t-90.5 27q-41 0 -75.5 -18t-52.5 -52q-10 -21 -31 -21q-36 0 -36 35q0 47 66 86.5t135 39.5q72 0 131 -45.5
t59 -113.5v-299q0 -16 -10.5 -25.5t-24.5 -9.5t-24 10t-10 25v46q-32 -42 -82.5 -61.5t-102.5 -19.5zM242 71q76 0 123.5 35t47.5 100v47q-24 -13 -57 -16t-118 -5q-102 -2 -102 -83q0 -78 106 -78z" />
    <glyph glyph-name="uni1EB0" unicode="&#x1eb0;" 
d="M282 1016q-16 0 -27 11l-89 95q-10 10 -10 23q0 15 11.5 26.5t25.5 11.5q15 0 25 -13l89 -95q10 -9 10 -22q0 -15 -10.5 -26t-24.5 -11zM282 806q-53 0 -93 34t-50 86q-3 14 5.5 25t22.5 11q11 0 20 -7t10 -17q7 -32 30.5 -52t54.5 -20q32 0 55.5 20t30.5 52q1 10 9.5 17
t19.5 7q14 0 23 -11t6 -25q-10 -53 -50.5 -86.5t-93.5 -33.5zM38 0q-15 0 -26 10.5t-11 27.5l248 678q9 23 34 23q26 0 34 -23l248 -678q0 -18 -11 -28t-26 -10q-24 0 -34 24l-62 167h-298l-62 -167q-11 -24 -34 -24zM162 266h242l-121 328z" />
    <glyph glyph-name="uni1EB1" unicode="&#x1eb1;" 
d="M287 770q-16 0 -27 11l-89 95q-10 10 -10 23q0 15 11.5 26.5t25.5 11.5q15 0 25 -13l89 -95q10 -9 10 -22q0 -15 -10.5 -26t-24.5 -11zM287 560q-53 0 -93 34t-50 86q-3 14 5.5 25t22.5 11q11 0 20 -7t10 -17q7 -32 30.5 -52t54.5 -20q32 0 55.5 20t30.5 52q1 10 9.5 17
t19.5 7q14 0 23 -11t6 -25q-10 -53 -50.5 -86.5t-93.5 -33.5zM228 0q-77 0 -120.5 40t-43.5 104q0 65 45 105t118 41q152 1 171 12q15 14 15 32q0 35 -36.5 62t-90.5 27q-41 0 -75.5 -18t-52.5 -52q-10 -21 -31 -21q-36 0 -36 35q0 47 66 86.5t135 39.5q72 0 131 -45.5
t59 -113.5v-299q0 -16 -10.5 -25.5t-24.5 -9.5t-24 10t-10 25v46q-32 -42 -82.5 -61.5t-102.5 -19.5zM242 71q76 0 123.5 35t47.5 100v47q-24 -13 -57 -16t-118 -5q-102 -2 -102 -83q0 -78 106 -78z" />
    <glyph glyph-name="uni1EB2" unicode="&#x1eb2;" 
d="M282 1012q-14 0 -23 11t-7 25q6 32 24 49.5t35.5 21t32 13.5t14.5 30q0 14 -16 23t-43 9q-17 0 -27 -2q-13 -2 -23.5 7t-10.5 23q0 11 7.5 19.5t18.5 10.5t32 2q54 0 88 -25t34 -67q0 -37 -14.5 -57t-32.5 -24.5t-36 -15t-23 -30.5q-2 -10 -11 -16.5t-19 -6.5zM282 806
q-53 0 -93 34t-50 86q-3 14 5.5 25t22.5 11q11 0 20 -7t10 -17q7 -32 30.5 -52t54.5 -20q32 0 55.5 20t30.5 52q1 10 9.5 17t19.5 7q14 0 23 -11t6 -25q-10 -53 -50.5 -86.5t-93.5 -33.5zM38 0q-15 0 -26 10.5t-11 27.5l248 678q9 23 34 23q26 0 34 -23l248 -678
q0 -18 -11 -28t-26 -10q-24 0 -34 24l-62 167h-298l-62 -167q-11 -24 -34 -24zM162 266h242l-121 328z" />
    <glyph glyph-name="uni1EB3" unicode="&#x1eb3;" 
d="M287 766q-14 0 -23 11t-7 25q6 32 24 49.5t35.5 21t32 13.5t14.5 30q0 14 -16 23t-43 9q-17 0 -27 -2q-13 -2 -23.5 7.5t-10.5 22.5q0 11 7.5 19.5t18.5 10.5t32 2q54 0 88 -25t34 -67q0 -37 -14.5 -57t-32.5 -24.5t-36 -15t-23 -30.5q-2 -10 -11 -16.5t-19 -6.5z
M287 560q-53 0 -93 34t-50 86q-3 14 5.5 25t22.5 11q11 0 20 -7t10 -17q7 -32 30.5 -52t54.5 -20q32 0 55.5 20t30.5 52q1 10 9.5 17t19.5 7q14 0 23 -11t6 -25q-10 -53 -50.5 -86.5t-93.5 -33.5zM228 0q-77 0 -120.5 40t-43.5 104q0 65 45 105t118 41q152 1 171 12
q15 14 15 32q0 35 -36.5 62t-90.5 27q-41 0 -75.5 -18t-52.5 -52q-10 -21 -31 -21q-36 0 -36 35q0 47 66 86.5t135 39.5q72 0 131 -45.5t59 -113.5v-299q0 -16 -10.5 -25.5t-24.5 -9.5t-24 10t-10 25v46q-32 -42 -82.5 -61.5t-102.5 -19.5zM242 71q76 0 123.5 35t47.5 100
v47q-24 -13 -57 -16t-118 -5q-102 -2 -102 -83q0 -78 106 -78z" />
    <glyph glyph-name="uni1EB4" unicode="&#x1eb4;" 
d="M383 1090q8 15 26 15q12 0 21 -8.5t9 -21.5q0 -8 -5 -15q-29 -50 -79 -50q-30 0 -74.5 25t-51.5 25q-33 0 -49 -28q-8 -15 -26 -15q-12 0 -21 8.5t-9 21.5q0 7 4 15q34 58 101 58q23 0 67 -25t59 -25t28 20zM282 806q-53 0 -93 34t-50 86q-3 14 5.5 25t22.5 11
q11 0 20 -7t10 -17q7 -32 30.5 -52t54.5 -20q32 0 55.5 20t30.5 52q1 10 9.5 17t19.5 7q14 0 23 -11t6 -25q-10 -53 -50.5 -86.5t-93.5 -33.5zM38 0q-15 0 -26 10.5t-11 27.5l248 678q9 23 34 23q26 0 34 -23l248 -678q0 -18 -11 -28t-26 -10q-24 0 -34 24l-62 167h-298
l-62 -167q-11 -24 -34 -24zM162 266h242l-121 328z" />
    <glyph glyph-name="uni1EB5" unicode="&#x1eb5;" 
d="M388 844q8 15 26 15q12 0 21 -8.5t9 -21.5q0 -8 -5 -15q-29 -50 -79 -50q-30 0 -74.5 25t-51.5 25q-33 0 -49 -28q-8 -15 -26 -15q-12 0 -21 8.5t-9 21.5q0 7 4 15q34 58 101 58q23 0 67 -25t59 -25t28 20zM287 560q-53 0 -93 34t-50 86q-3 14 5.5 25t22.5 11q11 0 20 -7
t10 -17q7 -32 30.5 -52t54.5 -20q32 0 55.5 20t30.5 52q1 10 9.5 17t19.5 7q14 0 23 -11t6 -25q-10 -53 -50.5 -86.5t-93.5 -33.5zM228 0q-77 0 -120.5 40t-43.5 104q0 65 45 105t118 41q152 1 171 12q15 14 15 32q0 35 -36.5 62t-90.5 27q-41 0 -75.5 -18t-52.5 -52
q-10 -21 -31 -21q-36 0 -36 35q0 47 66 86.5t135 39.5q72 0 131 -45.5t59 -113.5v-299q0 -16 -10.5 -25.5t-24.5 -9.5t-24 10t-10 25v46q-32 -42 -82.5 -61.5t-102.5 -19.5zM242 71q76 0 123.5 35t47.5 100v47q-24 -13 -57 -16t-118 -5q-102 -2 -102 -83q0 -78 106 -78z" />
    <glyph glyph-name="uni1EB6" unicode="&#x1eb6;" 
d="M282 806q-53 0 -93 34t-50 86q-3 14 5.5 25t22.5 11q11 0 20 -7t10 -17q7 -32 30.5 -52t54.5 -20q32 0 55.5 20t30.5 52q1 10 9.5 17t19.5 7q14 0 23 -11t6 -25q-10 -53 -50.5 -86.5t-93.5 -33.5zM38 0q-15 0 -26 10.5t-11 27.5l248 678q9 23 34 23q26 0 34 -23l248 -678
q0 -18 -11 -28t-26 -10q-24 0 -34 24l-62 167h-298l-62 -167q-11 -24 -34 -24zM162 266h242l-121 328zM283 -218q-25 0 -43 18t-18 44t17.5 44.5t43.5 18.5q27 0 43.5 -19t16.5 -44t-17.5 -43.5t-42.5 -18.5z" />
    <glyph glyph-name="uni1EB7" unicode="&#x1eb7;" 
d="M287 560q-53 0 -93 34t-50 86q-3 14 5.5 25t22.5 11q11 0 20 -7t10 -17q7 -32 30.5 -52t54.5 -20q32 0 55.5 20t30.5 52q1 10 9.5 17t19.5 7q14 0 23 -11t6 -25q-10 -53 -50.5 -86.5t-93.5 -33.5zM228 0q-77 0 -120.5 40t-43.5 104q0 65 45 105t118 41q152 1 171 12
q15 14 15 32q0 35 -36.5 62t-90.5 27q-41 0 -75.5 -18t-52.5 -52q-10 -21 -31 -21q-36 0 -36 35q0 47 66 86.5t135 39.5q72 0 131 -45.5t59 -113.5v-299q0 -16 -10.5 -25.5t-24.5 -9.5t-24 10t-10 25v46q-32 -42 -82.5 -61.5t-102.5 -19.5zM242 71q76 0 123.5 35t47.5 100
v47q-24 -13 -57 -16t-118 -5q-102 -2 -102 -83q0 -78 106 -78zM283 -218q-25 0 -43 18t-18 44t17.5 44.5t43.5 18.5q27 0 43.5 -19t16.5 -44t-17.5 -43.5t-42.5 -18.5z" />
    <glyph glyph-name="uni1EB8" unicode="&#x1eb8;" 
d="M115 0q-14 0 -24.5 11t-10.5 27v663q0 15 10 26.5t25 11.5h366q14 0 24.5 -11.5t10.5 -27.5t-10.5 -26.5t-24.5 -10.5h-330v-256h256q15 0 25.5 -11t10.5 -27t-11 -26.5t-25 -10.5h-256v-257h330q14 0 24.5 -11t10.5 -27t-11 -26.5t-24 -10.5h-366zM283 -218
q-25 0 -43 18t-18 44t17.5 44.5t43.5 18.5q27 0 43.5 -19t16.5 -44t-17.5 -43.5t-42.5 -18.5z" />
    <glyph glyph-name="uni1EB9" unicode="&#x1eb9;" 
d="M292 0q-87 0 -150 64t-63 152v61q0 89 63 152.5t154 63.5q95 0 153 -68.5t58 -169.5q0 -21 -10.5 -31.5t-26.5 -10.5h-317q0 -59 42.5 -99t101.5 -40q42 0 67.5 19t51.5 55q13 19 31 19q14 0 26 -10t12 -23q0 -10 -5 -22q-17 -43 -71.5 -77.5t-116.5 -34.5zM153 287h278
q-9 64 -45.5 98t-90.5 34q-59 0 -99 -38.5t-43 -93.5zM292 -218q-25 0 -43 18t-18 44t17.5 44.5t43.5 18.5q27 0 43.5 -19t16.5 -44t-17.5 -43.5t-42.5 -18.5z" />
    <glyph glyph-name="uni1EBA" unicode="&#x1eba;" 
d="M283 794q-14 0 -23 11t-7 25q6 32 24 49.5t35.5 21t32 13.5t14.5 30q0 14 -16 23t-43 9q-17 0 -27 -2q-13 -2 -23.5 7t-10.5 23q0 11 7.5 19.5t18.5 10.5t32 2q54 0 88 -25t34 -67q0 -37 -14.5 -57t-32.5 -24.5t-36 -15t-23 -30.5q-2 -10 -11 -16.5t-19 -6.5zM115 0
q-14 0 -24.5 11t-10.5 27v663q0 15 10 26.5t25 11.5h366q14 0 24.5 -11.5t10.5 -27.5t-10.5 -26.5t-24.5 -10.5h-330v-256h256q15 0 25.5 -11t10.5 -27t-11 -26.5t-25 -10.5h-256v-257h330q14 0 24.5 -11t10.5 -27t-11 -26.5t-24 -10.5h-366z" />
    <glyph glyph-name="uni1EBB" unicode="&#x1ebb;" 
d="M296 548q-14 0 -23 11t-7 25q6 32 24 49.5t35.5 21t32 13.5t14.5 30q0 14 -16 23t-43 9q-17 0 -27 -2q-13 -2 -23.5 7t-10.5 23q0 11 7.5 19.5t18.5 10.5t32 2q54 0 88 -25t34 -67q0 -37 -14.5 -57t-32.5 -24.5t-36 -15t-23 -30.5q-2 -10 -11 -16.5t-19 -6.5zM292 0
q-87 0 -150 64t-63 152v61q0 89 63 152.5t154 63.5q95 0 153 -68.5t58 -169.5q0 -21 -10.5 -31.5t-26.5 -10.5h-317q0 -59 42.5 -99t101.5 -40q42 0 67.5 19t51.5 55q13 19 31 19q14 0 26 -10t12 -23q0 -10 -5 -22q-17 -43 -71.5 -77.5t-116.5 -34.5zM153 287h278
q-9 64 -45.5 98t-90.5 34q-59 0 -99 -38.5t-43 -93.5z" />
    <glyph glyph-name="uni1EBC" unicode="&#x1ebc;" 
d="M384 872q8 15 26 15q12 0 21 -8.5t9 -21.5q0 -8 -5 -15q-29 -50 -79 -50q-30 0 -74.5 25t-51.5 25q-33 0 -49 -28q-8 -15 -26 -15q-12 0 -21 8.5t-9 21.5q0 7 4 15q34 58 101 58q23 0 67 -25t59 -25t28 20zM115 0q-14 0 -24.5 11t-10.5 27v663q0 15 10 26.5t25 11.5h366
q14 0 24.5 -11.5t10.5 -27.5t-10.5 -26.5t-24.5 -10.5h-330v-256h256q15 0 25.5 -11t10.5 -27t-11 -26.5t-25 -10.5h-256v-257h330q14 0 24.5 -11t10.5 -27t-11 -26.5t-24 -10.5h-366z" />
    <glyph glyph-name="uni1EBD" unicode="&#x1ebd;" 
d="M397 626q8 15 26 15q12 0 21 -8.5t9 -21.5q0 -8 -5 -15q-29 -50 -79 -50q-30 0 -74.5 25t-51.5 25q-33 0 -49 -28q-8 -15 -26 -15q-12 0 -21 8.5t-9 21.5q0 7 4 15q34 58 101 58q23 0 67 -25t59 -25t28 20zM292 0q-87 0 -150 64t-63 152v61q0 89 63 152.5t154 63.5
q95 0 153 -68.5t58 -169.5q0 -21 -10.5 -31.5t-26.5 -10.5h-317q0 -59 42.5 -99t101.5 -40q42 0 67.5 19t51.5 55q13 19 31 19q14 0 26 -10t12 -23q0 -10 -5 -22q-17 -43 -71.5 -77.5t-116.5 -34.5zM153 287h278q-9 64 -45.5 98t-90.5 34q-59 0 -99 -38.5t-43 -93.5z" />
    <glyph glyph-name="uni1EBE" unicode="&#x1ebe;" 
d="M281 1007q-14 0 -24.5 11t-10.5 26q0 13 10 22l89 95q10 13 25 13q14 0 25.5 -11.5t11.5 -26.5q0 -13 -10 -23l-89 -95q-11 -11 -27 -11zM175 790q-13 0 -22 9t-9 22q0 12 13 25l101 101q12 11 25 11q12 0 24 -11l102 -101q13 -13 13 -25q0 -14 -9.5 -22.5t-21.5 -8.5
t-21 9l-87 87l-87 -87q-9 -9 -21 -9zM115 0q-14 0 -24.5 11t-10.5 27v663q0 15 10 26.5t25 11.5h366q14 0 24.5 -11.5t10.5 -27.5t-10.5 -26.5t-24.5 -10.5h-330v-256h256q15 0 25.5 -11t10.5 -27t-11 -26.5t-25 -10.5h-256v-257h330q14 0 24.5 -11t10.5 -27t-11 -26.5
t-24 -10.5h-366z" />
    <glyph glyph-name="uni1EBF" unicode="&#x1ebf;" 
d="M294 761q-14 0 -24.5 11t-10.5 26q0 13 10 22l89 95q10 13 25 13q14 0 25.5 -11.5t11.5 -26.5q0 -13 -10 -23l-89 -95q-11 -11 -27 -11zM188 544q-13 0 -22 9t-9 22q0 12 13 25l101 101q12 11 25 11q12 0 24 -11l102 -101q13 -13 13 -25q0 -14 -9.5 -22.5t-21.5 -8.5
t-21 9l-87 87l-87 -87q-9 -9 -21 -9zM292 0q-87 0 -150 64t-63 152v61q0 89 63 152.5t154 63.5q95 0 153 -68.5t58 -169.5q0 -21 -10.5 -31.5t-26.5 -10.5h-317q0 -59 42.5 -99t101.5 -40q42 0 67.5 19t51.5 55q13 19 31 19q14 0 26 -10t12 -23q0 -10 -5 -22
q-17 -43 -71.5 -77.5t-116.5 -34.5zM153 287h278q-9 64 -45.5 98t-90.5 34q-59 0 -99 -38.5t-43 -93.5z" />
    <glyph glyph-name="uni1EC0" unicode="&#x1ec0;" 
d="M283 1007q-16 0 -27 11l-89 95q-10 10 -10 23q0 15 11.5 26.5t25.5 11.5q15 0 25 -13l89 -95q10 -9 10 -22q0 -15 -10.5 -26t-24.5 -11zM175 790q-13 0 -22 9t-9 22q0 12 13 25l101 101q12 11 25 11q12 0 24 -11l102 -101q13 -13 13 -25q0 -14 -9.5 -22.5t-21.5 -8.5
t-21 9l-87 87l-87 -87q-9 -9 -21 -9zM115 0q-14 0 -24.5 11t-10.5 27v663q0 15 10 26.5t25 11.5h366q14 0 24.5 -11.5t10.5 -27.5t-10.5 -26.5t-24.5 -10.5h-330v-256h256q15 0 25.5 -11t10.5 -27t-11 -26.5t-25 -10.5h-256v-257h330q14 0 24.5 -11t10.5 -27t-11 -26.5
t-24 -10.5h-366z" />
    <glyph glyph-name="uni1EC1" unicode="&#x1ec1;" 
d="M296 761q-16 0 -27 11l-89 95q-10 10 -10 23q0 15 11.5 26.5t25.5 11.5q15 0 25 -13l89 -95q10 -9 10 -22q0 -15 -10.5 -26t-24.5 -11zM188 544q-13 0 -22 9t-9 22q0 12 13 25l101 101q12 11 25 11q12 0 24 -11l102 -101q13 -13 13 -25q0 -14 -9.5 -22.5t-21.5 -8.5
t-21 9l-87 87l-87 -87q-9 -9 -21 -9zM292 0q-87 0 -150 64t-63 152v61q0 89 63 152.5t154 63.5q95 0 153 -68.5t58 -169.5q0 -21 -10.5 -31.5t-26.5 -10.5h-317q0 -59 42.5 -99t101.5 -40q42 0 67.5 19t51.5 55q13 19 31 19q14 0 26 -10t12 -23q0 -10 -5 -22
q-17 -43 -71.5 -77.5t-116.5 -34.5zM153 287h278q-9 64 -45.5 98t-90.5 34q-59 0 -99 -38.5t-43 -93.5z" />
    <glyph glyph-name="uni1EC2" unicode="&#x1ec2;" 
d="M283 1003q-14 0 -23 11t-7 25q6 32 24 49.5t35.5 21t32 13.5t14.5 30q0 14 -16 23t-43 9q-17 0 -27 -2q-13 -2 -23.5 7.5t-10.5 22.5q0 11 7.5 19.5t18.5 10.5t32 2q54 0 88 -25t34 -67q0 -37 -14.5 -57t-32.5 -24.5t-36 -15t-23 -30.5q-2 -10 -11 -16.5t-19 -6.5z
M175 790q-13 0 -22 9t-9 22q0 12 13 25l101 101q12 11 25 11q12 0 24 -11l102 -101q13 -13 13 -25q0 -14 -9.5 -22.5t-21.5 -8.5t-21 9l-87 87l-87 -87q-9 -9 -21 -9zM115 0q-14 0 -24.5 11t-10.5 27v663q0 15 10 26.5t25 11.5h366q14 0 24.5 -11.5t10.5 -27.5t-10.5 -26.5
t-24.5 -10.5h-330v-256h256q15 0 25.5 -11t10.5 -27t-11 -26.5t-25 -10.5h-256v-257h330q14 0 24.5 -11t10.5 -27t-11 -26.5t-24 -10.5h-366z" />
    <glyph glyph-name="uni1EC3" unicode="&#x1ec3;" 
d="M296 757q-14 0 -23 11t-7 25q6 32 24 49.5t35.5 21t32 13.5t14.5 30q0 14 -16 23t-43 9q-17 0 -27 -2q-13 -2 -23.5 7.5t-10.5 22.5q0 11 7.5 19.5t18.5 10.5t32 2q54 0 88 -25t34 -67q0 -37 -14.5 -57t-32.5 -24.5t-36 -15t-23 -30.5q-2 -10 -11 -16.5t-19 -6.5z
M188 544q-13 0 -22 9t-9 22q0 12 13 25l101 101q12 11 25 11q12 0 24 -11l102 -101q13 -13 13 -25q0 -14 -9.5 -22.5t-21.5 -8.5t-21 9l-87 87l-87 -87q-9 -9 -21 -9zM292 0q-87 0 -150 64t-63 152v61q0 89 63 152.5t154 63.5q95 0 153 -68.5t58 -169.5q0 -21 -10.5 -31.5
t-26.5 -10.5h-317q0 -59 42.5 -99t101.5 -40q42 0 67.5 19t51.5 55q13 19 31 19q14 0 26 -10t12 -23q0 -10 -5 -22q-17 -43 -71.5 -77.5t-116.5 -34.5zM153 287h278q-9 64 -45.5 98t-90.5 34q-59 0 -99 -38.5t-43 -93.5z" />
    <glyph glyph-name="uni1EC4" unicode="&#x1ec4;" 
d="M384 1081q8 15 26 15q12 0 21 -8.5t9 -21.5q0 -8 -5 -15q-29 -50 -79 -50q-30 0 -74.5 25t-51.5 25q-33 0 -49 -28q-8 -15 -26 -15q-12 0 -21 8.5t-9 21.5q0 7 4 15q34 58 101 58q23 0 67 -25t59 -25t28 20zM175 790q-13 0 -22 9t-9 22q0 12 13 25l101 101q12 11 25 11
q12 0 24 -11l102 -101q13 -13 13 -25q0 -14 -9.5 -22.5t-21.5 -8.5t-21 9l-87 87l-87 -87q-9 -9 -21 -9zM115 0q-14 0 -24.5 11t-10.5 27v663q0 15 10 26.5t25 11.5h366q14 0 24.5 -11.5t10.5 -27.5t-10.5 -26.5t-24.5 -10.5h-330v-256h256q15 0 25.5 -11t10.5 -27
t-11 -26.5t-25 -10.5h-256v-257h330q14 0 24.5 -11t10.5 -27t-11 -26.5t-24 -10.5h-366z" />
    <glyph glyph-name="uni1EC5" unicode="&#x1ec5;" 
d="M397 835q8 15 26 15q12 0 21 -8.5t9 -21.5q0 -8 -5 -15q-29 -50 -79 -50q-30 0 -74.5 25t-51.5 25q-33 0 -49 -28q-8 -15 -26 -15q-12 0 -21 8.5t-9 21.5q0 7 4 15q34 58 101 58q23 0 67 -25t59 -25t28 20zM188 544q-13 0 -22 9t-9 22q0 12 13 25l101 101q12 11 25 11
q12 0 24 -11l102 -101q13 -13 13 -25q0 -14 -9.5 -22.5t-21.5 -8.5t-21 9l-87 87l-87 -87q-9 -9 -21 -9zM292 0q-87 0 -150 64t-63 152v61q0 89 63 152.5t154 63.5q95 0 153 -68.5t58 -169.5q0 -21 -10.5 -31.5t-26.5 -10.5h-317q0 -59 42.5 -99t101.5 -40q42 0 67.5 19
t51.5 55q13 19 31 19q14 0 26 -10t12 -23q0 -10 -5 -22q-17 -43 -71.5 -77.5t-116.5 -34.5zM153 287h278q-9 64 -45.5 98t-90.5 34q-59 0 -99 -38.5t-43 -93.5z" />
    <glyph glyph-name="uni1EC6" unicode="&#x1ec6;" 
d="M175 790q-13 0 -22 9t-9 22q0 12 13 25l101 101q12 11 25 11q12 0 24 -11l102 -101q13 -13 13 -25q0 -14 -9.5 -22.5t-21.5 -8.5t-21 9l-87 87l-87 -87q-9 -9 -21 -9zM115 0q-14 0 -24.5 11t-10.5 27v663q0 15 10 26.5t25 11.5h366q14 0 24.5 -11.5t10.5 -27.5
t-10.5 -26.5t-24.5 -10.5h-330v-256h256q15 0 25.5 -11t10.5 -27t-11 -26.5t-25 -10.5h-256v-257h330q14 0 24.5 -11t10.5 -27t-11 -26.5t-24 -10.5h-366zM283 -218q-25 0 -43 18t-18 44t17.5 44.5t43.5 18.5q27 0 43.5 -19t16.5 -44t-17.5 -43.5t-42.5 -18.5z" />
    <glyph glyph-name="uni1EC7" unicode="&#x1ec7;" 
d="M188 544q-13 0 -22 9t-9 22q0 12 13 25l101 101q12 11 25 11q12 0 24 -11l102 -101q13 -13 13 -25q0 -14 -9.5 -22.5t-21.5 -8.5t-21 9l-87 87l-87 -87q-9 -9 -21 -9zM292 0q-87 0 -150 64t-63 152v61q0 89 63 152.5t154 63.5q95 0 153 -68.5t58 -169.5
q0 -21 -10.5 -31.5t-26.5 -10.5h-317q0 -59 42.5 -99t101.5 -40q42 0 67.5 19t51.5 55q13 19 31 19q14 0 26 -10t12 -23q0 -10 -5 -22q-17 -43 -71.5 -77.5t-116.5 -34.5zM153 287h278q-9 64 -45.5 98t-90.5 34q-59 0 -99 -38.5t-43 -93.5zM292 -218q-25 0 -43 18t-18 44
t17.5 44.5t43.5 18.5q27 0 43.5 -19t16.5 -44t-17.5 -43.5t-42.5 -18.5z" />
    <glyph glyph-name="uni1EC8" unicode="&#x1ec8;" 
d="M283 794q-14 0 -23 11t-7 25q6 32 24 49.5t35.5 21t32 13.5t14.5 30q0 14 -16 23t-43 9q-17 0 -27 -2q-13 -2 -23.5 7t-10.5 23q0 11 7.5 19.5t18.5 10.5t32 2q54 0 88 -25t34 -67q0 -37 -14.5 -57t-32.5 -24.5t-36 -15t-23 -30.5q-2 -10 -11 -16.5t-19 -6.5zM126 0
q-15 0 -25.5 11t-10.5 27q0 17 11 27t25 10h121v589h-121q-15 0 -25.5 11t-10.5 27q0 17 11 27t25 10h314q15 0 25.5 -10.5t10.5 -26.5q0 -17 -11 -27.5t-25 -10.5h-121v-589h121q15 0 25.5 -10.5t10.5 -26.5t-10 -27t-26 -11h-314z" />
    <glyph glyph-name="uni1EC9" unicode="&#x1ec9;" 
d="M303 548q-14 0 -23 11t-7 25q6 32 24 49.5t35.5 21t32 13.5t14.5 30q0 14 -16 23t-43 9q-17 0 -27 -2q-13 -2 -23.5 7t-10.5 23q0 11 7.5 19.5t18.5 10.5t32 2q54 0 88 -25t34 -67q0 -37 -14.5 -57t-32.5 -24.5t-36 -15t-23 -30.5q-2 -10 -11 -16.5t-19 -6.5zM96 0
q-16 0 -26.5 11t-10.5 27q0 14 11 26t26 12h170v341h-170q-16 0 -26.5 11t-10.5 27q0 14 11 26t26 12h207q15 0 26 -11.5t11 -26.5v-379h140q15 0 26 -11.5t11 -26.5q0 -16 -10.5 -27t-26.5 -11h-384z" />
    <glyph glyph-name="uni1ECA" unicode="&#x1eca;" 
d="M126 0q-15 0 -25.5 11t-10.5 27q0 17 11 27t25 10h121v589h-121q-15 0 -25.5 11t-10.5 27q0 17 11 27t25 10h314q15 0 25.5 -10.5t10.5 -26.5q0 -17 -11 -27.5t-25 -10.5h-121v-589h121q15 0 25.5 -10.5t10.5 -26.5t-10 -27t-26 -11h-314zM283 -218q-25 0 -43 18t-18 44
t17.5 44.5t43.5 18.5q27 0 43.5 -19t16.5 -44t-17.5 -43.5t-42.5 -18.5z" />
    <glyph glyph-name="uni1ECB" unicode="&#x1ecb;" 
d="M302 573q-26 0 -43 19t-17 43q0 26 17.5 44.5t42.5 18.5q28 0 44.5 -18.5t16.5 -44.5q0 -27 -17 -44.5t-44 -17.5zM106 0q-16 0 -26.5 11t-10.5 27q0 14 11 26t26 12h170v341h-170q-16 0 -26.5 11t-10.5 27q0 14 11 26t26 12h207q15 0 26 -11.5t11 -26.5v-379h140
q15 0 26 -11.5t11 -26.5q0 -16 -10.5 -27t-26.5 -11h-384zM313 -218q-25 0 -43 18t-18 44t17.5 44.5t43.5 18.5q27 0 43.5 -19t16.5 -44t-17.5 -43.5t-42.5 -18.5z" />
    <glyph glyph-name="uni1ECC" unicode="&#x1ecc;" 
d="M283 -3q-88 0 -149 64t-61 154v306q0 91 61.5 154.5t148.5 63.5t148.5 -64t61.5 -154v-306q0 -90 -61.5 -154t-148.5 -64zM283 72q58 0 97.5 43.5t39.5 99.5v306q0 58 -40 100t-97 42q-58 0 -97.5 -42.5t-39.5 -99.5v-306q0 -59 41 -101t96 -42zM283 -218q-25 0 -43 18
t-18 44t17.5 44.5t43.5 18.5q27 0 43.5 -19t16.5 -44t-17.5 -43.5t-42.5 -18.5z" />
    <glyph glyph-name="uni1ECD" unicode="&#x1ecd;" 
d="M283 0q-90 0 -152 64t-62 152v61q0 88 62.5 152t151.5 64q91 0 152.5 -64t61.5 -152v-61q0 -90 -63.5 -153t-150.5 -63zM283 74q58 0 99 42t41 100v61q0 59 -41 100.5t-99 41.5q-60 0 -100 -42t-40 -100v-61q0 -59 42 -100.5t98 -41.5zM283 -218q-25 0 -43 18t-18 44
t17.5 44.5t43.5 18.5q27 0 43.5 -19t16.5 -44t-17.5 -43.5t-42.5 -18.5z" />
    <glyph glyph-name="uni1ECE" unicode="&#x1ece;" 
d="M283 794q-14 0 -23 11t-7 25q6 32 24 49.5t35.5 21t32 13.5t14.5 30q0 14 -16 23t-43 9q-17 0 -27 -2q-13 -2 -23.5 7t-10.5 23q0 11 7.5 19.5t18.5 10.5t32 2q54 0 88 -25t34 -67q0 -37 -14.5 -57t-32.5 -24.5t-36 -15t-23 -30.5q-2 -10 -11 -16.5t-19 -6.5zM283 -3
q-88 0 -149 64t-61 154v306q0 91 61.5 154.5t148.5 63.5t148.5 -64t61.5 -154v-306q0 -90 -61.5 -154t-148.5 -64zM283 72q58 0 97.5 43.5t39.5 99.5v306q0 58 -40 100t-97 42q-58 0 -97.5 -42.5t-39.5 -99.5v-306q0 -59 41 -101t96 -42z" />
    <glyph glyph-name="uni1ECF" unicode="&#x1ecf;" 
d="M283 548q-14 0 -23 11t-7 25q6 32 24 49.5t35.5 21t32 13.5t14.5 30q0 14 -16 23t-43 9q-17 0 -27 -2q-13 -2 -23.5 7t-10.5 23q0 11 7.5 19.5t18.5 10.5t32 2q54 0 88 -25t34 -67q0 -37 -14.5 -57t-32.5 -24.5t-36 -15t-23 -30.5q-2 -10 -11 -16.5t-19 -6.5zM283 0
q-90 0 -152 64t-62 152v61q0 88 62.5 152t151.5 64q91 0 152.5 -64t61.5 -152v-61q0 -90 -63.5 -153t-150.5 -63zM283 74q58 0 99 42t41 100v61q0 59 -41 100.5t-99 41.5q-60 0 -100 -42t-40 -100v-61q0 -59 42 -100.5t98 -41.5z" />
    <glyph glyph-name="uni1ED0" unicode="&#x1ed0;" 
d="M281 1007q-14 0 -24.5 11t-10.5 26q0 13 10 22l89 95q10 13 25 13q14 0 25.5 -11.5t11.5 -26.5q0 -13 -10 -23l-89 -95q-11 -11 -27 -11zM175 790q-13 0 -22 9t-9 22q0 12 13 25l101 101q12 11 25 11q12 0 24 -11l102 -101q13 -13 13 -25q0 -14 -9.5 -22.5t-21.5 -8.5
t-21 9l-87 87l-87 -87q-9 -9 -21 -9zM283 -3q-88 0 -149 64t-61 154v306q0 91 61.5 154.5t148.5 63.5t148.5 -64t61.5 -154v-306q0 -90 -61.5 -154t-148.5 -64zM283 72q58 0 97.5 43.5t39.5 99.5v306q0 58 -40 100t-97 42q-58 0 -97.5 -42.5t-39.5 -99.5v-306q0 -59 41 -101
t96 -42z" />
    <glyph glyph-name="uni1ED1" unicode="&#x1ed1;" 
d="M281 761q-14 0 -24.5 11t-10.5 26q0 13 10 22l89 95q10 13 25 13q14 0 25.5 -11.5t11.5 -26.5q0 -13 -10 -23l-89 -95q-11 -11 -27 -11zM175 544q-13 0 -22 9t-9 22q0 12 13 25l101 101q12 11 25 11q12 0 24 -11l102 -101q13 -13 13 -25q0 -14 -9.5 -22.5t-21.5 -8.5
t-21 9l-87 87l-87 -87q-9 -9 -21 -9zM283 0q-90 0 -152 64t-62 152v61q0 88 62.5 152t151.5 64q91 0 152.5 -64t61.5 -152v-61q0 -90 -63.5 -153t-150.5 -63zM283 74q58 0 99 42t41 100v61q0 59 -41 100.5t-99 41.5q-60 0 -100 -42t-40 -100v-61q0 -59 42 -100.5t98 -41.5z
" />
    <glyph glyph-name="uni1ED2" unicode="&#x1ed2;" 
d="M283 1007q-16 0 -27 11l-89 95q-10 10 -10 23q0 15 11.5 26.5t25.5 11.5q15 0 25 -13l89 -95q10 -9 10 -22q0 -15 -10.5 -26t-24.5 -11zM175 790q-13 0 -22 9t-9 22q0 12 13 25l101 101q12 11 25 11q12 0 24 -11l102 -101q13 -13 13 -25q0 -14 -9.5 -22.5t-21.5 -8.5
t-21 9l-87 87l-87 -87q-9 -9 -21 -9zM283 -3q-88 0 -149 64t-61 154v306q0 91 61.5 154.5t148.5 63.5t148.5 -64t61.5 -154v-306q0 -90 -61.5 -154t-148.5 -64zM283 72q58 0 97.5 43.5t39.5 99.5v306q0 58 -40 100t-97 42q-58 0 -97.5 -42.5t-39.5 -99.5v-306q0 -59 41 -101
t96 -42z" />
    <glyph glyph-name="uni1ED3" unicode="&#x1ed3;" 
d="M283 761q-16 0 -27 11l-89 95q-10 10 -10 23q0 15 11.5 26.5t25.5 11.5q15 0 25 -13l89 -95q10 -9 10 -22q0 -15 -10.5 -26t-24.5 -11zM175 544q-13 0 -22 9t-9 22q0 12 13 25l101 101q12 11 25 11q12 0 24 -11l102 -101q13 -13 13 -25q0 -14 -9.5 -22.5t-21.5 -8.5
t-21 9l-87 87l-87 -87q-9 -9 -21 -9zM283 0q-90 0 -152 64t-62 152v61q0 88 62.5 152t151.5 64q91 0 152.5 -64t61.5 -152v-61q0 -90 -63.5 -153t-150.5 -63zM283 74q58 0 99 42t41 100v61q0 59 -41 100.5t-99 41.5q-60 0 -100 -42t-40 -100v-61q0 -59 42 -100.5t98 -41.5z
" />
    <glyph glyph-name="uni1ED4" unicode="&#x1ed4;" 
d="M283 1003q-14 0 -23 11t-7 25q6 32 24 49.5t35.5 21t32 13.5t14.5 30q0 14 -16 23t-43 9q-17 0 -27 -2q-13 -2 -23.5 7.5t-10.5 22.5q0 11 7.5 19.5t18.5 10.5t32 2q54 0 88 -25t34 -67q0 -37 -14.5 -57t-32.5 -24.5t-36 -15t-23 -30.5q-2 -10 -11 -16.5t-19 -6.5z
M175 790q-13 0 -22 9t-9 22q0 12 13 25l101 101q12 11 25 11q12 0 24 -11l102 -101q13 -13 13 -25q0 -14 -9.5 -22.5t-21.5 -8.5t-21 9l-87 87l-87 -87q-9 -9 -21 -9zM283 -3q-88 0 -149 64t-61 154v306q0 91 61.5 154.5t148.5 63.5t148.5 -64t61.5 -154v-306
q0 -90 -61.5 -154t-148.5 -64zM283 72q58 0 97.5 43.5t39.5 99.5v306q0 58 -40 100t-97 42q-58 0 -97.5 -42.5t-39.5 -99.5v-306q0 -59 41 -101t96 -42z" />
    <glyph glyph-name="uni1ED5" unicode="&#x1ed5;" 
d="M283 757q-14 0 -23 11t-7 25q6 32 24 49.5t35.5 21t32 13.5t14.5 30q0 14 -16 23t-43 9q-17 0 -27 -2q-13 -2 -23.5 7.5t-10.5 22.5q0 11 7.5 19.5t18.5 10.5t32 2q54 0 88 -25t34 -67q0 -37 -14.5 -57t-32.5 -24.5t-36 -15t-23 -30.5q-2 -10 -11 -16.5t-19 -6.5z
M175 544q-13 0 -22 9t-9 22q0 12 13 25l101 101q12 11 25 11q12 0 24 -11l102 -101q13 -13 13 -25q0 -14 -9.5 -22.5t-21.5 -8.5t-21 9l-87 87l-87 -87q-9 -9 -21 -9zM283 0q-90 0 -152 64t-62 152v61q0 88 62.5 152t151.5 64q91 0 152.5 -64t61.5 -152v-61
q0 -90 -63.5 -153t-150.5 -63zM283 74q58 0 99 42t41 100v61q0 59 -41 100.5t-99 41.5q-60 0 -100 -42t-40 -100v-61q0 -59 42 -100.5t98 -41.5z" />
    <glyph glyph-name="uni1ED6" unicode="&#x1ed6;" 
d="M384 1081q8 15 26 15q12 0 21 -8.5t9 -21.5q0 -8 -5 -15q-29 -50 -79 -50q-30 0 -74.5 25t-51.5 25q-33 0 -49 -28q-8 -15 -26 -15q-12 0 -21 8.5t-9 21.5q0 7 4 15q34 58 101 58q23 0 67 -25t59 -25t28 20zM175 790q-13 0 -22 9t-9 22q0 12 13 25l101 101q12 11 25 11
q12 0 24 -11l102 -101q13 -13 13 -25q0 -14 -9.5 -22.5t-21.5 -8.5t-21 9l-87 87l-87 -87q-9 -9 -21 -9zM283 -3q-88 0 -149 64t-61 154v306q0 91 61.5 154.5t148.5 63.5t148.5 -64t61.5 -154v-306q0 -90 -61.5 -154t-148.5 -64zM283 72q58 0 97.5 43.5t39.5 99.5v306
q0 58 -40 100t-97 42q-58 0 -97.5 -42.5t-39.5 -99.5v-306q0 -59 41 -101t96 -42z" />
    <glyph glyph-name="uni1ED7" unicode="&#x1ed7;" 
d="M384 835q8 15 26 15q12 0 21 -8.5t9 -21.5q0 -8 -5 -15q-29 -50 -79 -50q-30 0 -74.5 25t-51.5 25q-33 0 -49 -28q-8 -15 -26 -15q-12 0 -21 8.5t-9 21.5q0 7 4 15q34 58 101 58q23 0 67 -25t59 -25t28 20zM175 544q-13 0 -22 9t-9 22q0 12 13 25l101 101q12 11 25 11
q12 0 24 -11l102 -101q13 -13 13 -25q0 -14 -9.5 -22.5t-21.5 -8.5t-21 9l-87 87l-87 -87q-9 -9 -21 -9zM283 0q-90 0 -152 64t-62 152v61q0 88 62.5 152t151.5 64q91 0 152.5 -64t61.5 -152v-61q0 -90 -63.5 -153t-150.5 -63zM283 74q58 0 99 42t41 100v61q0 59 -41 100.5
t-99 41.5q-60 0 -100 -42t-40 -100v-61q0 -59 42 -100.5t98 -41.5z" />
    <glyph glyph-name="uni1ED8" unicode="&#x1ed8;" 
d="M175 790q-13 0 -22 9t-9 22q0 12 13 25l101 101q12 11 25 11q12 0 24 -11l102 -101q13 -13 13 -25q0 -14 -9.5 -22.5t-21.5 -8.5t-21 9l-87 87l-87 -87q-9 -9 -21 -9zM283 -3q-88 0 -149 64t-61 154v306q0 91 61.5 154.5t148.5 63.5t148.5 -64t61.5 -154v-306
q0 -90 -61.5 -154t-148.5 -64zM283 72q58 0 97.5 43.5t39.5 99.5v306q0 58 -40 100t-97 42q-58 0 -97.5 -42.5t-39.5 -99.5v-306q0 -59 41 -101t96 -42zM283 -218q-25 0 -43 18t-18 44t17.5 44.5t43.5 18.5q27 0 43.5 -19t16.5 -44t-17.5 -43.5t-42.5 -18.5z" />
    <glyph glyph-name="uni1ED9" unicode="&#x1ed9;" 
d="M175 544q-13 0 -22 9t-9 22q0 12 13 25l101 101q12 11 25 11q12 0 24 -11l102 -101q13 -13 13 -25q0 -14 -9.5 -22.5t-21.5 -8.5t-21 9l-87 87l-87 -87q-9 -9 -21 -9zM283 0q-90 0 -152 64t-62 152v61q0 88 62.5 152t151.5 64q91 0 152.5 -64t61.5 -152v-61
q0 -90 -63.5 -153t-150.5 -63zM283 74q58 0 99 42t41 100v61q0 59 -41 100.5t-99 41.5q-60 0 -100 -42t-40 -100v-61q0 -59 42 -100.5t98 -41.5zM283 -218q-25 0 -43 18t-18 44t17.5 44.5t43.5 18.5q27 0 43.5 -19t16.5 -44t-17.5 -43.5t-42.5 -18.5z" />
    <glyph glyph-name="uni1EDA" unicode="&#x1eda;" 
d="M281 798q-14 0 -24.5 11t-10.5 26q0 13 10 22l89 95q10 13 25 13q14 0 25.5 -11.5t11.5 -26.5q0 -13 -10 -23l-89 -95q-11 -11 -27 -11zM510 796q13 0 22 -9.5t8 -22.5q-8 -105 -74 -137q27 -49 27 -106v-306q0 -90 -61.5 -154t-148.5 -64q-88 0 -149 64t-61 154v306
q0 91 61.5 154.5t148.5 63.5q94 0 156 -73q37 22 42 101q1 12 9 20.5t20 8.5zM420 215v306q0 58 -40 100t-97 42q-58 0 -97.5 -42.5t-39.5 -99.5v-306q0 -59 41 -101t96 -42q58 0 97.5 43.5t39.5 99.5z" />
    <glyph glyph-name="uni1EDB" unicode="&#x1edb;" 
d="M281 552q-14 0 -24.5 11t-10.5 26q0 13 10 22l89 95q10 13 25 13q14 0 25.5 -11.5t11.5 -26.5q0 -13 -10 -23l-89 -95q-11 -11 -27 -11zM526 535q-6 -100 -68 -134q39 -55 39 -124v-61q0 -90 -63.5 -153t-150.5 -63q-90 0 -152 64t-62 152v61q0 88 62.5 152t151.5 64
q83 0 143 -55q36 22 41 100q1 12 9 20.5t20 8.5q13 0 22 -9.5t8 -22.5zM423 216v61q0 59 -41 100.5t-99 41.5q-60 0 -100 -42t-40 -100v-61q0 -59 42 -100.5t98 -41.5q58 0 99 42t41 100z" />
    <glyph glyph-name="uni1EDC" unicode="&#x1edc;" 
d="M256 809l-89 95q-10 10 -10 23q0 15 11.5 26.5t25.5 11.5q15 0 25 -13l89 -95q10 -9 10 -22q0 -15 -10.5 -26t-24.5 -11q-16 0 -27 11zM510 796q13 0 22 -9.5t8 -22.5q-8 -105 -74 -137q27 -49 27 -106v-306q0 -90 -61.5 -154t-148.5 -64q-88 0 -149 64t-61 154v306
q0 91 61.5 154.5t148.5 63.5q94 0 156 -73q37 22 42 101q1 12 9 20.5t20 8.5zM420 215v306q0 58 -40 100t-97 42q-58 0 -97.5 -42.5t-39.5 -99.5v-306q0 -59 41 -101t96 -42q58 0 97.5 43.5t39.5 99.5z" />
    <glyph glyph-name="uni1EDD" unicode="&#x1edd;" 
d="M256 563l-89 95q-10 10 -10 23q0 15 11.5 26.5t25.5 11.5q15 0 25 -13l89 -95q10 -9 10 -22q0 -15 -10.5 -26t-24.5 -11q-16 0 -27 11zM526 535q-6 -100 -68 -134q39 -55 39 -124v-61q0 -90 -63.5 -153t-150.5 -63q-90 0 -152 64t-62 152v61q0 88 62.5 152t151.5 64
q83 0 143 -55q36 22 41 100q1 12 9 20.5t20 8.5q13 0 22 -9.5t8 -22.5zM423 216v61q0 59 -41 100.5t-99 41.5q-60 0 -100 -42t-40 -100v-61q0 -59 42 -100.5t98 -41.5q58 0 99 42t41 100z" />
    <glyph glyph-name="uni1EDE" unicode="&#x1ede;" 
d="M273 974q-13 -2 -23.5 7t-10.5 23q0 11 7.5 19.5t18.5 10.5t32 2q54 0 88 -25t34 -67q0 -37 -14.5 -57t-32.5 -24.5t-36 -15t-23 -30.5q-2 -10 -11 -16.5t-19 -6.5q-14 0 -23 11t-7 25q6 32 24 49.5t35.5 21t32 13.5t14.5 30q0 14 -16 23t-43 9q-17 0 -27 -2zM510 796
q13 0 22 -9.5t8 -22.5q-8 -105 -74 -137q27 -49 27 -106v-306q0 -90 -61.5 -154t-148.5 -64q-88 0 -149 64t-61 154v306q0 91 61.5 154.5t148.5 63.5q94 0 156 -73q37 22 42 101q1 12 9 20.5t20 8.5zM420 215v306q0 58 -40 100t-97 42q-58 0 -97.5 -42.5t-39.5 -99.5v-306
q0 -59 41 -101t96 -42q58 0 97.5 43.5t39.5 99.5z" />
    <glyph glyph-name="uni1EDF" unicode="&#x1edf;" 
d="M273 728q-13 -2 -23.5 7t-10.5 23q0 11 7.5 19.5t18.5 10.5t32 2q54 0 88 -25t34 -67q0 -37 -14.5 -57t-32.5 -24.5t-36 -15t-23 -30.5q-2 -10 -11 -16.5t-19 -6.5q-14 0 -23 11t-7 25q6 32 24 49.5t35.5 21t32 13.5t14.5 30q0 14 -16 23t-43 9q-17 0 -27 -2zM526 535
q-6 -100 -68 -134q39 -55 39 -124v-61q0 -90 -63.5 -153t-150.5 -63q-90 0 -152 64t-62 152v61q0 88 62.5 152t151.5 64q83 0 143 -55q36 22 41 100q1 12 9 20.5t20 8.5q13 0 22 -9.5t8 -22.5zM423 216v61q0 59 -41 100.5t-99 41.5q-60 0 -100 -42t-40 -100v-61
q0 -59 42 -100.5t98 -41.5q58 0 99 42t41 100z" />
    <glyph glyph-name="uni1EE0" unicode="&#x1ee0;" 
d="M155 799q-12 0 -21 8.5t-9 21.5q0 7 4 15q34 58 101 58q23 0 67 -25t59 -25t28 20q8 15 26 15q12 0 21 -8.5t9 -21.5q0 -8 -5 -15q-29 -50 -79 -50q-30 0 -74.5 25t-51.5 25q-33 0 -49 -28q-8 -15 -26 -15zM510 796q13 0 22 -9.5t8 -22.5q-8 -105 -74 -137
q27 -49 27 -106v-306q0 -90 -61.5 -154t-148.5 -64q-88 0 -149 64t-61 154v306q0 91 61.5 154.5t148.5 63.5q94 0 156 -73q37 22 42 101q1 12 9 20.5t20 8.5zM420 215v306q0 58 -40 100t-97 42q-58 0 -97.5 -42.5t-39.5 -99.5v-306q0 -59 41 -101t96 -42q58 0 97.5 43.5
t39.5 99.5z" />
    <glyph glyph-name="uni1EE1" unicode="&#x1ee1;" 
d="M155 553q-12 0 -21 8.5t-9 21.5q0 7 4 15q34 58 101 58q23 0 67 -25t59 -25t28 20q8 15 26 15q12 0 21 -8.5t9 -21.5q0 -8 -5 -15q-29 -50 -79 -50q-30 0 -74.5 25t-51.5 25q-33 0 -49 -28q-8 -15 -26 -15zM526 535q-6 -100 -68 -134q39 -55 39 -124v-61
q0 -90 -63.5 -153t-150.5 -63q-90 0 -152 64t-62 152v61q0 88 62.5 152t151.5 64q83 0 143 -55q36 22 41 100q1 12 9 20.5t20 8.5q13 0 22 -9.5t8 -22.5zM423 216v61q0 59 -41 100.5t-99 41.5q-60 0 -100 -42t-40 -100v-61q0 -59 42 -100.5t98 -41.5q58 0 99 42t41 100z" />
    <glyph glyph-name="uni1EE2" unicode="&#x1ee2;" 
d="M510 796q13 0 22 -9.5t8 -22.5q-8 -105 -74 -137q27 -49 27 -106v-306q0 -90 -61.5 -154t-148.5 -64q-88 0 -149 64t-61 154v306q0 91 61.5 154.5t148.5 63.5q94 0 156 -73q37 22 42 101q1 12 9 20.5t20 8.5zM420 215v306q0 58 -40 100t-97 42q-58 0 -97.5 -42.5
t-39.5 -99.5v-306q0 -59 41 -101t96 -42q58 0 97.5 43.5t39.5 99.5zM283 -93q27 0 43.5 -19t16.5 -44t-17.5 -43.5t-42.5 -18.5t-43 18t-18 44t17.5 44.5t43.5 18.5z" />
    <glyph glyph-name="uni1EE3" unicode="&#x1ee3;" 
d="M526 535q-6 -100 -68 -134q39 -55 39 -124v-61q0 -90 -63.5 -153t-150.5 -63q-90 0 -152 64t-62 152v61q0 88 62.5 152t151.5 64q83 0 143 -55q36 22 41 100q1 12 9 20.5t20 8.5q13 0 22 -9.5t8 -22.5zM423 216v61q0 59 -41 100.5t-99 41.5q-60 0 -100 -42t-40 -100v-61
q0 -59 42 -100.5t98 -41.5q58 0 99 42t41 100zM283 -93q27 0 43.5 -19t16.5 -44t-17.5 -43.5t-42.5 -18.5t-43 18t-18 44t17.5 44.5t43.5 18.5z" />
    <glyph glyph-name="uni1EE4" unicode="&#x1ee4;" 
d="M283 0q-89 0 -149.5 65t-60.5 154v482q0 15 10.5 26.5t25.5 11.5t25.5 -11.5t10.5 -26.5v-482q0 -59 40 -101.5t98 -42.5t98 43.5t40 100.5v482q0 15 10.5 26.5t25.5 11.5t25.5 -11.5t10.5 -26.5v-482q0 -92 -61.5 -155.5t-148.5 -63.5zM283 -218q-25 0 -43 18t-18 44
t17.5 44.5t43.5 18.5q27 0 43.5 -19t16.5 -44t-17.5 -43.5t-42.5 -18.5z" />
    <glyph glyph-name="uni1EE5" unicode="&#x1ee5;" 
d="M258 0q-92 0 -140.5 55t-48.5 161v240q0 15 11 26t26 11t26 -11t11 -26v-240q0 -70 34.5 -106t99.5 -36t105 42q41 43 41 100v240q0 15 11 26t26 11t26 -11t11 -26v-419q0 -16 -10.5 -26.5t-26.5 -10.5t-26.5 10.5t-10.5 26.5v56q-31 -49 -70 -71t-95 -22zM265 -218
q-25 0 -43 18t-18 44t17.5 44.5t43.5 18.5q27 0 43.5 -19t16.5 -44t-17.5 -43.5t-42.5 -18.5z" />
    <glyph glyph-name="uni1EE6" unicode="&#x1ee6;" 
d="M283 794q-14 0 -23 11t-7 25q6 32 24 49.5t35.5 21t32 13.5t14.5 30q0 14 -16 23t-43 9q-17 0 -27 -2q-13 -2 -23.5 7t-10.5 23q0 11 7.5 19.5t18.5 10.5t32 2q54 0 88 -25t34 -67q0 -37 -14.5 -57t-32.5 -24.5t-36 -15t-23 -30.5q-2 -10 -11 -16.5t-19 -6.5zM283 0
q-89 0 -149.5 65t-60.5 154v482q0 15 10.5 26.5t25.5 11.5t25.5 -11.5t10.5 -26.5v-482q0 -59 40 -101.5t98 -42.5t98 43.5t40 100.5v482q0 15 10.5 26.5t25.5 11.5t25.5 -11.5t10.5 -26.5v-482q0 -92 -61.5 -155.5t-148.5 -63.5z" />
    <glyph glyph-name="uni1EE7" unicode="&#x1ee7;" 
d="M283 548q-14 0 -23 11t-7 25q6 32 24 49.5t35.5 21t32 13.5t14.5 30q0 14 -16 23t-43 9q-17 0 -27 -2q-13 -2 -23.5 7t-10.5 23q0 11 7.5 19.5t18.5 10.5t32 2q54 0 88 -25t34 -67q0 -37 -14.5 -57t-32.5 -24.5t-36 -15t-23 -30.5q-2 -10 -11 -16.5t-19 -6.5zM258 0
q-92 0 -140.5 55t-48.5 161v240q0 15 11 26t26 11t26 -11t11 -26v-240q0 -70 34.5 -106t99.5 -36t105 42q41 43 41 100v240q0 15 11 26t26 11t26 -11t11 -26v-419q0 -16 -10.5 -26.5t-26.5 -10.5t-26.5 10.5t-10.5 26.5v56q-31 -49 -70 -71t-95 -22z" />
    <glyph glyph-name="uni1EE8" unicode="&#x1ee8;" 
d="M281 798q-14 0 -24.5 11t-10.5 26q0 13 10 22l89 95q10 13 25 13q14 0 25.5 -11.5t11.5 -26.5q0 -13 -10 -23l-89 -95q-11 -11 -27 -11zM559 741q13 0 22 -9.5t8 -22.5q-7 -115 -90 -143q-2 -1 -6 -1v-346q0 -92 -61.5 -155.5t-148.5 -63.5q-89 0 -149.5 65t-60.5 154
v482q0 15 10.5 26.5t25.5 11.5t25.5 -11.5t10.5 -26.5v-482q0 -59 40 -101.5t98 -42.5t98 43.5t40 100.5v482q0 15 10.5 26.5t25.5 11.5t25.5 -11.5t10.5 -26.5v-87q32 24 37 98q1 12 9 20.5t20 8.5z" />
    <glyph glyph-name="uni1EE9" unicode="&#x1ee9;" 
d="M281 552q-14 0 -24.5 11t-10.5 26q0 13 10 22l89 95q10 13 25 13q14 0 25.5 -11.5t11.5 -26.5q0 -13 -10 -23l-89 -95q-11 -11 -27 -11zM568 544q13 0 22 -9.5t8 -22.5q-7 -115 -90 -143q-8 -2 -11 -1v-331q0 -16 -10.5 -26.5t-26.5 -10.5t-26.5 10.5t-10.5 26.5v56
q-31 -49 -70 -71t-95 -22q-92 0 -140.5 55t-48.5 161v240q0 15 11 26t26 11t26 -11t11 -26v-240q0 -70 34.5 -106t99.5 -36t105 42q41 43 41 100v240q0 15 11 26t26 11t26 -11t11 -26v-42q37 22 42 101q1 12 9 20.5t20 8.5z" />
    <glyph glyph-name="uni1EEA" unicode="&#x1eea;" 
d="M256 809l-89 95q-10 10 -10 23q0 15 11.5 26.5t25.5 11.5q15 0 25 -13l89 -95q10 -9 10 -22q0 -15 -10.5 -26t-24.5 -11q-16 0 -27 11zM559 741q13 0 22 -9.5t8 -22.5q-7 -115 -90 -143q-2 -1 -6 -1v-346q0 -92 -61.5 -155.5t-148.5 -63.5q-89 0 -149.5 65t-60.5 154v482
q0 15 10.5 26.5t25.5 11.5t25.5 -11.5t10.5 -26.5v-482q0 -59 40 -101.5t98 -42.5t98 43.5t40 100.5v482q0 15 10.5 26.5t25.5 11.5t25.5 -11.5t10.5 -26.5v-87q32 24 37 98q1 12 9 20.5t20 8.5z" />
    <glyph glyph-name="uni1EEB" unicode="&#x1eeb;" 
d="M256 563l-89 95q-10 10 -10 23q0 15 11.5 26.5t25.5 11.5q15 0 25 -13l89 -95q10 -9 10 -22q0 -15 -10.5 -26t-24.5 -11q-16 0 -27 11zM568 544q13 0 22 -9.5t8 -22.5q-7 -115 -90 -143q-8 -2 -11 -1v-331q0 -16 -10.5 -26.5t-26.5 -10.5t-26.5 10.5t-10.5 26.5v56
q-31 -49 -70 -71t-95 -22q-92 0 -140.5 55t-48.5 161v240q0 15 11 26t26 11t26 -11t11 -26v-240q0 -70 34.5 -106t99.5 -36t105 42q41 43 41 100v240q0 15 11 26t26 11t26 -11t11 -26v-42q37 22 42 101q1 12 9 20.5t20 8.5z" />
    <glyph glyph-name="uni1EEC" unicode="&#x1eec;" 
d="M273 974q-13 -2 -23.5 7t-10.5 23q0 11 7.5 19.5t18.5 10.5t32 2q54 0 88 -25t34 -67q0 -37 -14.5 -57t-32.5 -24.5t-36 -15t-23 -30.5q-2 -10 -11 -16.5t-19 -6.5q-14 0 -23 11t-7 25q6 32 24 49.5t35.5 21t32 13.5t14.5 30q0 14 -16 23t-43 9q-17 0 -27 -2zM559 741
q13 0 22 -9.5t8 -22.5q-7 -115 -90 -143q-2 -1 -6 -1v-346q0 -92 -61.5 -155.5t-148.5 -63.5q-89 0 -149.5 65t-60.5 154v482q0 15 10.5 26.5t25.5 11.5t25.5 -11.5t10.5 -26.5v-482q0 -59 40 -101.5t98 -42.5t98 43.5t40 100.5v482q0 15 10.5 26.5t25.5 11.5t25.5 -11.5
t10.5 -26.5v-87q32 24 37 98q1 12 9 20.5t20 8.5z" />
    <glyph glyph-name="uni1EED" unicode="&#x1eed;" 
d="M273 728q-13 -2 -23.5 7t-10.5 23q0 11 7.5 19.5t18.5 10.5t32 2q54 0 88 -25t34 -67q0 -37 -14.5 -57t-32.5 -24.5t-36 -15t-23 -30.5q-2 -10 -11 -16.5t-19 -6.5q-14 0 -23 11t-7 25q6 32 24 49.5t35.5 21t32 13.5t14.5 30q0 14 -16 23t-43 9q-17 0 -27 -2zM568 544
q13 0 22 -9.5t8 -22.5q-7 -115 -90 -143q-8 -2 -11 -1v-331q0 -16 -10.5 -26.5t-26.5 -10.5t-26.5 10.5t-10.5 26.5v56q-31 -49 -70 -71t-95 -22q-92 0 -140.5 55t-48.5 161v240q0 15 11 26t26 11t26 -11t11 -26v-240q0 -70 34.5 -106t99.5 -36t105 42q41 43 41 100v240
q0 15 11 26t26 11t26 -11t11 -26v-42q37 22 42 101q1 12 9 20.5t20 8.5z" />
    <glyph glyph-name="uni1EEE" unicode="&#x1eee;" 
d="M155 799q-12 0 -21 8.5t-9 21.5q0 7 4 15q34 58 101 58q23 0 67 -25t59 -25t28 20q8 15 26 15q12 0 21 -8.5t9 -21.5q0 -8 -5 -15q-29 -50 -79 -50q-30 0 -74.5 25t-51.5 25q-33 0 -49 -28q-8 -15 -26 -15zM559 741q13 0 22 -9.5t8 -22.5q-7 -115 -90 -143q-2 -1 -6 -1
v-346q0 -92 -61.5 -155.5t-148.5 -63.5q-89 0 -149.5 65t-60.5 154v482q0 15 10.5 26.5t25.5 11.5t25.5 -11.5t10.5 -26.5v-482q0 -59 40 -101.5t98 -42.5t98 43.5t40 100.5v482q0 15 10.5 26.5t25.5 11.5t25.5 -11.5t10.5 -26.5v-87q32 24 37 98q1 12 9 20.5t20 8.5z" />
    <glyph glyph-name="uni1EEF" unicode="&#x1eef;" 
d="M155 553q-12 0 -21 8.5t-9 21.5q0 7 4 15q34 58 101 58q23 0 67 -25t59 -25t28 20q8 15 26 15q12 0 21 -8.5t9 -21.5q0 -8 -5 -15q-29 -50 -79 -50q-30 0 -74.5 25t-51.5 25q-33 0 -49 -28q-8 -15 -26 -15zM568 544q13 0 22 -9.5t8 -22.5q-7 -115 -90 -143q-8 -2 -11 -1
v-331q0 -16 -10.5 -26.5t-26.5 -10.5t-26.5 10.5t-10.5 26.5v56q-31 -49 -70 -71t-95 -22q-92 0 -140.5 55t-48.5 161v240q0 15 11 26t26 11t26 -11t11 -26v-240q0 -70 34.5 -106t99.5 -36t105 42q41 43 41 100v240q0 15 11 26t26 11t26 -11t11 -26v-42q37 22 42 101
q1 12 9 20.5t20 8.5z" />
    <glyph glyph-name="uni1EF0" unicode="&#x1ef0;" 
d="M559 741q13 0 22 -9.5t8 -22.5q-7 -115 -90 -143q-2 -1 -6 -1v-346q0 -92 -61.5 -155.5t-148.5 -63.5q-89 0 -149.5 65t-60.5 154v482q0 15 10.5 26.5t25.5 11.5t25.5 -11.5t10.5 -26.5v-482q0 -59 40 -101.5t98 -42.5t98 43.5t40 100.5v482q0 15 10.5 26.5t25.5 11.5
t25.5 -11.5t10.5 -26.5v-87q32 24 37 98q1 12 9 20.5t20 8.5zM283 -93q27 0 43.5 -19t16.5 -44t-17.5 -43.5t-42.5 -18.5t-43 18t-18 44t17.5 44.5t43.5 18.5z" />
    <glyph glyph-name="uni1EF1" unicode="&#x1ef1;" 
d="M568 544q13 0 22 -9.5t8 -22.5q-7 -115 -90 -143q-8 -2 -11 -1v-331q0 -16 -10.5 -26.5t-26.5 -10.5t-26.5 10.5t-10.5 26.5v56q-31 -49 -70 -71t-95 -22q-92 0 -140.5 55t-48.5 161v240q0 15 11 26t26 11t26 -11t11 -26v-240q0 -70 34.5 -106t99.5 -36t105 42
q41 43 41 100v240q0 15 11 26t26 11t26 -11t11 -26v-42q37 22 42 101q1 12 9 20.5t20 8.5zM265 -93q27 0 43.5 -19t16.5 -44t-17.5 -43.5t-42.5 -18.5t-43 18t-18 44t17.5 44.5t43.5 18.5z" />
    <glyph glyph-name="Ygrave" unicode="&#x1ef2;" 
d="M283 798q-16 0 -27 11l-89 95q-10 10 -10 23q0 15 11.5 26.5t25.5 11.5q15 0 25 -13l89 -95q10 -9 10 -22q0 -15 -10.5 -26t-24.5 -11zM283 0q-15 0 -25.5 11t-10.5 27v322l-163 323q-5 12 -5 18q0 15 11 26.5t25 11.5q21 0 32 -21l136 -268l136 268q11 21 32 21
q14 0 25 -11.5t11 -26.5q0 -6 -5 -18l-163 -323v-322q0 -17 -11 -27.5t-25 -10.5z" />
    <glyph glyph-name="ygrave" unicode="&#x1ef3;" 
d="M303 552q-16 0 -27 11l-89 95q-10 10 -10 23q0 15 11.5 26.5t25.5 11.5q15 0 25 -13l89 -95q10 -9 10 -22q0 -15 -10.5 -26t-24.5 -11zM213 -230q-15 0 -26 10.5t-11 26.5q0 7 3 15l84 204l-171 415q-3 8 -3 14q0 16 12.5 27.5t25.5 11.5q24 0 33 -24l143 -348l143 348
q9 24 33 24q15 0 26.5 -12t11.5 -27q0 -6 -3 -14l-267 -648q-10 -23 -34 -23z" />
    <glyph glyph-name="uni1EF4" unicode="&#x1ef4;" 
d="M283 0q-15 0 -25.5 11t-10.5 27v322l-163 323q-5 12 -5 18q0 15 11 26.5t25 11.5q21 0 32 -21l136 -268l136 268q11 21 32 21q14 0 25 -11.5t11 -26.5q0 -6 -5 -18l-163 -323v-322q0 -17 -11 -27.5t-25 -10.5zM283 -218q-25 0 -43 18t-18 44t17.5 44.5t43.5 18.5
q27 0 43.5 -19t16.5 -44t-17.5 -43.5t-42.5 -18.5z" />
    <glyph glyph-name="uni1EF5" unicode="&#x1ef5;" 
d="M213 -230q-15 0 -26 10.5t-11 26.5q0 7 3 15l84 204l-171 415q-3 8 -3 14q0 16 12.5 27.5t25.5 11.5q24 0 33 -24l143 -348l143 348q9 24 33 24q15 0 26.5 -12t11.5 -27q0 -6 -3 -14l-267 -648q-10 -23 -34 -23zM431 -222q-25 0 -43 18t-18 44t17.5 44.5t43.5 18.5
q27 0 43.5 -19t16.5 -44t-17.5 -43.5t-42.5 -18.5z" />
    <glyph glyph-name="uni1EF6" unicode="&#x1ef6;" 
d="M283 794q-14 0 -23 11t-7 25q6 32 24 49.5t35.5 21t32 13.5t14.5 30q0 14 -16 23t-43 9q-17 0 -27 -2q-13 -2 -23.5 7t-10.5 23q0 11 7.5 19.5t18.5 10.5t32 2q54 0 88 -25t34 -67q0 -37 -14.5 -57t-32.5 -24.5t-36 -15t-23 -30.5q-2 -10 -11 -16.5t-19 -6.5zM283 0
q-15 0 -25.5 11t-10.5 27v322l-163 323q-5 12 -5 18q0 15 11 26.5t25 11.5q21 0 32 -21l136 -268l136 268q11 21 32 21q14 0 25 -11.5t11 -26.5q0 -6 -5 -18l-163 -323v-322q0 -17 -11 -27.5t-25 -10.5z" />
    <glyph glyph-name="uni1EF7" unicode="&#x1ef7;" 
d="M303 548q-14 0 -23 11t-7 25q6 32 24 49.5t35.5 21t32 13.5t14.5 30q0 14 -16 23t-43 9q-17 0 -27 -2q-13 -2 -23.5 7t-10.5 23q0 11 7.5 19.5t18.5 10.5t32 2q54 0 88 -25t34 -67q0 -37 -14.5 -57t-32.5 -24.5t-36 -15t-23 -30.5q-2 -10 -11 -16.5t-19 -6.5zM213 -230
q-15 0 -26 10.5t-11 26.5q0 7 3 15l84 204l-171 415q-3 8 -3 14q0 16 12.5 27.5t25.5 11.5q24 0 33 -24l143 -348l143 348q9 24 33 24q15 0 26.5 -12t11.5 -27q0 -6 -3 -14l-267 -648q-10 -23 -34 -23z" />
    <glyph glyph-name="uni1EF8" unicode="&#x1ef8;" 
d="M384 872q8 15 26 15q12 0 21 -8.5t9 -21.5q0 -8 -5 -15q-29 -50 -79 -50q-30 0 -74.5 25t-51.5 25q-33 0 -49 -28q-8 -15 -26 -15q-12 0 -21 8.5t-9 21.5q0 7 4 15q34 58 101 58q23 0 67 -25t59 -25t28 20zM283 0q-15 0 -25.5 11t-10.5 27v322l-163 323q-5 12 -5 18
q0 15 11 26.5t25 11.5q21 0 32 -21l136 -268l136 268q11 21 32 21q14 0 25 -11.5t11 -26.5q0 -6 -5 -18l-163 -323v-322q0 -17 -11 -27.5t-25 -10.5z" />
    <glyph glyph-name="uni1EF9" unicode="&#x1ef9;" 
d="M404 626q8 15 26 15q12 0 21 -8.5t9 -21.5q0 -8 -5 -15q-29 -50 -79 -50q-30 0 -74.5 25t-51.5 25q-33 0 -49 -28q-8 -15 -26 -15q-12 0 -21 8.5t-9 21.5q0 7 4 15q34 58 101 58q23 0 67 -25t59 -25t28 20zM213 -230q-15 0 -26 10.5t-11 26.5q0 7 3 15l84 204l-171 415
q-3 8 -3 14q0 16 12.5 27.5t25.5 11.5q24 0 33 -24l143 -348l143 348q9 24 33 24q15 0 26.5 -12t11.5 -27q0 -6 -3 -14l-267 -648q-10 -23 -34 -23z" />
    </font>
</defs>
</svg>
