<svg id="Layer_1" data-name="Layer 1" xmlns="http://www.w3.org/2000/svg" viewBox="0 0 4383.98 4856"><defs><style>.cls-1,.cls-11,.cls-2,.cls-3,.cls-4,.cls-5,.cls-6,.cls-7,.cls-8,.cls-9{fill:none;stroke-miterlimit:10;stroke-width:70px;}.cls-1{stroke:#3a2163;}.cls-2{stroke:#fbb040;}.cls-2,.cls-3,.cls-4,.cls-5,.cls-6,.cls-7,.cls-8,.cls-9{stroke-linecap:round;}.cls-3{stroke:#f9ed32;}.cls-4{stroke:#8dc63f;}.cls-5{stroke:#00a79d;}.cls-6{stroke:#be1e2d;}.cls-11,.cls-7{stroke:#ec008c;}.cls-8{stroke:#ef4136;}.cls-9{stroke:#2e3192;}.cls-10{fill:#40378a;}</style></defs><title>tiilt-logo-multi-thin</title><path class="cls-1" d="M1404.38,2797.29" transform="translate(1832.2 2067.6)"/><path class="cls-1" d="M1597-516.95" transform="translate(1832.2 2067.6)"/><path class="cls-1" d="M2234.37,1800.37" transform="translate(1832.2 2067.6)"/><circle class="cls-2" cx="1936" cy="4227.35" r="84"/><polyline class="cls-3" points="1335 2177.96 1700.85 3082.8 2288.95 2845.01"/><circle class="cls-4" cx="1186.68" cy="2440.71" r="84"/><polyline class="cls-4" points="1218.16 2518.59 1584.01 3423.43 1936.31 3280.99"/><circle class="cls-5" cx="1259.68" cy="1298.04" r="84"/><circle class="cls-6" cx="505.01" cy="701.42" r="84"/><circle class="cls-5" cx="808.56" cy="833.25" r="84"/><line class="cls-6" x1="1274.06" y1="390.58" x2="582.93" y2="670.02"/><line class="cls-5" x1="1377.47" y1="603.22" x2="886.44" y2="801.76"/><line class="cls-5" x1="1228.19" y1="1220.16" x2="1034.77" y2="741.78"/><circle class="cls-7" cx="704.59" cy="1237.71" r="84"/><polyline class="cls-7" points="736.08 1315.58 968.48 1890.38 969.98 1894.09"/><circle class="cls-7" cx="1001.47" cy="1971.96" r="84"/><circle class="cls-8" cx="1394.62" cy="1631.79" r="84"/><polyline class="cls-8" points="1426.11 1709.66 1658.51 2284.46 1660.01 2288.17"/><circle class="cls-8" cx="1691.5" cy="2366.04" r="84"/><circle class="cls-4" cx="2014.18" cy="3249.5" r="84"/><circle class="cls-2" cx="2216.29" cy="4383.01" r="84"/><circle class="cls-9" cx="2303.84" cy="3443.03" r="84"/><line class="cls-9" x1="1521.48" y1="3761.14" x2="2226.59" y2="3476.05"/><line class="cls-2" x1="1617.26" y1="3975.19" x2="2229.14" y2="3727.8"/><line class="cls-2" x1="2184.81" y1="4305.13" x2="1991.39" y2="3826.76"/><line class="cls-2" x1="1904.51" y1="4149.48" x2="1808.55" y2="3912.14"/><path class="cls-10" d="M-958.76-1907.6c329.4,0,467.56,346.72,467.56,346.72L-123.08-655.1l1179-479.15s93.56-41.54,210.86-41.53c132.78,0,296,53.24,388.22,280.21,173.73,427.48-251.61,616.28-251.61,616.28l-1179,479.15,342.5,842.73c103.43,254.51,222.79,515.16,445.34,515.16,38.43,0,80-7.77,125-24.7,299-129.55,212.43-388.1,114.83-628.25l4.74,11.67s-180.73-474.1,274.11-658.95c78.51-31.9,149.19-45.1,212.41-45.1,303,0,434.6,303.3,434.6,303.3s295.32,487.28,192,1004.08c-123.81,619.06-454.43,796.93-832.25,950.48-278.42,113.16-487.43,158.12-675.76,158.12-126.28,0-243.27-20.22-365.62-53.66-155.79-42.59-276.93-122.63-387.77-209-193.8-151-318.39-430.45-410.89-658L-753.68,597.36l-305.25,124.06S-1123.4,745-1211.72,745c-130.4,0-312.78-51.46-416.36-306.32C-1801.81,11.22-1406.4-133.54-1406.4-133.54l305.25-124.06-368.12-905.78S-1667.95-1662-1178.92-1860.8c81.28-33,154.5-46.8,220.16-46.8m0-160h0c-90.42,0-184.76,19.7-280.41,58.57-141.62,57.56-250.73,142.3-324.28,251.87a606.83,606.83,0,0,0-74.89,156.38,676.86,676.86,0,0,0-28.68,151,788.5,788.5,0,0,0,1.35,133A876.28,876.28,0,0,0-1648.92-1210c13.12,59.54,28.14,98.59,31,105.81l.21.51.2.51,307.89,757.56-155.28,63.1c-15.82,6.08-65.87,26.94-124.27,67.65a619.53,619.53,0,0,0-104.48,91.4c-39.51,43.53-71.16,91.83-94.07,143.55-30.09,67.94-45,141.49-44.47,218.61.62,83,19.42,170.51,55.87,260.22,30.66,75.43,69.5,141.79,115.45,197.23,43.22,52.15,93.29,95.42,148.83,128.6a559.15,559.15,0,0,0,157.81,63.88A616.74,616.74,0,0,0-1211.72,905a677.22,677.22,0,0,0,143.49-15.45c35.15-7.64,58.11-15.64,64.31-17.91l2.64-1,2.59-1.06,157-63.81,391,962.11c47,115.56,104.69,250.7,176.75,376.86,40.27,70.49,80.82,131.25,124,185.76,50.35,63.58,104.2,117.88,160,161.39,72.07,56.16,134.46,98.68,196.36,133.84,81.35,46.2,162.33,80,247.57,103.29,148.08,40.47,277.66,59.32,407.81,59.32,109.45,0,220.63-13.3,339.89-40.68,120.88-27.75,250.45-70,396.12-129.21,87.51-35.57,190.36-79.39,289.64-134.69,106.53-59.35,195.8-124.57,272.91-199.38a1118.77,1118.77,0,0,0,120-137.2,1198.71,1198.71,0,0,0,102.77-166.47c31.21-61,59-127.51,82.57-197.76,24.06-71.64,44.59-149.64,61-231.83,26.81-134,32.11-276.68,15.74-424-12.84-115.58-39-234.33-77.76-353C2407.48,599,2339,474.67,2319.84,441.45c-13.8-28.91-55.12-107.8-128.62-186.55-53.61-57.44-113.71-103.6-178.62-137.19-83.73-43.33-174.33-65.29-269.29-65.29-88,0-179.78,19.13-272.65,56.88-134,54.44-237.44,135.31-307.55,240.34-56.85,85.17-90.26,183.92-99.29,293.53-12.8,155.29,27.68,285.57,40.35,321.73l-.35.15c39.88,98.11,82.2,209.55,79.64,290.27-1.17,36.75-11.64,55.73-19.41,66.81-16.18,23.08-45.35,44.09-86.72,62.48-24.13,8.72-46,13.14-65.1,13.14-22.45,0-41.66-5.92-62.27-19.2-24.48-15.77-50-41.71-75.71-77.1-61.52-84.53-114.4-209-159.13-319.1L432.86,287.84l1030.73-418.9,2.35-1,2.33-1c14.34-6.36,143.14-65.81,248.5-191.1,66.69-79.32,110.13-168,129.11-263.63,23.27-117.25,8.9-241.07-42.7-368-28-69-63.53-129.82-105.53-180.91-40.2-48.89-86.9-89.59-138.81-121A532.14,532.14,0,0,0,1408-1319.46a603.27,603.27,0,0,0-141.2-16.32c-138.8,0-250,44.27-272.72,54L-35.09-863.57l-307.69-757.09c-5.58-13.86-48.38-116-138.18-218.83-56.35-64.51-119.89-116.4-188.85-154.21-89.39-49-186.61-73.89-288.94-73.9Z" transform="translate(1832.2 2067.6)"/><path class="cls-11" d="M1252.26,904.4l.19.49-.19-.49" transform="translate(1832.2 2067.6)"/></svg>