<svg enable-background="new 0 0 5000 5000" viewBox="0 0 5000 5000" xmlns="http://www.w3.org/2000/svg"><g fill="none" stroke="#beb4d4" stroke-linecap="round" stroke-miterlimit="10" stroke-width="89.617"><ellipse cx="2137.9" cy="4295.4" rx="84" ry="84" transform="matrix(.9271 -.3748 .3748 .9271 -1454.2039 1114.5563)"/><path d="m1536.9 2246 365.8 904.8 588.1-237.8"/><ellipse cx="1388.6" cy="2508.7" rx="84" ry="84" transform="matrix(.9271 -.3748 .3748 .9271 -839.1302 703.4119)"/><path d="m1420.1 2586.6 365.8 904.8 352.3-142.4"/><ellipse cx="1461.6" cy="1366" rx="84" ry="84" transform="matrix(.9271 -.3748 .3748 .9271 -405.4834 647.4601)"/><ellipse cx="706.9" cy="769.4" rx="84" ry="84" transform="matrix(.9271 -.3748 .3748 .9271 -236.8681 321.0797)"/><ellipse cx="1010.5" cy="901.2" rx="84" ry="84" transform="matrix(.9271 -.3748 .3748 .9271 -264.1512 444.4741)"/><path d="m1476 458.6-691.2 279.4"/><path d="m1579.4 671.2-491.1 198.6"/><path d="m1430.1 1288.2-193.4-478.4"/><ellipse cx="906.5" cy="1305.7" rx="84" ry="84" transform="matrix(.9271 -.3748 .3748 .9271 -423.3419 434.9915)"/><path d="m938 1383.6 232.4 574.8 1.5 3.7"/><ellipse cx="1203.4" cy="2040" rx="84" ry="84" transform="matrix(.9271 -.3748 .3748 .9271 -676.926 599.8088)"/><ellipse cx="1596.5" cy="1699.8" rx="84" ry="84" transform="matrix(.9271 -.3748 .3748 .9271 -520.7489 722.3771)"/><path d="m1628 1777.7 232.4 574.8 1.5 3.7"/><ellipse cx="1893.4" cy="2434" rx="84" ry="84" transform="matrix(.9271 -.3748 .3748 .9271 -774.3331 887.1945)"/><ellipse cx="2216.1" cy="3317.5" rx="84" ry="84" transform="matrix(.9271 -.3748 .3748 .9271 -1081.9635 1072.5652)"/><ellipse cx="2418.2" cy="4451" rx="84" ry="84" transform="matrix(.9271 -.3748 .3748 .9271 -1492.1147 1230.972)"/><ellipse cx="2505.7" cy="3511" rx="84" ry="84" transform="matrix(.9271 -.3748 .3748 .9271 -1133.3878 1195.2544)"/><path d="m1723.4 3829.1 705.1-285.1"/><path d="m1819.2 4043.2 611.8-247.4"/><path d="m2386.7 4373.1-193.4-478.3"/><path d="m2106.4 4217.5-96-237.4"/></g><path d="m1075.3 228c329.4 0 467.6 346.7 467.6 346.7l368.1 905.8 1179-479.1s93.6-41.5 210.9-41.5c132.8 0 296 53.2 388.2 280.2 173.7 427.5-251.6 616.3-251.6 616.3l-1179 479.1 342.5 842.7c103.4 254.5 222.8 515.2 445.3 515.2 38.4 0 80-7.8 125-24.7 299-129.5 212.4-388.1 114.8-628.2l4.7 11.7s-180.7-474.1 274.1-658.9c78.5-31.9 149.2-45.1 212.4-45.1 303 0 434.6 303.3 434.6 303.3s295.3 487.3 192 1004.1c-123.8 619.1-454.4 796.9-832.2 950.5-278.4 112.9-487.4 157.9-675.7 157.9-126.3 0-243.3-20.2-365.6-53.7-155.8-42.6-276.9-122.6-387.8-209-193.8-151-318.4-430.4-410.9-658l-451.3-1110.3-305.2 124s-64.5 23.6-152.8 23.6c-130.4 0-312.8-51.5-416.4-306.3-173.7-427.5 221.7-572.2 221.7-572.2l305.3-124.1-368.2-905.8s-198.7-498.7 290.4-697.4c81.3-33 154.5-46.8 220.1-46.8m.1-219.3c-98.1 0-200 21.2-302.8 62.9-77.5 31.5-146.8 71.2-206.2 118.1-57.1 45.1-105.9 97.5-145 155.7-35.3 52.5-62.9 110.3-82.2 171.7-16.4 52.1-26.9 107.3-31.2 164.3-3.6 46.4-3.1 94.5 1.4 143 3.5 37.9 9.5 76.3 17.9 114.1 14.1 64 30.7 107 33.8 115l.3.7.3.7 285.5 702.6-100.1 40.5c-19 7.4-73.7 30.5-136.1 74-42.5 29.6-81 63.4-114.5 100.2-43.8 48.2-78.9 101.9-104.4 159.4-33.5 75.7-50.2 157.5-49.6 243.1.7 90.5 20.9 185.4 60.2 282.1 32.9 81.1 74.9 152.6 124.7 212.8 47.5 57.4 102.7 105 164.1 141.7 53.8 32.2 112.6 55.9 174.5 70.7 50.2 11.9 102.7 18 156.2 18 121.1 0 211.3-30.8 228.2-37l3.6-1.3 3.6-1.4 102-41.5 368.7 907.1c47.7 117.4 106.4 254.8 180.2 384 41.8 73.1 83.9 136.3 129 193.2 53.3 67.3 110.5 124.9 170.1 171.4 74.4 58 139.1 102 203.5 138.6 85.7 48.7 171.2 84.3 261.2 108.9 153.3 41.9 287.9 61.4 423.4 61.4 114 0 229.5-13.8 353.2-42.2 124-28.5 256.5-71.7 405.2-132.1 89.2-36.2 194.1-81 296.2-137.8 111.1-61.9 204.5-130.2 285.4-208.6 45.8-44.5 88.3-93.1 126.4-144.5 39.8-53.8 76.1-112.6 107.9-174.7 32.5-63.6 61.5-132.9 86-205.9 24.9-74 46-154.4 63-239.1 28-140 33.6-288.8 16.5-442.2-13.3-119.6-40.3-242.4-80.3-364.8-28.3-86.7-62.4-171.4-101.3-251.6-21-43.3-38.2-74.5-47.4-90.4-6.4-13.2-16.9-33.6-31.7-58.4-30.6-50.9-66.2-98.4-106.1-141-58.3-62.4-123.8-112.7-194.7-149.4-92.2-47.7-192-71.9-296.6-71.9-95.7 0-195 20.6-295 61.2-73.6 29.9-139.6 67.9-196.2 112.8-54.4 43.2-101 93.6-138.3 149.5-33.6 50.3-60.1 105.7-78.6 164.5-15.7 49.8-26 102.6-30.4 157.1-6.6 79.7-1.1 162.4 16.2 245.8 10.5 50.3 22.6 87.3 28.2 103.1l-.3.1c27.1 66.8 77.7 191.1 75.3 266-.7 23.3-6.3 31.2-8.7 34.6-9.3 13.3-31.1 28.2-60.3 41.4-16.6 5.8-31.4 8.9-42.9 8.9-9 0-17.6-1.7-30.1-9.7-12.6-8.1-33.2-25.5-59.9-62.1-57.6-79.1-108.7-199.7-152.1-306.5l-259.9-639.5 975.8-396.6 3.2-1.3 3.2-1.4c10.1-4.5 46.7-21.5 95.1-53.3 67.2-44.1 126-95.8 174.8-153.9 33.3-39.6 61.8-82.2 84.5-126.4 26.8-52.1 46.1-107.3 57.4-163.9 12.5-62.7 15.1-127.9 8-193.8-7.4-68.3-25.6-138.3-53.9-208.2-30.3-74.5-68.9-140.5-114.7-196.3-44.5-54.1-96.3-99.2-153.9-134.1-51.5-31.2-107.9-54.3-167.7-68.7-49.5-11.9-101.7-18-155.1-18-68.2 0-137.9 9.6-207.2 28.5-44.2 12.1-75.4 24.5-88.4 30l-973.6 395.7-285.4-702.3c-3.8-9.5-16.2-38.6-38.4-78.6-31.5-56.5-68.5-109.3-110-156.8-61-69.8-129.9-126-205-167.2-98.5-53.4-205.3-80.7-317.7-80.7z" fill="#beb4d4"/></svg>